<mxfile host="app.diagrams.net" modified="2020-11-30T06:08:44.323Z" agent="5.0 (Windows NT 10.0; Win64; x64) AppleWebKit/537.36 (KHTML, like Gecko) Chrome/87.0.4280.66 Safari/537.36" etag="ufiVzKUBoNhXSGUALlhc" version="13.8.1" type="github" pages="3">
  <diagram id="ke51u8ED-XYAMLjfhfTx" name="Page-1">
    <mxGraphModel dx="1307" dy="765" grid="1" gridSize="10" guides="1" tooltips="1" connect="1" arrows="1" fold="1" page="1" pageScale="1" pageWidth="850" pageHeight="1100" math="0" shadow="0">
      <root>
        <mxCell id="0" />
        <mxCell id="1" parent="0" />
        <mxCell id="oGLTGMvlsogkiUQhxRWc-2" value="&lt;pre style=&quot;box-sizing: inherit ; overflow-wrap: break-word ; margin-top: 0px ; margin-bottom: 0px ; color: rgb(51 , 51 , 51) ; background-color: rgb(255 , 255 , 255)&quot;&gt;&lt;span class=&quot;pipeline-node-558&quot; style=&quot;box-sizing: inherit&quot;&gt;da-saas-chobi-test-shared-mssql-persistent-storage&lt;/span&gt;&lt;/pre&gt;" style="rounded=0;whiteSpace=wrap;html=1;" vertex="1" parent="1">
          <mxGeometry x="35" y="180" width="390" height="60" as="geometry" />
        </mxCell>
        <mxCell id="oGLTGMvlsogkiUQhxRWc-3" value="" style="shape=image;verticalLabelPosition=bottom;labelBackgroundColor=#ffffff;verticalAlign=top;aspect=fixed;imageAspect=0;image=data:image/png,iVBORw0KGgoAAAANSUhEUgAAAGQAAAB/CAYAAAAZ82cMAAAgAElEQVR4AeR9d3xcxdW2sa0uS+7GhtAhlIQECBCqq9pKK8mVYrqBUEwLLWAIvZpQQnHAgUAooRcDNu6yLcta9d5Xdcvd3dvv3dWfz/d7ZnWNLMu8Sb4veT/wH/O7u/fOzJ05zzln5s45c2bM4OAgmCzLgm3biMViexPv8140GhV5nLw/1iv7xr7wyn4xqaq6955pmuI38zh9dvIP/28Yxl4aOXlZp67r+91nnXwH6evQbWSdzn1exwz/44DBilmIlTgNGZ7vx/rbAcLpp0MYEs0BSJZl8dvJw6sDAPvNfPzPK8szaZq2H71436nXyefUSbryN++PpOVeQJiBGZmIqFOAL+bvkQV/rP9JBIeY7Cd/k3DsIxnRYUKn3859XocnPicwBMOpj89Z3vnPZ8wzHBCHvk79I+m4FxAng4Mqr6yMjXSeDW/Qj/H3cDAcojlEdAjlXAkW+086sBzz8cr/zEO68Dl/sy5HSpiPz0hoJ//wvE59DtMfEBDnpayYhRRFES9hZU4lzPNjT8MJyN/sj8PJoVAIVFnhcBiRSASBQEBoC9LA6TfpQmI6V/6WJEncIzAO0CQ0f7OsUy/zsn6+17keEBCizQrYmL/+9a947rnnxLWlpUVwgvMip2E/5iu52OFuEuadd97Bn//8Z7zwwgt4/vnnRWL/X331VWzduhUDAwMCNIKwbt06vPjii3vz/elPf8JLL72Eb7/9Fm1tbQIYEpz1k5ZlZWV4/fXX8cwzz4h3fPbZZyBNCRIZgW0ZDso+KouVdHZ24qSTTsKRRx6J888/H19++eXelzggEJx/Jf0r5RwO/lfqd5jlfyrjtMNRP/xPos2ePRtHHHEEDj/8cBx11FHi9zHHHIMTTzwR55xzDkhESkFvby9uvvlmkeewww4T+ZifeU8//XT84Q9/2Ae8L774Ajk5OTjhhBMwc+ZMQdNTTz0V11xzDerq6gRobMM+gDiN5JWAvPHGG0hLS0N6ejomTpyI++67D319fXt1J8WOYkjOolgTaTaWHeMzos5nfr9f/Gdehxup+py8Pp9PiD2fswy5j/UFg8G9eVin8w6nXuc/r3yPUw/BcNQIyzll+Zx5+R5HRbGvBIVl2OZf/vKXos/z5s3D1VdfjRUrVmD58uXi/oQJEzB//ny0traiu7sbV111FSZNmoQLLrhA/L7yyivF7ylTpgig1qxZI9pfW1sr6mL5X//617j00kvhdrsFMATnnnvuEf122sT2MI1xAOGD9vZ23HLLLZg2bRpcLpdoECvZsWOH0KckKIn7yCOP4KmnnsKmTZvw2muv4d5778Wbb74Jr9eL3bt346GHHhLPyVkkEssRuIaGBrzyyiu4++67RWJZliEI27dvx/33349Vq1bhj3/8o/hNZnj88cfR1NQkCE/ifvzxx6LsE088AafzzjtIBJYlU23evFm0gXXyPxnB6bzTZwJCoMm1JBz7QHXCNvX09IhyfEbGrK+vF9x/ww034OSTT8azzz4r8lJqKioqsHTpUgEUQWVeqqrf/va3OO2004Tqb25uRkdHBx544AFMnjxZSA4ZxRmf9wOEDWYhZv7FL34hVNVll10mxJgdIieR69hQvpQccfTRR4trZmYmMjIycOONNwrx5DNyETmDoJGTSayFCxdixowZmDp1qrhS7Ak4pYm6m+JP7mF51peSkoLjjjtOlGXbbrrpJqEmWG769OmiHhKrqqpKEJzqlcRi/WwT+8L3sS4CxT46BCAowwGhRvj73/+O/v5+kQgKmef4448XgPD9vLds2TLRBo4dDkFZJ/tJtcd37tq1S4BEpibQixYtwnvvvSeYjgCSsdiW4UyyDyBsGDmYgw+JQbHs6uoS3MmOXXfddQJdSgfVF/Ui1VphYaFoCDn50EMPFUQg5+7ZswdFRUWiLnIEgeRE4eyzzxbSVFlZiQcffFA0lqCRKzmjoVpg/RxkZ82ahdTUVKGzOaiSe6mrqT7ef/99ITVsFwlJRmDnCAjVD0His8bGRqEqmOfCCy8UdbMPIyWEZQj+z3/+c8ydOxdnnnkmzjrrrL3McdtttwmQCADVGRmR0s26qAoJCNtI5mG7P/nkEwGeAyg1DoE55ZRTBO3I4JwAOGXZnv0AodqgiLEwZwQkDolw7LHHis6UlpYKTifC+fn54sWcXVByPvzwQyGa7AyJTRVy++23Cy4m4UksivWWLVuEOHs8HjHjIOEo0iQcO8W6ampqcMYZZwiu5oDK/9TdJArzr169WnAmQa6urhYSzDaWlJQIdUbizpkzR6gscjvfSUBIbHL4DwFCpqJEkCkJECc2K1euFG3m+0gjBxDOwFiXAwqlnIM3JWTjxo1CFRKkDz74AJdccomgIdUfpYhMfuedd4pJAlXmPoBQOkiMnTt3CjXDCikh1JG///3vhQqgyJMjKGrkYIoiuYT6nBUSEBLxoosuEmqPjedYQLVCVcH/FHmqBEoQO8X8BJ+NpDpjHkoKCU81Q8JyJkJ1x7Ht8ssvF7O/d999V0gzCcEZ4bnnnis6+emnn4rZEMstWbJEqA1KPQEld/I9lEJy5UgJ4TOCxvGT011KPtuel5eHr776SpQjkxEQzpAIFJmR99gO0oBMRgkhmASE4wXHRb6fYHH8pORQY7A9ZBBOlVnHPoBwoGOFBICE51SPep1SQJ1P0SXhqBYoZpQQNpSc5ADCK8V88eLFQpWw4SQ8CcsBno178sknBYgXX3yxUI1r164FxwKqLEoVpYATBXaKHE8VR4lh28jZJATVATnT+WCjZFGNsQwHUU4zOf3kAEuJJiHKy8sFR3Js4TsOBAj7TrApzZQ29oWgFBcXCxVMhqHEkTE41hEQAk6GIWPwG4Z0IqGpDT7//HMx1pL5KKVsC/PzGd/FPrK9+wFChElkqhsiR8IRbc6W2BmOKyQ2Vcu2bduEhCxYsEBUSMQdlUXgSAhyOTvNmRdVADmCnH7FFVcIwvCjioMeRZaiy7r5Hg56JCbHpmuvvVa0gUCSCQgIB1GKO6eP7CA5j1JIiaZEUD2wgyQ8GYl1kljsCycYZDQSju2lVqDO5pVtpYRQHb711lviP4m0YcMG8R1GUMgoBIOMwH6wX1RDTz/9tFDvVGukD/tzxx13iLwEleMWweOg/uijj4rZKftGaeQ7Odby/c74we+RMRyoOD1lg8lp7IAjQrxyLOHMgtzJmRCJxIGVKov6kRVSZZGwfDGJz3sc6CkBlBASguqAsx8Cl52dLVQWJYgN49cvp8LknOTkZJx33nmCQ0lYzvO/+eYbASK5k3qazEO1yQ85Sgifk/i8UmWxveREEp/9IbEpiWw7Jc4BhKqanE/1SdDefvtt0XZqDUo5p/esn2387rvvRD8oqSQ8VRPbT6lgu0lkag5HRVHSKM0O2MzHcszH3wSO72Zb9vkwZKPJ6RyEyYUcJ9hQZnQGWs5qyAV/+ctfBPrkGH6VkguYj9LEwZvczzGGHSJILEN1xhdTKqgWOXWldKxfvx4PP/yw+EDilJHqgl/BBI55OJZwzu+8h3WQ66kqWJ7PyXUsy2cO8Sk1HO84S2Q7KF2sj4xBleEMwnzG/pF5OM4xD9vI56yL9zmd5gSHzziWsC6q2uuvv17M4nglx/M5ic/vNZZjedKFUsuZH9tElU963HXXXWKWSEZ31NU+gFAKCAK5mA1mRWyUI9L8T+5jBym2fOYM7nwxy7Mcv0/IVU5H2RiWIafwxew89Si5lFdyKp+xTtbHOvib5ZioRvnf0b2sg3WzLbzH9zEf308i8BnrpFphXWwbE9/L+pmXedgfXp3+sTwJzedsP/+zjJN4z2mH03enbSzDZ0xsH5+zHOtw+uyUIaMykSZsJxPzDQdDqCw2jA/IZbwO12fOM97ni9gZBwQSwcnvdNL575Rjx1mOedkw5mOe0ZJDUOZnXhJ1tDIO8Z06CCp/My/fy3qYeM/5zyvfTTCdZ+y8026HiM77mN9JzD/8vtN/5/3O1XmXUz8JznL8z8R28r+T37nuBwgfsJNMTsOcyvnMISgrdQjrNHZ4fv5mHj5zXsLyTt7hDWBe5z4bzt8sy99764gNivvkNL6X5fmMV457Tj4HZOYhsXjfyc96+XxwqC4SxCES2zi8Tt532jT8ynysj/XwPvOxnU7fnb465fl+5mUZ/h7efqdehxYs45R3rmItixl5gxUw8WVOA5xGOP/ZOT5n/uEviEVjouPOfecqGqfpsK3v7fWsg+9xGmaZ33O003mWZ4PZIdbBvHwvE9/L8nxOrnfq4X3+Zn7T+J5BnHc57R3etr39GpIY5xnrYTmWcZhGlI/GpcfJ59Rp2/G8zn9eWTfrYHm2lfeoiXhl/axjZBrjvHTkA/53Okdi20TesjFIwgviE0RWGkX8uS2uJLaTonYUTPzvNIJX5jcpzkP6lg0WXD2U1ykvQBwiwF7Ah9UfvxcHh2WYn0A45dl+vo/32A7md9rDPFECTc53mIntZF+HpIpXQbihd5JxWJeTn7TjO6MxgkFJjCJqRcW9ONBRxAbjxBf9GwLBYfjRaL7XHjLaQ0E8QUATMVuHbWqwDA22ZSAWJadS3WiIseMHcbJjKqKDGmK2iahmwdYMQSN7UEd08Htvk9FoPPLeAQHZCwZFL6bCjoVgRkMw7DDMqAo7asCK6uLKlx7MyYzasCgdNNwZJkxdhWlrMAd12P8vABkOBkXWMHUYpgw7KiM2qCI2aMCmrrYGEbWogg5uCTGpymxqDQ2DMVmkaIyg6LCGJgPDaer8Hikd/L+fhDiZeSUYTLZhwdZNxDiYWwYGqa6iNgatGAYtC4Mx9aBO0aiCqB1B1AqKFIspQqVHOVkZNpkZTlvn90hQ9gLiZHCuAoihGYtlmLA5AIsBkAMhvym4SikLrohFLQEQQTr4Egd0jqX8SKYKH5o9WjHYWgy2Mfp3l8PsDr2d66iACDA4dbRs6IaFkB6ET/GjN6LCK1nokix0SyZ6RDLQIx3cqVcy0CuZ6A6Z6ApZaOM1LMOv+BHRQtANG5YdFWreAcK5OkA41/0AccAwTBuqbiEsm/h2l47fP9GKs7O/w/Sj1mHW0aU46gQPpv1sAyZM+wQZ0z8/qFPm1Hcx9fCPMfOEjTj0pPU44byvsPjGErz4Xhc8zRrCigXNiDM4p8Px6XR8Su0A4Vz3AqJHw4jZMViyBU2X0O4bwGtf+zH3ph5MyalE0jwPUnM7keEKIcOlIS0/jLQCH1LcPiS5JSSOkng/qfC/m1LcEtIOkFL/Q+1JLggg3S0hOcePTL4jqwMpeQ1IyirFz5fW4A+v+rGtMYSBcBiarkOJ+GBFNehifPl+NYOgCEAEOjY//mz4wn5sq+vDVQ94cOj8LcjM3Y2EvCaMzevFeJcPCfmSACCZL3b7kVDgw/gC/4GTO4DxP/WU58P4nD6Mz+pGQsEAkoslpCwMYVy+Dxn5LZh0wbeYffUWfLijF039ASEtqqrBsiXEYiMAcVSUrdtQTQOb6iTk3uJB6gVVSHH1IbWoHykFEpJdEtJdXmQWtGJiYTMmFTQhI6seGQvqMSmvafTkasbk/3KalN+MiQWjJz77T7RniqsVE/MaMLGgDql5VZhQ0IaUPD9S80wkZgeQ5upD+oIGnLp8O57/ohtexYKsR6Aqvv0B4ee/rhtQNQ3bqgbgur0Ciee0IrFYwbjCbiTn9+LES7ow58ZGLL67Dlc9Uo2bn2vGHS90YOVTLVj5eCNuf6Z19PRsK+74L6fbnm3FLatHT7eubsXt/4H23Lm6E7c924KVzzZgxeNVuOqJVmSvbMWvljRien4bktw+JOaHkJbdi59ftA2vrK9CbzgETY0P9M74IVQWF70isgJPZz8uvrcMyWd7MD4/jPGFQUxwe3HWjS145r1WbPb0oNWnQdINREwDsmVCpdchE1dA/z9JKg1MXJQcJfH+f6SdpgFFUyFrMiKmDp9moazOj7/+oxaX3LsTP1tSjZRcH5ILdCQvqMAvL/0Y72/0wh/mQD9CZWmajqAUxuMfeTErbzvSc3uRvmgAma5GnHN1Ld7eOACvX4KmKjC5jmXoiJkaYpaKmCkjZqqIWXo82UNX5/+/eR20dDDtrfdf+O2U/W9eY1HSIIKoKSNqKjAUFaZmIRKKYmdNANc+UYajiiuQIiZBfkx1tSL7dxtR1csJ1Per4EJCFEVDv0/CnOvqMWlxJZLcLUjNCuDMK5vw/uY++CQ/bNuPWJSGIBpY4tM2K2rDiJowogbsWPSAiWs8/83EtnBcHG05JzrUzv/X7TFiJsxBG7rFJXsawpx9IzpMS0Vthx8XPbgJme4uJOYbyChQcUzht3jx404xJY4OM4iN0TUTr3zSgsMX1yOxoAcTFgYxs8CDVX9pQnfYhGYa0HQTum1Bt/wwYt2IxeT4srYVhaZasM0YdC6qccExpiGkhaByuSUWhRY1oURjUK0oVIVG/YjI06fTjsGl8Rg0KwY9ZoMdI9BRO4aYLcE2g7CjOizaamgfidnQYwbMmIJoTIZuSmLss/h+nW2IITZkEnBMA8OvfEZQDpT4/MBpEDHagEZJJCiTzeV9YQfhshMTud8Ua1pbyv347aXbkJLfjYRCC2kL25B9xy609KjQoxHYURODUQtjAn4FNz1dhomLGzHWFcGEggBOLPocnm4DqjCuqDAtGlWYuNUtvo5lWVwuiCAW49SNAGmwdA26qgubg27QymfCMlQYtDGbNNZEERNWNBlK1IYa8cMwtHgnBmMwYyY0Q4dlUq/SPYYLdrRommLVgFNEcpyhm2KNSFUlaFpg6P1six+DgyEMDtKTI26rGXml3eJAaWTeff/vb0xy1qGGD8ojf5PQdkxHd7+NGx6rxpSiZox360gs6sOpl+/C5rIBaHYEtk1AbIxpqg8g9/pNSM0rR5rbxBSXDzesrhPLI6aqwVDZ4QBsU4GlRBEzY4hZMUEQXea4EoGq+2DoKmLkUCbbgG71wTB6YAYlWLYMI6oJ482gHi/vDw7AMP1DxKQ1bWhwo+VuMG7EoqTEwaHhR4ephmDrEcS4aMd2UJIIGhljaF2NC5/7EnJfYA4EBu//UDmH+KNdR4Iw/H98xVcV3x7vbQrjsEXlSHCHxffbUe5yrP1HJcIGbf00/kUxxuMJ4KylJUhd2IzxWRZm5nix+r16RJQQYiq5NQxZkxAM6YioNsK6DcWIwLTl+Pq/HYVJK5sRgy3HoEncHxKGpAUwoPZCCcoIhXqhR6W4YUuPIarFYFomFMuAZirQNQmGHEbU5DRwUOhjir+uR2HolL6IWMi0bQ26aUM2ogjKBlT6AxtUWwNC2mzVRkxI14GlICoW/7gAuH/6IbCGE3nkb2ddarSrxTHWjBv1qnosHOFej0R+SLv8mJlVj+fXlCHMIUGjPWUQY8orwzjzkkYkFnmRVmBh1oJ6vPpRFSKRAegRFUHFQm2PgvUePz7Y1It3N3jx1U4vatt9kDnzimoIGzoipgUusnmawvh0axBrPx/ARxsj8FSH0B3R4DMloSsNWYUcsVDi8WJDZQg7av0IKZydqAIQqjWOO4aYDlqIxiQYpg+yqaEjYGJTZQgfbu3H29948V15GJXNYUiyBIPjm0Lp4YA+OiCjgTD83g8Dsu/0dDgoowHh3DNjBgzdgGXI6JBMHJXzBZILBjAuvw8zs9rxwhoPZMOCqtC+FMWY3dVhnHl5D1IWS0iYH8HhOeV4/eMGSGEJkmJgY10EN65uwzlX7sKpi7fitIUeZF/ajFvvr0ddswbDlhA2fWgOqlj9STvcd5TiN5d6cNScHTh3WROW3F2Cl7/qR73fhmLJCEcCKK2WcP7iN5B1XS2u++NmNHaHRINt1YTKr1iLhh0LFqeRsTBUS0d5u4bH3ulC3q3l+OXiEpyYtxNzL27AxTeWYrsnDEWnGjMRo417FO537lFXHyg5eUa/HngZ3VkwHO2qR3WonPBoMtp8Go7J3iDW/w5xd+DQvC68sKYSsmFC0+JmjTElFX6cflkP0oo1pLuCmJm9GS/9vQEh1US1N4xrV3vws8JGZOY042cX1eHky7pw9NwGnPjbj/HF5n5ETAn9UgTPf9iJky7ahYm5NcjM7sARRa04zFWGCdklOGVZGV75JIjuQBhhPYwPNw9gylmfYfrsLpy+ZD3K2+lmw+8bE4Yehc5pK8cPg+s9Jtp8Bp54px2/WLYL6bNrMK3Yg6OX1eCY/GpM/sUreOndWkh0pDMlxCwai0h0uuPE03ACHwgM3h+eb/hv2jhszv6G+ZTZXE7fm0bfc0lrYSSqIGJpsEwDzT0qTsrfjRR3AIcUNWJ6QQeeeakMYY0OdrSrqBizs9KLMy5rQ3KBjMwlNmZlVeC1j+rQI0l4b0srjlu2ESnz6nD8kmrc9Vo7Xv82gIff6sGtT+3E7kYfFC2M9bskXPC7aqTNbcOh7mqseCGAB97pww1P1GGmuxzpWQ3Iuq0TG3eHIEUC+Ly0H5nneJCZ14eTF23H7pYh5zaT7qsarBiJIwuLpGFEsa1BwjnXlSNzbiOOKqrC9S80YPWXXXjsvTrc8MfP8OW2VqhGBHqkD5Y2ACUkoaPLRFufgYhiQVc49kSgGSYiYU1IvqKEIGsq/JoJKcK9KYZQwf6wAkUzYaimuAYUHZKioi9iwbAiMAwdUthAy4CE1j5uiTYRUBXxeWDJthhnJc1ESI1A1jR0qxp6NR2ybqC6Q8IJOeXgqvNYdwemumvxxIulCGuq8MDhDHbM7uoOnHlFE5KKuJSu4bCsdrz8USV6JBkvftyIjNwyJOS1IvuOFngaFSiSBH/EQGtAhV810D8QwcOv1mDGolqkzOtEzo1VKO830BU2UdWo4+JVncjIbcE0dzUef70L/T4/PtrcjAm/rUSKuwOnLN2B3U3xbxl+z9BuHx3UERtUMGjGYOg6vqnsw8TZG5F0gYRzb6rDl6V+9IYV+BQJ3gFuOuXGURlSOIJSTwfuXrUFxde3wHWTB9c/U4E9Xh1+qoz2AO578Etc9/tv8NEXXrz+QReW37sBT7+6B8+8uAHLr/8W19y1BV981wlFsfDlpnbcsKoES6/5Bmvfa0RfREJjn4IHXmhE4W0e5N3SiOUPefCxpxsDUhhKv4WHnqrGZdd9hRffb8E769txzQNf4U9vlqGjJ4DmgB/HZe1Ecq6Esbk+TFtYgSdf3g1ZJyCGmP7vBSTR7cW4HB9m5bTjxQ+q4JcsrPmoHdOzypCY24yTrq3HezsV+H06tAgHKn5bRNHkVXDNw7sxsagWmXM9eGLtAPpViqmCvoCFp970Y7KrGik5lbj0/jo0tYfxwcZ2TDyvDinuTpyydOcQIFHxgRkHxIDGQd2IwTTD2FjZhsNzv8bEfA2zltXij2s70NSnI6RZMCJRWBEZuiWjtC2Iyx714Jj8Sky+oAqZ2bWYXNyE2XdtRb1Px+YNnTi16Dtkzq/GqcVN+Hl+LabPK8GNj7Ri+cpPcfjcVky+wIObnyhBfySMO1eX4LCsckw7rxGPPuPBTm8EN/25EYfPrsehF/ZjWrYfGa4mLLy7CmVVEurrJZya9yWOdLXhxIua8asrmnDs3DLcelctmlqCqO6rw/F532HKEg3j3GFMde85MCDJ7j6Mnd2Fwws68conDQhKNrbtCWPBDR5MX9qGtKJGzFr0HW5+uhrVdRa0iIWgpKKsMYTc28uRlFWL6XO24sMv/VD0AFTbD0XV8f4XPhx7UR3SF7bj7KtKsdUTxLsbujHlfALijQPSbMady4SEKMKlSI3FIAfjtvzWviAueXg3MnKqkFrQjiMLPVh4pwdvfTMARbahqyH0BAaw6u1mZOZuxZHLynHZY1uwfNVOHJHXgkkLtuKVT5uwcWs/jl9WjfFFElLm1SBtdgnSzngH1/xhC156twEZeTsxLrsDhbdvRk1nLy5/eCcyC9uRtmAbPvy6AX8rD2DGnA04MieAS3/fjsv+UIfD8usx6exdeGddHxp8A/j50i+QljeA5LwmJJ27HZknf4ubVu5BS4uCOl87js5dh+SCPozN9WPGwroDA5LgCmJstoQZua34y9eNUBgyQgnh/R09OOuKUqTOrkZqUQ9Sc2pw6kU78PZXVF0KvtvdjnN+V4ekOd04OmcPNmyPCAJxyYOOEd9s8uMXVzYitagLpyzZgc0ePz4uCSL91zuQ4u7BKUtKsVsAQi9A+oDFAQnTeGPHYEhRyKqB9VV9OP+m75CR5UFaloT0/B4csXQz7l/jEWNAXUcIxXcREC9m396CdWU+/GODHzPnVCH5nB24760arC8J4IT8XRiXW4UTrtiGO9/04vNKHQNBE41NCibO/QfGzQ9i7lUt+PtHfci+vhGpOX2YnPsFalok5K18HxMWtOEXhQ34skLG2+s78avlrUg5txYP/KUe6z1tOHFJOdIKFBy5rAa3v9SAb8oMdPRakMM2ylv7cFzBZkxY0omxOT2Y5m7Cky+XHUBl5YYw+SIbE+fX4sVPqqDKEmy9CwHTxBc7Lcy5YiemZHswnqbKQh9OuWQLPtzQhk1lXlxwUzOS8iQc4a7C+tII/EGuzUShKQo+2eDDKZc3I9XVjt9csgc7K4L4okxC+mlbkVLQPwQIvVjo7Rd3yqNrphb1iw9PVYrCNGxIpo7v6hUsu7cSs/LahZk2Ib8Jyee+jbVf92FLtYTfXlaH9PN6cHJhJ4pu7MJ5K1qQkRfAxCu9WPlqGT77uhenL25DZnEbcm/fjg0VveJDV/cHxbdR1rU7kZTdj9/eEMSq1e34zfJGpC1ow1V/aEVTtY6ca7bgZxcpmHFRKy64fSPOutGDtAIvUub4cOPDHdhabuCXi8uRlhvCKUs9+HIjtz6HoNsBmKqJxn4bJxaXI6W4BePyBjCryHtgQJJdQaQXKZiUU4fnP66GGgrDDvXGJUXTUd+p46UP+nFcwQ5MXChhxqIm3PBEKTZ5/Mi+pRh2LDgAACAASURBVBKJrn5k5JbgtXWd8Ks2DG7K18N4e30AR13UhOQFjci6uhJ7KsL4ZEcvJlxQOgTIbuxujk97+WEk3DLpK2tbCIUHoOoSLFODFuH+C1vMnF5+twNnXrYFmcv6keb24cTCz/DCx304+2oPMrJacbhrACfktuLw7E041F2Hmfnb8dCacnyzuR/HuauQlN+EhfdUYIcnCFXWEbXCCBoWVq+hpW8Pjri8DbOv2olZiz3IdJfj3Q8CqGkzcfbyjUJCUl1VOKxgB47N78KsRfWY5S7Foy90wiMA+RoTCr04ZXE5NpRo0Okpb3EVwkCz38DRuaVIdPdhXEEI093NowHShd9c3ozk/H6Mnd+Faa4mvPFZB+SAjqimQpFNyGoIutoPORLGU38LInVOJdLy2zHvhk34rDSAix+tRlpBN5Kyy3DTS6XokXVENKoCCXe/1oYJ2R5MyK7CjX/0or3Dwue7+jHhwm1Ic/tx0uLt2NHAtR5NuByZXLPi1gaZy/Zh6NE+RPQgTNmCEVZh6n5oET/+us6Lw5e1ImGeicOyN2HNlgGcesUWpOU04IhFrbjigVasen4T7n26Enc+0Y71JRK+/K4FxyzdjXHuRrjvKIenxg/N1GHGJEi2jvVbgphasBUTizoxeT7BaMbxl1Vg+7YgGvwGTrv8K0wrHsDMRTVYfl8b7n3EjzseLcWNT3+B7eV9aKgz8cuFm5Hq6sSJl3jwZUlATJMt00bU1FDb68eRs7cguVBCYpGCqfm1Q4DwG2pollVa1YMzlrciucCPsYUSpmbV4b1P2xCRdLT3+LC11Ic9tQG0er2o7+3C3W82IiWnFqmubhTctQ3bOoNY9W4TjipuQfqCAZxyRQk+3DWAilYZX26TcMHKemRmt+CIou1Y/bdW9PtUfLbLj4zzSpBRJOHoxRvxl2982FYlobQmhPJaP3oHON83oEcVyFEZ7YEgNpX2YnddGLU9fjT1+PD0uw2Y6SrHhLkGTij+Fu94Aih8oAkZ87pw5rXt+NvXA6hsboOnbQAb6iRUNAewaUs7TirejfHubrjvbYCnpg8Rfldw+dwwUNUdwYVXbcTk3CYkZfUgbW4liu/0oLozBLlfw5I7SzFpcS8OX9aI1R/2oL5TQnVnENs9AbT0GNhZb+MXS3Yhw9WGky7dhXUlMjSu24mPShMNAyEcmbUVSUV9cVq76/Hky+WQDQKiIxqzMcYBJCNPw9iCCGa6a7Dm41L4ZRNvf1uH3Gu+xsI/7MG1z1XimmcacezSakwq9GGyqxF/eK0e/Vxe8QSQf0sZZrpbkJlVj7N+144lj3Uh655qTC5sRmZ2O3Jv82BbfR8kI4C/b+jDtDMakFoUxOSiRpx9bQvyb+lC8W1tWHjzenxeMoCwakCJ9kOyg9hZ70feVVuw6N5uXLy6AVev9uI3v2vC1MJ2TMnuxbK7ylDWHcajf2vAjLxtmLKwDvNuasF1D3tx7eOtWHrvenzwTR22bvPiJFc1kl19KLyrFZ4KH2Rdh8Qlci0Ar6Tijj/VY8qF5ZiRb2LKhRV48PU2dEtB6GEZb34dwqHuXZhU1IRTr67Atau9WPFMJ5b8bhf+sV7C9g4bJyzehOlFYZy8pBrrdoegUeLFUs7/AIg1HJBLW5E2V8XYvAhmuCvx+pdl6FEsrN3Qjl8WfIqJ55Uh49x2HDZ/AJnnD2DqPA/c91ViR2MfTK0PUiCM9zf24IIbd+CwgkYkn9OA1HxKXTUy3e244KYGfLDFi56BdtCG8dmXEo458SvxBT85tw3JZ1Qh4+x2TDynFpN+9Tb+/Pcu9PTaUHQJiuVHSWU3fpX7ATLP3YIJ7ipk5HUibX4lJuZtw+wVldi0JwhJi2CLpxOL/rAb09weTDqvEYed34MZF3gw6cwX8cZHzfhuYz9OzdmC9PO3YeHKnajw9EHRVYRpGrAlhDQZa79swonZ6zHz3Fb80rUN763vQEj1w472oD2oYOVzHkx2fYfUrAqkXliJSed7cOTpn+KVD/uwqSOMo/PfwpQ5Vfhl8XZ8W9YDxeKuAa4s/yuALG9Fam4EY/NDmJxTi79+Vo9g2ERjn4zX/9GJ61fVouB6D3Kv2o2L7qzCfa9VY2ODHyE1DFvphxYOoCek4ZM9Pvz+5RZk31CDUy7pxGRXu3CNueKpdpTU6+j3hSGHTNRWm/jjw3uw4skaXP9UI656uAnXPNmNqx5vxO8e3IDdHh9CdADgXgtVgY+Af16P3z3iwYKVDTjrilq4f1+Be16twqY9EmSVy9cBBGUVJQ0hPPlWG1bc0wT3dbW4/IEaPPthI6o6Imhqi+D+52uw/P4yrH6jEh0dQWiGIlaSYzEujRioaOvFY2sacN39nVj9ZhcauugKSruPIqyiDZ06nnynBUX31iHrpjJc/vsd+NOaZlS1q6gaCOD21dtwzaoG3PnkbtS2SNAsE2bs3wBkQpEU12uuTqz9RweUMPfrhRGRGHAmgLbOPjS1D6CmtQO+kISwrEALWYhpKmxThha1EbRUdEp+lNYE8Oo/wviVewcmzN+FIxY14syLPXj4lQq0DYQwoEVR4ZfR5dfg7dfQ7dfQFlRR0zeA5u5eqFwJsCXoqoGYGkVMMaFKPvT7/WjuklHVIqOxS0FXTx8MrlGFexE1Q2LJnutQkj+MHq+Cpk4FjX1cr7KEiUA2o+iQDDT0qfAOKNC4jyOqwqAHobC/WJDUMLpDOpr6TfSEbLFGZUQ0GFp8Wd9UwwiGLdR3aqhulOH1+iFJfujWAEKGhO6AiqYuDe3dAWgatynEYMW4MPkvSkh6QT/GFkcwKbsFaz/ugMrYgnofZCUE2yIHmsL1kf6+tmnDjliIGjExrVNMVXTYsFXYlg+GKcEXsvHlziByb9qGWQUlmDrXg1ueqEBXXwBBVUY/N/3QqBWJwdbj29IUW4FuGbA5w4pK8UVGm9ZJC4bOXcJhaEoQsuKHYaqwDEt44nM7gBml6Zge51FYig1VMUD/ZMuIIuTjHscYZG7N1iTougpdiUClhEeVIbM019EM6KYFxVCg2mEYdrzOmMnNohFEY0EYUS90MwhTi0IN2DBk0kFG1PIhGqMhKopIKAjL7oNuy1Cj3wPS+EOD+j5jyPJWZOQEkLZIx8QztmHNJw2QVBnhwSDkWAxqTIEyGMGAKYNLGjTh2hF6m4ShxoKQjIjw1aJhP2bYkAd6oUQl+O0Qen0aXv66A1k3bMCTT++Er1VGNMQprR+yKWHQimJQ5V4TA9agDH1QFw4Vqh6DMRiFNOiHb9CPyGAUYTpEaDFYUUaz0xFVYlDlQWjcK69FxLeLyQ37lgyfLUEbpL8yl/VjsPQQjJgkZjwxQ8OgbiAm9hKqiNlDszrTP7R/kmZgWeyD4R6YmBlGzIoioBiIxDQYUUVYAbkcH44NTddp7h7af2hTvVldGND6EOYG1SEJ+ecAqe7CGcv5JS3hkEIfJubW4vWPOqDSm4TL4NwZxM2bw1xVRlrLxG6qYbYCx1WIBhtyqaZbUDQLKkWY0iU2U9Kq9/1+8B/6HfcS+T7vcLvEqL+FF8iBLXyjv2tf2/tI+/q+1sT4Js997420UtLaGfe8EbYVy0CLX8YxuSVIcvdgbEEQMwobvp/27pWQ0QChylJZoQPI98QY2ZlRCbIPOAe2tI2s65/9/z+985+tZ2S+kSAM///DxB8Jxvf/BTNxlvXfAoSd+p8IdKDnIwnyz/4/UH28/8/WMVq+4QCM/P2jAmS0zv04733P2f8uACPL/a9IyI+T+PurYY59w23pw3+PJPQ/+/9/BZDRnMf+mXv/LpA/VPe/WyfLDQdg5O9/FoCR+X4QEPewQX3vWtb/5aDOjvwQgX7o2b9LvP9Enf8pQOLO3wcY1PcDxKKTQxfOvLxl32nviFmWiG0ySqCUHyLM/9azkSDv0w4O+roBw1IgWyGoMR36kJO0pVKFhYS3C92ILHpNKlHxhU47zA8lVbHj7ksqjXL8WKWbaxRRhqUy6WorwVJ0dA5YODrnKyTm92FsnowZWfV4dk05+mUJYZ1utcLrpAtnXnGQADJoC68WfoGbjMyjmVAY+immIRLxCm99IxpDxIoiqEfRrRioHRjAjtZ6lDR1oqTRO2qqaA/CGzThV6IIqRZMrjbYXFkIQItFoBNoyw9vQMdR7i+R6NYxNs/Azxa14U9v7IFkKNBosh78CQOyj2SILQTxL2bZ1sTuqlCEEU8tKHoUvcEI2nwSNjXLeH39AH7/Ui0W37MH568oxYmLtmL6gq8x6fxvMek8pvUj0rc4fM4HWHDtVqx4pB43P16B1X9rx3flEdR1K2gNmPDJGjSjGy3dfTgxdw0OXdiD9MIunHDpLry0dgeCqgZdeMDrQyrrJyghwwGhGqMXocl4YFzss6NCMho6JHy1U8JjbwZwwZXbkH7eOqRcsAXp8yuRkd+FCUVBpHDR1R3E+AIZ4/OV/VJCvoIJbgWpeX4kL2hFZnYNJszegrSzPsQx7m9x+aOt+MtXEjxNCrqDJm575DNcdE8Jlt63GyufLcUXG+ohKToMhuaIHiSA8IORFkhu31PUKFq9Cj74xosr7tuNXyzehal5LUjL8iO9uBNJ7k6Md3VjXF4/xucHkFAoIaFYwjh3L8a5e0ZPC3qFjTxhkYyEoiASi1i2E4muZkxwVeJnBSVw31KD599tw3eeEFoHTLT3KGjtCqPHp8C0uTxvYDBmHBwSwrUz7jIOhlVsq5Vwy1N7cFLhJqTNrkJmfgSJeTKSXWGkFfqR6upFSk4HJuQ0Y7q7AUcvqcOJy2tx8nIPTl5ePmo6ckk1Zi1swMT8eqTmtSKtoA9JLglphRoyiiVk5HYhbV4DMi7ciKX3evDZFh96+8IiWp4hnMoZj4yB1w4SCSEg4YiC8oYgFj7YhOnuUqQVdiFxoYLEIg3jsr3IzGtG5tw9OHFZI3Jv68bVj3XiD39uwgvv1+GddXX4cH0zPlrfMmp6/eNWrH67Dfe+0IzLHmjAvBsbcezCakzJrUZmXguSstuRVORH8sIQMvObcfYlZXjx3UZ0hxRhIKM9nV42gzENY3bXeH9S014Ruo8xHUUIP3IeAydL8DREcPGqPZhY1I60xQEkLwojsaAfE/Nrcdplu3DVQx488dc9+Ns3HdharaDOa4lZkaRwL2NYhCRkeL/RkqJaGPCr6PGZaOq2sKVSxltfefHomgZceW8tTlm6G2muPRhf7EP6IgOJ51bh7GtK8fznXfBHZBg2w/NyVZ0qq6ZbuAHts/z+I/4OISB2jBtEGVxNF1uVTcuPh18JITP7O6QUS8hcoiE1uxPHLGrAlY+04x9b+lDVMQBJ0cTmGe6mpV9ZPHCbIrbk0eIX/3rn8srwxC0PpjCY0cNeMUIIqyFopolgyER9q4z3vutD8f3bMblwB6YuUzHJHULmnErMv7kSe+rodiuJ7RhRkyqLgFw2wh7yIweEthuDwSdpPrAMyLqMXxfuQEpeuYhBMn5OM06/qhmrPwmhvCO+PUHXLbEbWOwItmLC9CpWj8UKMleRf2jhkRH2uMmV28bjAEUtDYYeEtv/aOyju9Dj7/dgWs52pLjDyCgI4lh3Od7+uAaKRUtjfMPRTw8QmkxtU2yzjg7Gt4n5VQtTf/UV0hZ2Y3x+NzJdlbj5pU7U9oahGF0wQwHEgtwFHE8G9+JzE+ogQ98ykimjqh4YEG7cscRGWEbYGxTbKGK6jSjD43LzkBqGpfrRE9aRs6oMyct7MH6hhOlZHjzz4g4hldzcOmjTL6vaizOWN/1klk64zGNZBnRa6wbjhOpRbEw+vQTpSyMYW9iH8edXYOl9XdjdbCGk9sM0B0TkN27fptNamN77DNfHUH0xBgGIbwX/IVAoTSaJyv3pVhRKWIMqh6HZ3FphQpMt7PJY+NWKXUjIqcO4xT4cvrAGT7/ATZ8MP8uyP0lAGG/YEkEGGMhAVwy0+y1MOr0MCbkBjHMNIDXPwMzsASy724c3v+1H04APA3qH2JPC7XQanS2Ek0UYDGZJ54cfAsOOStCtbpjRPkQHAzBjYZgxHZptw2tI8AT8eOUfXThvaQVmFUaQstjAuKwezCqswfOvVYotbYbBWZZBCenCGZc2/oQkhIDYYp8iN+xzUW8gbGPyL3YgJTeIQ9w+JDDWV64PE/M6cGzhbly6qgavfR5CaVkAzW0R+CVDbCI1LA7WFjSVIfq4z/AAiVKgSlCNACJmEJ3BAOq8CjbuCeK5j7rhurcKhxZUiME8OU/C+Nx+pBaEcERhJ/70WjnCDPMugjJH4tPeMy5tQmreMCeHH/mgziAE5PRozBARVSXFxpSTtyIjn4B0izS2iCEufEjnB9z5HZhxYS2WrSzDrY/W4dm1XXjni36s2+rDrooQapo0dPaG0dUfGjXVNsvYXhYSm2DfXteDx//ahRuf6sLsKz04LKdUhGVKmKcjocBGoqsdCfnNSC+QcDg3fb68G2FdEQuS3HU8pqy2G7/5KQESZbhwG6aIaWLC1g0EZBuTT92GVNcAxhb1Y2yegnHZvUjIa0ZiQR/Sl+gYn+dFWmE/0lzdSJ/fislza3GcuxJzVtTjonvbseLRelz7WN2oqeiuBpyzogaMzMBtfek5TUhf2IPkxV4kLGpCcnE/0uaHMGFONzLcHUOR+cKY5mrAUyOdrX/SgAyOBMSHse4+JOV5cco1TfjtTTswM+9b4SCe6e5DwsJmJBR1iv0bia4BJOT2IDGnDSnZ9UjK4hf3AZKrHUk5nUjK7UNaUQhpiwIYX9SBcYU1SHZVYdK8WpyQX4m8Oxrxy+vLkZjdiKS8AGYtad/fDeigAiQ/gEO4XpVVhetXt+Lz3X78+R+tuPKPrTj3ugpk5lYjNbsBSdleJLokjHfLOMQdwVhXEIwxyQCbo6XxzJMfwdjcCBJzJSQv6ETagjrMKqzH+Ve34fbHuvG3z/rwVaWMwgdKMLWwE+mFEmYuHmbCdfyyDipAXEEkFIcwLb8FT67twkDQRkCyUd2lY111EK+tk7BydTfOXr4TUy5Yj5SzdyBlTgsyXUGk5HYhOadz1JS+oB2pF9Yh5bc7cOjczZhzdRluX92FVz4OY32pivYuA1IkIrZuXHL/LkzL57ZAFdMWVh7kElIgIWGJjkkLWvHYq13w+wyE/f2Q5B6ELC/8Uie8/n7Ue4PYUS/h4x0BPP+pF6v+2oCVf9qNm1bvGjXdttqDP33Qh288IexpCqGuTUZPv4yQHEFE7YOitMFUOxFUNFxxXxVmuDQk5MmYlr8LT768J75h56CUkJwAEnKDmJLfhj++3o2eIGOBMaqRipDSjahug9FZ+ZHGSEQR1RDrW4zkIIXCkMTJ2AxUsG8KhPshKf1QuN3OZLAcGRZP2KE51+AhBrTVawioNq58sBxT8vuQVChjahEDB4wKSPNPZ9o7fJY1clDPl3BIQRjJs8txzxst8IZlESbKoAe+YceDp4n49nEvkSidp62oiM1lCS92moH3T2LNiwfGMImQhjEYXE+LxaDYMSj08jdjCOhR/G51GaYU1yOhMICphdX7q6zd1T048/J2pLpC3ztb/8i/Q7hXT2c4PwLCU+W4dPKrbWIf5fjCACbP68YTr/fBL4VhhBicIAa/HhSn/MRPvxk6XECcnMNANvT0N8VZIDwPZGRiKJAoP0Kj8XNDbB7nEWOIKR1h24QWMxA1dCiSjd896UWKq1lEfZ3mGg2QKgLScXAAks8I3BKm5Hrxx9e70Cf1ixCEgzwqiVsVLCfIJ0N6xGBw1VdIxuAB4zTSEY6Lkpo9CMWMx5a0BmPxdbSYDcU2YERDsE2/2M6w9OE9SF/SjKTCEGYsqMeTfx7a9OmMIbsPJkAKAhjrDiE9qwM3P9eFxj4G6+TGIcaP7BEx7207HleSK8aMHqSJw1riqohnTI2WqMa4MMldZIzUSgmKCinhHnVueApA1/wo9xqYf38ZJixrQ4o7hMPcXQc5IK4BjHP3IzXXh9Mvb8ZzH/iFZZAh9kJajziqSFdVGDye1YwfWsaDwCxu7onxiLvRk7MfhpHjDM2EOHXOptozhZ0komqobNXwwFt+TCliLP0epBaFMcPV+P2X+kEpIfn9GF/UK2KDpc7pwakXdeCiez145dMulHdH4ItYkBQTssbQrrQQcvk9hJjFcLUK7Kg2aooKp7gwLMaPZNh2M4qIEUN/yERFu4wXP2zCknsqcOLF7ZjEoAEFmjjQYLr7YB9D8riO5UVSoYqkfA3p+QFMdJXj5Et3I+f2Sjz8Nw/+vrUXZV0WvKqFAIMK0CRr+EXATobNHS3JFsNRqZBMA10RCztaDKz9tgN3/XkHCu/ajOMv3oVpxbQ5BZBZqCPZTR+vHkxdyEgOI6a9B9MYkpLH7xA/xnIsWRjGuMV+JC7uRGJuBybmSDh+USeOL6zCqcUlyLpmG258qBLPvdmJ977wY93GZny9qRHfjEi89/dPu/H0q6247t5dmH/Zd/hVUQlOcFfjKHcbJuf3IJFf5kt1JC8NIyG/DSmFHRib24apS9pGmfaK0BptPx17CJ0bDjTtdfXhkIJ2HJLjw6TcbszMrkFydjMSFqkYz2WVom6ML+5GYmEnUgpbkbmwHlOX1mDmJVU4rLACh7s9o6aZhR5Mc9PeUYuMomakLepE4hIvEpZ0YXxeAOOyDCQsaMax7j2YNteD5GIdY5dGMHVx+f6AOKE1fkpeJwcChH1MLDCRVuTHoof6sOLRnTjc9TeknLMFR1ON5OhIK7SQucgS1/F5EYzLDyK5OIikogOnxEVBJC7iYmQI43IjGDc/guQFMjJyVREQNG3uRvx88Trcvboby27zIyUnhIT5Phy2cJQx5GACJDlHwrg5ESTPr8BDb7fAKxnY3WHi2Xcl3HR3G44rLMOs3D2YvKAKmfTTzR3AhDxJrGLsPdapgKAOS24CERG+v0l5YaTOa8PkOWU43rUV519agusfKsebG/pR2Wugq8fCTffUYZrLj9RCDbMKOIaM+A45qADJ88Wd4wob8Ojadgz0K4joJsKWhYgkY2t9EG982Yjbni1B0W2bceGKHTjtsj04aVk5ji+uxXFFdaOmYxfvwsnLS3De73ah+M4S3PrsTqz9vBF7msPwyTzlToPCPf4hC7fevwsZWS0YX0ADFdeyDmZAXD4cUtCNcdkVWPVaGwKSBUah0KMyTK1dhDWXVQ0+yUJzryUCq31TIeHj0j58uLkZH24aPX26pQYbPW2o7pTRFbQwEDYRkA2EOQU2dITVMEKaBFk2sfLhMqS6mjB+cRgzFnH5fcQs66CSkNwADskJIimvFg+ubYc/pEDh6iyPydDiYWkZmjbGI2VtLpuY4Ol1SpQHBzC8Bo8M3z/RkcLWTEQNWxxFy5Afqi5DtUJi5VezbHEaRCBkY8WqMqTmt2PcojCmFXJQP4gB4aCe4o4go6AGj6xthT9A9x1ZOEQwCLJJ158ol8sZ6tyMH1LPU4W4mWboIGa6BO2XTA10A2VMFnFiA2Ou2AYsW4FlyVBtDXLUQjASxcpHG5AmTrxTcKh7lDGEewx/8xPaYzg4tPxu0MlhaPndz9VeOjnkB5FYGEBGbjkeeqMFA0FNOE/T65ARtHUrBEscFhMPVW4wPJQxFPac56McIAk3UnvImc45b577DHULlqyLuO9m1I+AbuLK+6owKceH8a4wpo9mwo1Htv4J+fb+kD0kTwJ3PM0obMIDb7WjU1JA3ysapZSINOQQxzPQNVjRMEybxzxJGOShNVybsuxRk5AqLrHEJHGag2kFRGgrEfiGNhUarKIBtIdMXPFABw4vlDE+L4ypS1v3H9SdUOM/me+QHwAkLU9CYp6K5HkNcK+qwNf1Evwat7rxJKAOGAyuL+wo9OmyRfAYBjYbZLJ4UjYTfw9PXPMiiKoAMTpIb0ee6kDnNxOGIYuY8QOqgQ932ji5uBRp57YjPU/D1JxRnBwOJkBSs3uQxCh3i1Rk5FbjNytK8eJnETT5bMgWY/hK0LmfJBqFZcQgtkqrMfBUIC0mQx2M7J9iESgRC5YW3wpNi6GsRRBWIyLMlGTY2NNm4vF3gjjvxk5MLe5GRmEYSTlBTM1uGGX5fSgY/8EgIan5Axi7qA+HuHSMc4WR7u7EDFcl5l5fjuc+6UZ1l4Q2v4K+sI6gokDmiQtWJG7ToNVQ7BGhEev7xHuWrYrJQcSMIKIb4tujsU/Dd3t68fS7jTh7xVZMmr0DqXlBJLhljOX5wQv9mJY7itfJQSUheQEc4pYxpsjGIe5ejC9sRkahhPT5PqSdX4HTC7di0cpa3P+KD2u/juDzPSFsrB/A9hYvOnsC6OmV0Nu3b+I9T1sQ2xrDWFcRwmtfSVj5bAtyr/PgV0VlmJnrQYa7E6nuMMblqUhiIP6FQSQs9OHISztHsYccRBKS5gqIUwnG5kpIdbcipaAC4+nU5tIwYaGKaW4Fk7lEvqAJE+eX4XD3Dpx2pQfZdzTh4gc8uPTB8lHTvBurcOrFHvzMXYLJubuQmVuLCfk9SM8PI8WtI7lYQVJBNxIWNCBpfgsyiiPCHjLDVf89IE6sk5Jq7qCKx7I9xB3AFFcd/vpRt4hZSO9xuvSL0H3/FzFNhu8Z/4//Hj6oC2drbtynk8N2pLh8GFvQh+QcL06/vhtzb2vGzwr2ICOrEenudiS4/RjvDiKhkKplAOPyvEjI6UBybgcScukL3IvEEUncX+BFYm4fkli2wI9x7gEkFvuRtHAAiXleTMxuwimLKzB/ZR1OurgRE7J9GJ8lYdbCDjz9igeyrsASxwxGMWZTrYTfXFqORFcbDskPi1jpb73fDU2WYQ/K0LhtV7i37B/OyIkr8h8n8r8SZ2Vo+Z3xGslQ3CrWT0BOK0FyPm3qfqTnVOPWl9vxdUUIL7xfjytX1SD71jrMWtSETFcdkrMbkOzqQlphAMnuAMZl0yc4XpblR6aEfB/Gu7sJGQAACiNJREFUufxI4NbqHD+SZzdg4rxynHRJHfJub8Lvn2rAR5/0o7RKx7L7PEh3dSDJHcGM4ko8+5oHYVUGjygk44/ZVq/hnEvrkZTrxTi3Jo4sWvteC1RFgh0LCTBEMJUfiI/4YwBk0mk7kOwKINHlx8R5ZXhkbSN6QiEE1QjqvAa+qZTw3Mde3PRsHfJWluKcKytw2vJ2HFvUhcmzW5E8vxJJWZ5R05QcGqMacepFbbhwRTOW3FWLu1+sx5p1XfimNoTGAQVhJQJJ1XDNk1uR4a4fMuF68OwaAhL5HpAd9QbOWdyA5LldSF5o4dDCGrzzaRdUmdGcJXFqZ/wAxx+3hAhAaLlz6Zgxvw3PvulFfyAIyd8DOaKKqKqSFkJ7fxDlDX3Y5PHhkx1+rFnXjSf/3ogHXm3AA680YNWIxHuPv1mDNZ934tMSCZs9EqpaFfRKjAEsw6fxnBUfNMUvwppf/3Q5Uha0Y3yuhkOLO4YkZBggu+oiOLeoHBkLOjHebWB6cTNe+aBbHJhlRCPiBMqfDCAFISS4DUzK6sADf+lBd1CHRlUhzhHUEWPgT4PunyYimoYBNYIeOYSukITefhW9faOnnkAY/REVks7Ay3E31HDAgh6xxUoAvVFsuqWGbFz5SCXScvqRWGDg0OK2/QGpapOQf3kJDi3sxLgsCZOK+3Dz45UIqhY0bpzkcW5cMvgpqCzq/yVeJGbvxK2vNqBVYhQeLgIycLMJTeHRS4wsx8VB7lWPIqJFEQiZUM34OVdiMZILksMT96nbUXHyqF8KQGGAZtZrqZD1EORwCBYPMZNsXPFYuYiLn+Duw/TiXXhmTfm+KqsnJGPlQ+U4tLgG43LDSCuSce6lm7GjlqcG8EhqRUQY+LEDEh/U+zG+sAWZBR7ctbYVrZIOSZMRkBiVWhYLizyJ2ogxWIAWPzGUwaGj9Ew8cLLJrIM2YsKlNAwzOgDd8sKMeoVHpMWPStPGgBzF5U9WYUJhF5KL+nFocYkIYLbPoB4xdbz0TiMOc5cgYYmBRLeGI7M2ihgf3SoPggwiFuXJzfuOIdyc7wRX/v9tULeHnBysoS3N/bKJw87bieQ8P5IKZEyY34Hcmz34do9fbHejVOhaRPhS6UNHcAsPRR50bKsYtHikKyNkG6MncQp2TOxPF9H3xMGYPNs2Bj1qx+PiBy18smkAv1i2EUlZQWQWRTDLVY4X1g7NssSe9hjGRFQVPQMSzr2uClMW+ZCUZSF5TgBnXbcOn+4pR0AKxGOsi+DITrRm2g7iB7qbDMXtnPQ8AjQBIk9+/q+leARuLr3LsSgYHc40ZQxEgrj1T42YeGED0ooljM+XkJLXiDNursbqzwdQ2SChvycEXY8fMU51FQ+loUI4wXHV1zbECaIM/7dvii/R2zpVO73lGS+elkIDPlWD1y9jV40fd77UiFMuq8F0xuBaEMDkvGZcsGI3dpR2IRxm9IcYDNPEGEXX4JdCePC9NkxesAPJCySkF0uY5KrD3Ov24NPSPvhDEVgaBzxyiIxBM4JBXg1VNIIie6BEx+P/ZqJbZyzKccEU+zPYZsuKYF1JCFnXNSE5izGx2pDk7kJqgYT0Cyox/6YS3P/XDdi4uwOepiA6fTTBxhBSeEKcDVUltzO+CU9I2D/F7SkxqLqNUFhFV7+G3fUS/r6hEXf/uQxnXPYVprtLkO7yIXVBGJmufhyzZAvufaMe3X00YsXHLcbNGqOZBkKygrJWBYvu3IXU2euRUNwugrRMdvfjvJvr8eePm7CrqhddAyrCKkPkMSnidE1dU4aCtDDg475JN3VxwgxPmflvJZXngfBwAENBSNag/p/2zi2mrTqO40CvtOuYY07novFR45yZY2Yxk2FAe+8KLplxmZe9LEYWR0w00WXRXXRxGi+4sYyoM5pMyEycOpTsEnaV0pZSoDBogQIFej09LXQ8fsz/4CO8kj3s4fPQc5o+/P/n9H/7fb9fWWIqHiEWT/LTX6Ns2hvE9HIAk2sGnWsG/Y5RTO47rDT/y3Ov3sB9IEj95yMcbh6hsTWiGNMI07GOQJRrgdFFaeuM8Wv7OCdbwxxrHuHto+OY94V5uq6PR1w9rKwLobeNoXdkKXNGWe/ooOFUF/4p0Y5C+y5iywV3KRK9ks3JpKU4Fz0havZfRL09iL4upwjstZZBNuz24Wzwsu9IL+9/3c/h5jDHfwxz9HQfR77zc/yUd0k+a/KynBw97eHjM518dMrLwaYAx77v5YMTf3Kze4yxlExzewxbfSeP2vyUmSOKZsTwSp7i6iRGewqDOcqK6l7Kajw85vbw7N4gNQeGsTZ0Y23wLcqL9X1sejPI47VdrLH4MFlE2lsMrWUGnS2FrjaL3hbGYPawcc9tDjV7EbvBqVxcicTIifDiwqzy114kTFZmC3PMSikScoyL/hlq3umhdHu/8qNG9yhG5yQmxxRltjCrnQOsdffxkKuHcouHB8weyh2BpXEGKF9G1rg6KXdeZ5XdQ5mji7V13TxYfZ5vWoaZzspEE1mu9cT5pClE5e4u1lT6WOeOYrQG0Yj4WXtEQe0QNcBRjO4JTO5JjPbYkpgcCUzONKWuFBpnUrEE1NTFUDmHMJiHWFXTzROvXeH1T2/R0jGuFHVLqQx5OYGcF6eW0sJh2HyBooJiYyQyMgpKYvG0NMUFzyA737vB6soOjDU+NJZRSqxxVLZp1CKc3TmhbKCV2EVZTZziHemlcacpXkZKamOoXRFULlE2GkK14w4myy2++HlQ0QBKojwnKczGUlzunODblgl2H+xn486bGLb6MW7rx1gVRl89jvalaXTWNAanjM6eQGePK3JpIZlWsMeVa3prFJ0lgtYSUfTqqsoudM9fZb31No53hzjUNMa5S2P4Iwmi03HFpEYsQAu5LPk5obzK/z9tnqPormKhOo9cEK6YBXIJmWRKpns4zZetMarqh1ht7kNdNYjKPKIUmoldUZUjrmizNfYEpfYYhkUQ10sdy4tG2GeYU6hsEsXWUUrsY8p2+ommQbKZSXLCt0TKk0unkLJJhqdm8IxIXAqlOftPnA9PBqhtuMLWN67y1C4v6xxBDC/40FUG0C6BsfJvHra3sWHPdarqb/PWMT9ftYzS3plSopFGYkllraNEjMt5pGQBOVsgK2cVZZbIahdT9cL87MIbMqdIsMTgcpe8LFyaM2TkDBMJia4BmXNt0+w/HuKZXUFWbAtSVhlCv8WDdosfdUUATYUP7aL40Sj3xXeWB/XmXlQVHrQVAbRb+tBsDmJ4so3Gsz5kKcucJCuzRWHhJBZsImJJuL8p2VWZPBPxHEMTEt47GS57U7ReneaHP8Y42TpI02/DNLYO0NgyQNP5IeXzmd8j/NI+zoVbM9wIZeiNSoRjMpPxHIlkHmH/J+WE3lBoTkQbCzPnhTWcGC7mRGDYvDi/X4jaKMpms9zn3mmD+x1yjz2Q9zvkHuuQ/wDvLj/cNiLo5AAAAABJRU5ErkJggg==;" vertex="1" parent="1">
          <mxGeometry x="700" y="80" width="100" height="127" as="geometry" />
        </mxCell>
        <mxCell id="oGLTGMvlsogkiUQhxRWc-4" value="&#xa;&#xa;&lt;div&gt;master-2f69e9f1-4eaa-4a73-9717-c9816e156746&lt;/div&gt;&lt;div&gt;&lt;br style=&quot;color: rgb(0, 0, 0); font-family: helvetica; font-size: 12px; font-style: normal; font-weight: 400; letter-spacing: normal; text-align: center; text-indent: 0px; text-transform: none; word-spacing: 0px; background-color: rgb(248, 249, 250);&quot;&gt;&#xa;&#xa;&lt;/div&gt;" style="rounded=0;whiteSpace=wrap;html=1;" vertex="1" parent="1">
          <mxGeometry x="730" y="220" width="330" height="40" as="geometry" />
        </mxCell>
      </root>
    </mxGraphModel>
  </diagram>
  <diagram id="ziT4MwylYHOasaISvlLC" name="EOP-3956">
    <mxGraphModel dx="1307" dy="-2535" grid="1" gridSize="10" guides="1" tooltips="1" connect="1" arrows="1" fold="1" page="1" pageScale="1" pageWidth="850" pageHeight="1100" math="0" shadow="0">
      <root>
        <mxCell id="h6DE7eMNVtYe8vKyEsqt-0" />
        <mxCell id="h6DE7eMNVtYe8vKyEsqt-1" parent="h6DE7eMNVtYe8vKyEsqt-0" />
        <mxCell id="h6DE7eMNVtYe8vKyEsqt-2" value="repo: platform-provisioning-blueprint" style="rounded=0;whiteSpace=wrap;html=1;fillColor=none;align=center;verticalAlign=top;" vertex="1" parent="h6DE7eMNVtYe8vKyEsqt-1">
          <mxGeometry x="40" y="3630" width="640" height="160" as="geometry" />
        </mxCell>
        <mxCell id="h6DE7eMNVtYe8vKyEsqt-3" value="platform (folder)" style="rounded=0;whiteSpace=wrap;html=1;fillColor=none;align=center;verticalAlign=top;" vertex="1" parent="h6DE7eMNVtYe8vKyEsqt-1">
          <mxGeometry x="70" y="3660" width="310" height="110" as="geometry" />
        </mxCell>
        <mxCell id="h6DE7eMNVtYe8vKyEsqt-4" value="client-data (folder)" style="rounded=0;whiteSpace=wrap;html=1;fillColor=none;align=center;verticalAlign=top;" vertex="1" parent="h6DE7eMNVtYe8vKyEsqt-1">
          <mxGeometry x="430" y="3665" width="155" height="110" as="geometry" />
        </mxCell>
        <mxCell id="h6DE7eMNVtYe8vKyEsqt-5" value="client-shared-core" style="rounded=0;whiteSpace=wrap;html=1;fillColor=#dae8fc;align=center;strokeColor=#6c8ebf;" vertex="1" parent="h6DE7eMNVtYe8vKyEsqt-1">
          <mxGeometry x="240" y="3690" width="120" height="60" as="geometry" />
        </mxCell>
        <mxCell id="h6DE7eMNVtYe8vKyEsqt-6" value="client-data (bp)" style="rounded=0;whiteSpace=wrap;html=1;fillColor=#dae8fc;align=center;strokeColor=#6c8ebf;" vertex="1" parent="h6DE7eMNVtYe8vKyEsqt-1">
          <mxGeometry x="450" y="3690" width="120" height="60" as="geometry" />
        </mxCell>
        <mxCell id="h6DE7eMNVtYe8vKyEsqt-7" value="repo: chobi-usecase" style="rounded=0;whiteSpace=wrap;html=1;fillColor=none;align=center;verticalAlign=top;" vertex="1" parent="h6DE7eMNVtYe8vKyEsqt-1">
          <mxGeometry x="210" y="3870" width="465" height="150" as="geometry" />
        </mxCell>
        <mxCell id="h6DE7eMNVtYe8vKyEsqt-8" value="usecase-blueprint-chobi" style="rounded=0;whiteSpace=wrap;html=1;fillColor=#dae8fc;align=center;strokeColor=#6c8ebf;" vertex="1" parent="h6DE7eMNVtYe8vKyEsqt-1">
          <mxGeometry x="250" y="3922" width="120" height="60" as="geometry" />
        </mxCell>
        <mxCell id="h6DE7eMNVtYe8vKyEsqt-9" value="chobi-client-data-solution-bp&lt;br&gt;(aka usecase shared)" style="rounded=0;whiteSpace=wrap;html=1;fillColor=#dae8fc;align=center;strokeColor=#6c8ebf;" vertex="1" parent="h6DE7eMNVtYe8vKyEsqt-1">
          <mxGeometry x="445" y="3922" width="120" height="60" as="geometry" />
        </mxCell>
        <mxCell id="h6DE7eMNVtYe8vKyEsqt-10" style="edgeStyle=orthogonalEdgeStyle;rounded=0;orthogonalLoop=1;jettySize=auto;html=1;entryX=0.5;entryY=1;entryDx=0;entryDy=0;dashed=1;" edge="1" parent="h6DE7eMNVtYe8vKyEsqt-1" source="h6DE7eMNVtYe8vKyEsqt-11" target="h6DE7eMNVtYe8vKyEsqt-5">
          <mxGeometry relative="1" as="geometry">
            <Array as="points">
              <mxPoint x="800" y="3810" />
              <mxPoint x="300" y="3810" />
            </Array>
          </mxGeometry>
        </mxCell>
        <mxCell id="h6DE7eMNVtYe8vKyEsqt-11" value="client-shared-core-ns" style="rounded=0;whiteSpace=wrap;html=1;fillColor=#f8cecc;align=center;strokeColor=#b85450;" vertex="1" parent="h6DE7eMNVtYe8vKyEsqt-1">
          <mxGeometry x="790" y="3710" width="120" height="60" as="geometry" />
        </mxCell>
        <mxCell id="h6DE7eMNVtYe8vKyEsqt-12" style="edgeStyle=orthogonalEdgeStyle;rounded=0;orthogonalLoop=1;jettySize=auto;html=1;" edge="1" parent="h6DE7eMNVtYe8vKyEsqt-1" source="h6DE7eMNVtYe8vKyEsqt-17" target="h6DE7eMNVtYe8vKyEsqt-22">
          <mxGeometry relative="1" as="geometry">
            <Array as="points">
              <mxPoint x="980" y="3810" />
              <mxPoint x="850" y="3810" />
            </Array>
          </mxGeometry>
        </mxCell>
        <mxCell id="h6DE7eMNVtYe8vKyEsqt-13" style="edgeStyle=orthogonalEdgeStyle;rounded=0;orthogonalLoop=1;jettySize=auto;html=1;entryX=0.5;entryY=0;entryDx=0;entryDy=0;" edge="1" parent="h6DE7eMNVtYe8vKyEsqt-1" source="h6DE7eMNVtYe8vKyEsqt-17" target="h6DE7eMNVtYe8vKyEsqt-11">
          <mxGeometry relative="1" as="geometry">
            <Array as="points">
              <mxPoint x="1010" y="3690" />
              <mxPoint x="850" y="3690" />
            </Array>
          </mxGeometry>
        </mxCell>
        <mxCell id="h6DE7eMNVtYe8vKyEsqt-14" style="edgeStyle=orthogonalEdgeStyle;rounded=0;orthogonalLoop=1;jettySize=auto;html=1;dashed=1;entryX=1;entryY=0.5;entryDx=0;entryDy=0;" edge="1" parent="h6DE7eMNVtYe8vKyEsqt-1" source="h6DE7eMNVtYe8vKyEsqt-17" target="h6DE7eMNVtYe8vKyEsqt-6">
          <mxGeometry relative="1" as="geometry">
            <Array as="points">
              <mxPoint x="1010" y="3680" />
              <mxPoint x="620" y="3680" />
              <mxPoint x="620" y="3720" />
            </Array>
          </mxGeometry>
        </mxCell>
        <mxCell id="h6DE7eMNVtYe8vKyEsqt-15" style="edgeStyle=orthogonalEdgeStyle;rounded=0;orthogonalLoop=1;jettySize=auto;html=1;entryX=0.5;entryY=0;entryDx=0;entryDy=0;strokeColor=#FF0000;" edge="1" parent="h6DE7eMNVtYe8vKyEsqt-1" source="h6DE7eMNVtYe8vKyEsqt-17" target="h6DE7eMNVtYe8vKyEsqt-25">
          <mxGeometry relative="1" as="geometry">
            <Array as="points">
              <mxPoint x="1010" y="3590" />
              <mxPoint x="140" y="3590" />
            </Array>
          </mxGeometry>
        </mxCell>
        <mxCell id="h6DE7eMNVtYe8vKyEsqt-16" value="AWS socket line" style="edgeLabel;html=1;align=center;verticalAlign=middle;resizable=0;points=[];" vertex="1" connectable="0" parent="h6DE7eMNVtYe8vKyEsqt-15">
          <mxGeometry x="-0.4018" y="-1" relative="1" as="geometry">
            <mxPoint as="offset" />
          </mxGeometry>
        </mxCell>
        <mxCell id="h6DE7eMNVtYe8vKyEsqt-17" value="client-data-sandbox-ns" style="rounded=0;whiteSpace=wrap;html=1;fillColor=#f8cecc;align=center;strokeColor=#b85450;" vertex="1" parent="h6DE7eMNVtYe8vKyEsqt-1">
          <mxGeometry x="950" y="3710" width="120" height="60" as="geometry" />
        </mxCell>
        <mxCell id="h6DE7eMNVtYe8vKyEsqt-18" style="edgeStyle=orthogonalEdgeStyle;rounded=0;orthogonalLoop=1;jettySize=auto;html=1;entryX=0.5;entryY=1;entryDx=0;entryDy=0;" edge="1" parent="h6DE7eMNVtYe8vKyEsqt-1" source="h6DE7eMNVtYe8vKyEsqt-20" target="h6DE7eMNVtYe8vKyEsqt-17">
          <mxGeometry relative="1" as="geometry" />
        </mxCell>
        <mxCell id="h6DE7eMNVtYe8vKyEsqt-19" style="edgeStyle=orthogonalEdgeStyle;rounded=0;orthogonalLoop=1;jettySize=auto;html=1;entryX=0.5;entryY=1;entryDx=0;entryDy=0;dashed=1;" edge="1" parent="h6DE7eMNVtYe8vKyEsqt-1" source="h6DE7eMNVtYe8vKyEsqt-20" target="h6DE7eMNVtYe8vKyEsqt-8">
          <mxGeometry relative="1" as="geometry">
            <Array as="points">
              <mxPoint x="1010" y="4060" />
              <mxPoint x="310" y="4060" />
            </Array>
          </mxGeometry>
        </mxCell>
        <mxCell id="h6DE7eMNVtYe8vKyEsqt-20" value="usecase-blueprint-chobi-sandbox-ns" style="rounded=0;whiteSpace=wrap;html=1;fillColor=#f8cecc;align=center;strokeColor=#b85450;" vertex="1" parent="h6DE7eMNVtYe8vKyEsqt-1">
          <mxGeometry x="950" y="3862" width="120" height="60" as="geometry" />
        </mxCell>
        <mxCell id="h6DE7eMNVtYe8vKyEsqt-21" style="edgeStyle=orthogonalEdgeStyle;rounded=0;orthogonalLoop=1;jettySize=auto;html=1;entryX=1;entryY=0.5;entryDx=0;entryDy=0;dashed=1;" edge="1" parent="h6DE7eMNVtYe8vKyEsqt-1" source="h6DE7eMNVtYe8vKyEsqt-22" target="h6DE7eMNVtYe8vKyEsqt-9">
          <mxGeometry relative="1" as="geometry">
            <Array as="points">
              <mxPoint x="850" y="3952" />
            </Array>
          </mxGeometry>
        </mxCell>
        <mxCell id="h6DE7eMNVtYe8vKyEsqt-22" value="chobi-client-data-solution-ns&lt;br&gt;(usecase shared)" style="rounded=0;whiteSpace=wrap;html=1;fillColor=#f8cecc;align=center;strokeColor=#b85450;" vertex="1" parent="h6DE7eMNVtYe8vKyEsqt-1">
          <mxGeometry x="790" y="3862" width="120" height="60" as="geometry" />
        </mxCell>
        <mxCell id="h6DE7eMNVtYe8vKyEsqt-23" value="export: query-definition.xml&lt;br&gt;db-changelog.xml" style="text;html=1;align=center;verticalAlign=middle;resizable=0;points=[];autosize=1;" vertex="1" parent="h6DE7eMNVtYe8vKyEsqt-1">
          <mxGeometry x="425" y="3982" width="160" height="30" as="geometry" />
        </mxCell>
        <mxCell id="h6DE7eMNVtYe8vKyEsqt-24" value="provides client-data featureset" style="text;html=1;align=center;verticalAlign=middle;resizable=0;points=[];autosize=1;" vertex="1" parent="h6DE7eMNVtYe8vKyEsqt-1">
          <mxGeometry x="420" y="3750" width="180" height="20" as="geometry" />
        </mxCell>
        <mxCell id="h6DE7eMNVtYe8vKyEsqt-25" value="&lt;font color=&quot;#0000ee&quot;&gt;&lt;u&gt;shared-db-mssql-persistent-storage.yml&lt;/u&gt;&lt;/font&gt;&lt;br&gt;(new)" style="rounded=0;whiteSpace=wrap;html=1;fillColor=#dae8fc;align=center;strokeColor=#6c8ebf;" vertex="1" parent="h6DE7eMNVtYe8vKyEsqt-1">
          <mxGeometry x="80" y="3690" width="120" height="60" as="geometry" />
        </mxCell>
        <mxCell id="h6DE7eMNVtYe8vKyEsqt-26" value="for testing:&lt;br&gt;create a usecase shared with our mssql-flavored db-changelog&lt;br&gt;(can be not related to usecase)" style="rounded=0;whiteSpace=wrap;html=1;fillColor=#d5e8d4;align=center;strokeColor=#82b366;" vertex="1" parent="h6DE7eMNVtYe8vKyEsqt-1">
          <mxGeometry x="790" y="3922" width="120" height="112" as="geometry" />
        </mxCell>
      </root>
    </mxGraphModel>
  </diagram>
  <diagram id="kN93EvW8SwxWI3OZ-2ek" name="original from obk (EOP-3956)">
    <mxGraphModel dx="1307" dy="765" grid="1" gridSize="10" guides="1" tooltips="1" connect="1" arrows="1" fold="1" page="1" pageScale="1" pageWidth="850" pageHeight="1100" math="0" shadow="0">
      <root>
        <mxCell id="5bAr0aKPam-v48-Gy6uk-0" />
        <mxCell id="5bAr0aKPam-v48-Gy6uk-1" parent="5bAr0aKPam-v48-Gy6uk-0" />
        <mxCell id="5bAr0aKPam-v48-Gy6uk-2" style="edgeStyle=orthogonalEdgeStyle;rounded=0;orthogonalLoop=1;jettySize=auto;html=1;entryX=0.5;entryY=0;entryDx=0;entryDy=0;strokeColor=#FF0000;" edge="1" parent="5bAr0aKPam-v48-Gy6uk-1" source="5bAr0aKPam-v48-Gy6uk-270" target="5bAr0aKPam-v48-Gy6uk-260">
          <mxGeometry relative="1" as="geometry">
            <Array as="points">
              <mxPoint x="1520" y="5760" />
              <mxPoint x="790" y="5760" />
            </Array>
          </mxGeometry>
        </mxCell>
        <mxCell id="5bAr0aKPam-v48-Gy6uk-3" value="RDS socket line" style="edgeLabel;html=1;align=center;verticalAlign=middle;resizable=0;points=[];" vertex="1" connectable="0" parent="5bAr0aKPam-v48-Gy6uk-2">
          <mxGeometry x="-0.208" y="-1" relative="1" as="geometry">
            <mxPoint as="offset" />
          </mxGeometry>
        </mxCell>
        <mxCell id="5bAr0aKPam-v48-Gy6uk-4" value="" style="rounded=0;whiteSpace=wrap;html=1;fillColor=none;" vertex="1" parent="5bAr0aKPam-v48-Gy6uk-1">
          <mxGeometry x="1680" y="5180" width="640" height="200" as="geometry" />
        </mxCell>
        <mxCell id="5bAr0aKPam-v48-Gy6uk-5" value="repo: platform-provisioning-blueprint" style="rounded=0;whiteSpace=wrap;html=1;fillColor=none;align=center;verticalAlign=top;" vertex="1" parent="5bAr0aKPam-v48-Gy6uk-1">
          <mxGeometry x="490" y="4170" width="640" height="160" as="geometry" />
        </mxCell>
        <mxCell id="5bAr0aKPam-v48-Gy6uk-6" value="platform (folder)" style="rounded=0;whiteSpace=wrap;html=1;fillColor=none;align=center;verticalAlign=top;" vertex="1" parent="5bAr0aKPam-v48-Gy6uk-1">
          <mxGeometry x="520" y="4200" width="310" height="110" as="geometry" />
        </mxCell>
        <mxCell id="5bAr0aKPam-v48-Gy6uk-7" value="client-data (folder)" style="rounded=0;whiteSpace=wrap;html=1;fillColor=none;align=center;verticalAlign=top;" vertex="1" parent="5bAr0aKPam-v48-Gy6uk-1">
          <mxGeometry x="880" y="4205" width="155" height="110" as="geometry" />
        </mxCell>
        <mxCell id="5bAr0aKPam-v48-Gy6uk-8" value="ss-core-na-hybrid (bp)" style="rounded=0;whiteSpace=wrap;html=1;fillColor=none;align=center;dashed=1;verticalAlign=top;" vertex="1" parent="5bAr0aKPam-v48-Gy6uk-1">
          <mxGeometry x="640" y="2790" width="170" height="100" as="geometry" />
        </mxCell>
        <mxCell id="5bAr0aKPam-v48-Gy6uk-9" value="usecase-A" style="rounded=0;whiteSpace=wrap;html=1;fillColor=none;align=center;dashed=1;verticalAlign=top;" vertex="1" parent="5bAr0aKPam-v48-Gy6uk-1">
          <mxGeometry x="2600" y="3410" width="260" height="330" as="geometry" />
        </mxCell>
        <mxCell id="5bAr0aKPam-v48-Gy6uk-10" value="openshift (appcanvas)" style="rounded=0;whiteSpace=wrap;html=1;fillColor=none;align=center;dashed=1;verticalAlign=top;" vertex="1" parent="5bAr0aKPam-v48-Gy6uk-1">
          <mxGeometry x="3250" y="3367.5" width="520" height="330" as="geometry" />
        </mxCell>
        <mxCell id="5bAr0aKPam-v48-Gy6uk-11" value="da-saas-chobi-test-cx-test-sandbox (bp)" style="rounded=0;whiteSpace=wrap;html=1;fillColor=none;align=center;dashed=1;verticalAlign=top;" vertex="1" parent="5bAr0aKPam-v48-Gy6uk-1">
          <mxGeometry x="910" y="2790" width="170" height="100" as="geometry" />
        </mxCell>
        <mxCell id="5bAr0aKPam-v48-Gy6uk-12" value="bp-create-stack-shared" style="rounded=1;whiteSpace=wrap;html=1;fillColor=none;align=center;dashed=1;verticalAlign=top;" vertex="1" parent="5bAr0aKPam-v48-Gy6uk-1">
          <mxGeometry x="765" y="2960" width="190" height="160" as="geometry" />
        </mxCell>
        <mxCell id="5bAr0aKPam-v48-Gy6uk-13" value="bp-migrate-stack-shared" style="rounded=1;whiteSpace=wrap;html=1;fillColor=none;align=center;dashed=1;verticalAlign=top;" vertex="1" parent="5bAr0aKPam-v48-Gy6uk-1">
          <mxGeometry x="630" y="2760" width="190" height="190" as="geometry" />
        </mxCell>
        <mxCell id="5bAr0aKPam-v48-Gy6uk-14" value="bp-migrate-stack-shared" style="rounded=1;whiteSpace=wrap;html=1;fillColor=none;align=center;dashed=1;verticalAlign=top;" vertex="1" parent="5bAr0aKPam-v48-Gy6uk-1">
          <mxGeometry x="905" y="2760" width="190" height="190" as="geometry" />
        </mxCell>
        <mxCell id="5bAr0aKPam-v48-Gy6uk-15" value="stack-da-saas-prod-uk-ucb" style="rounded=0;whiteSpace=wrap;html=1;verticalAlign=top;fillColor=none;dashed=1;" vertex="1" parent="5bAr0aKPam-v48-Gy6uk-1">
          <mxGeometry x="1140" y="790" width="300" height="360" as="geometry" />
        </mxCell>
        <mxCell id="5bAr0aKPam-v48-Gy6uk-16" value="" style="edgeStyle=orthogonalEdgeStyle;rounded=0;orthogonalLoop=1;jettySize=auto;html=1;" edge="1" parent="5bAr0aKPam-v48-Gy6uk-1" source="5bAr0aKPam-v48-Gy6uk-17" target="5bAr0aKPam-v48-Gy6uk-20">
          <mxGeometry relative="1" as="geometry" />
        </mxCell>
        <mxCell id="5bAr0aKPam-v48-Gy6uk-17" value="adaptive-icc-mssql" style="rounded=0;whiteSpace=wrap;html=1;" vertex="1" parent="5bAr0aKPam-v48-Gy6uk-1">
          <mxGeometry x="820" y="890" width="120" height="60" as="geometry" />
        </mxCell>
        <mxCell id="5bAr0aKPam-v48-Gy6uk-18" style="edgeStyle=orthogonalEdgeStyle;rounded=0;orthogonalLoop=1;jettySize=auto;html=1;entryX=1;entryY=0.5;entryDx=0;entryDy=0;" edge="1" parent="5bAr0aKPam-v48-Gy6uk-1" source="5bAr0aKPam-v48-Gy6uk-20" target="5bAr0aKPam-v48-Gy6uk-21">
          <mxGeometry relative="1" as="geometry">
            <Array as="points">
              <mxPoint x="1230" y="960" />
            </Array>
          </mxGeometry>
        </mxCell>
        <mxCell id="5bAr0aKPam-v48-Gy6uk-19" style="edgeStyle=orthogonalEdgeStyle;rounded=0;orthogonalLoop=1;jettySize=auto;html=1;entryX=1;entryY=0.5;entryDx=0;entryDy=0;" edge="1" parent="5bAr0aKPam-v48-Gy6uk-1" source="5bAr0aKPam-v48-Gy6uk-20" target="5bAr0aKPam-v48-Gy6uk-28">
          <mxGeometry relative="1" as="geometry">
            <Array as="points">
              <mxPoint x="1290" y="1220" />
            </Array>
          </mxGeometry>
        </mxCell>
        <mxCell id="5bAr0aKPam-v48-Gy6uk-20" value="pc-mewtwo-adaptive-icc-mssql" style="rounded=0;whiteSpace=wrap;html=1;" vertex="1" parent="5bAr0aKPam-v48-Gy6uk-1">
          <mxGeometry x="1170" y="890" width="120" height="60" as="geometry" />
        </mxCell>
        <mxCell id="5bAr0aKPam-v48-Gy6uk-21" value="usecase-blueprint" style="rounded=0;whiteSpace=wrap;html=1;" vertex="1" parent="5bAr0aKPam-v48-Gy6uk-1">
          <mxGeometry x="820" y="950" width="120" height="20" as="geometry" />
        </mxCell>
        <mxCell id="5bAr0aKPam-v48-Gy6uk-22" style="edgeStyle=orthogonalEdgeStyle;rounded=0;orthogonalLoop=1;jettySize=auto;html=1;exitX=0.5;exitY=1;exitDx=0;exitDy=0;" edge="1" parent="5bAr0aKPam-v48-Gy6uk-1" source="5bAr0aKPam-v48-Gy6uk-21" target="5bAr0aKPam-v48-Gy6uk-21">
          <mxGeometry relative="1" as="geometry" />
        </mxCell>
        <mxCell id="5bAr0aKPam-v48-Gy6uk-23" style="edgeStyle=orthogonalEdgeStyle;rounded=0;orthogonalLoop=1;jettySize=auto;html=1;entryX=0.75;entryY=1;entryDx=0;entryDy=0;" edge="1" parent="5bAr0aKPam-v48-Gy6uk-1" source="5bAr0aKPam-v48-Gy6uk-24" target="5bAr0aKPam-v48-Gy6uk-20">
          <mxGeometry relative="1" as="geometry" />
        </mxCell>
        <mxCell id="5bAr0aKPam-v48-Gy6uk-24" value="feature/jdbc" style="rounded=0;whiteSpace=wrap;html=1;" vertex="1" parent="5bAr0aKPam-v48-Gy6uk-1">
          <mxGeometry x="820" y="1020" width="120" height="60" as="geometry" />
        </mxCell>
        <mxCell id="5bAr0aKPam-v48-Gy6uk-25" value="usecase-blueprint" style="rounded=0;whiteSpace=wrap;html=1;" vertex="1" parent="5bAr0aKPam-v48-Gy6uk-1">
          <mxGeometry x="820" y="1080" width="120" height="20" as="geometry" />
        </mxCell>
        <mxCell id="5bAr0aKPam-v48-Gy6uk-26" style="edgeStyle=orthogonalEdgeStyle;rounded=0;orthogonalLoop=1;jettySize=auto;html=1;entryX=1;entryY=1;entryDx=0;entryDy=0;" edge="1" parent="5bAr0aKPam-v48-Gy6uk-1" source="5bAr0aKPam-v48-Gy6uk-27" target="5bAr0aKPam-v48-Gy6uk-20">
          <mxGeometry relative="1" as="geometry" />
        </mxCell>
        <mxCell id="5bAr0aKPam-v48-Gy6uk-27" value="snorlax" style="rounded=0;whiteSpace=wrap;html=1;" vertex="1" parent="5bAr0aKPam-v48-Gy6uk-1">
          <mxGeometry x="820" y="1150" width="120" height="60" as="geometry" />
        </mxCell>
        <mxCell id="5bAr0aKPam-v48-Gy6uk-28" value="usecase-blueprint" style="rounded=0;whiteSpace=wrap;html=1;" vertex="1" parent="5bAr0aKPam-v48-Gy6uk-1">
          <mxGeometry x="820" y="1210" width="120" height="20" as="geometry" />
        </mxCell>
        <mxCell id="5bAr0aKPam-v48-Gy6uk-29" style="edgeStyle=orthogonalEdgeStyle;rounded=0;orthogonalLoop=1;jettySize=auto;html=1;" edge="1" parent="5bAr0aKPam-v48-Gy6uk-1" source="5bAr0aKPam-v48-Gy6uk-32" target="5bAr0aKPam-v48-Gy6uk-35">
          <mxGeometry relative="1" as="geometry" />
        </mxCell>
        <mxCell id="5bAr0aKPam-v48-Gy6uk-30" style="edgeStyle=orthogonalEdgeStyle;rounded=0;orthogonalLoop=1;jettySize=auto;html=1;entryX=0;entryY=0.5;entryDx=0;entryDy=0;" edge="1" parent="5bAr0aKPam-v48-Gy6uk-1" source="5bAr0aKPam-v48-Gy6uk-32" target="5bAr0aKPam-v48-Gy6uk-34">
          <mxGeometry relative="1" as="geometry" />
        </mxCell>
        <mxCell id="5bAr0aKPam-v48-Gy6uk-31" style="edgeStyle=orthogonalEdgeStyle;rounded=0;orthogonalLoop=1;jettySize=auto;html=1;entryX=0;entryY=0.5;entryDx=0;entryDy=0;" edge="1" parent="5bAr0aKPam-v48-Gy6uk-1" source="5bAr0aKPam-v48-Gy6uk-32" target="5bAr0aKPam-v48-Gy6uk-33">
          <mxGeometry relative="1" as="geometry" />
        </mxCell>
        <mxCell id="5bAr0aKPam-v48-Gy6uk-32" value="pc-juno-mewtwo&lt;br&gt;&lt;br&gt;usecase build" style="rounded=0;whiteSpace=wrap;html=1;" vertex="1" parent="5bAr0aKPam-v48-Gy6uk-1">
          <mxGeometry x="980" y="1380" width="120" height="60" as="geometry" />
        </mxCell>
        <mxCell id="5bAr0aKPam-v48-Gy6uk-33" value="e1-bp-create-usecase" style="rounded=0;whiteSpace=wrap;html=1;" vertex="1" parent="5bAr0aKPam-v48-Gy6uk-1">
          <mxGeometry x="1290" y="1500" width="120" height="60" as="geometry" />
        </mxCell>
        <mxCell id="5bAr0aKPam-v48-Gy6uk-34" value="e1-bp-create-client-environment" style="rounded=0;whiteSpace=wrap;html=1;" vertex="1" parent="5bAr0aKPam-v48-Gy6uk-1">
          <mxGeometry x="1290" y="1440" width="120" height="60" as="geometry" />
        </mxCell>
        <mxCell id="5bAr0aKPam-v48-Gy6uk-35" value="e1-bp-create-client" style="rounded=0;whiteSpace=wrap;html=1;" vertex="1" parent="5bAr0aKPam-v48-Gy6uk-1">
          <mxGeometry x="1290" y="1380" width="120" height="60" as="geometry" />
        </mxCell>
        <mxCell id="5bAr0aKPam-v48-Gy6uk-36" value="stack-da-saas-prod-uk-ucb" style="rounded=0;whiteSpace=wrap;html=1;verticalAlign=top;fillColor=none;dashed=1;" vertex="1" parent="5bAr0aKPam-v48-Gy6uk-1">
          <mxGeometry x="1541" y="1260" width="300" height="360" as="geometry" />
        </mxCell>
        <mxCell id="5bAr0aKPam-v48-Gy6uk-37" value="pc-mewtwo-adaptive-icc-mssql" style="rounded=0;whiteSpace=wrap;html=1;" vertex="1" parent="5bAr0aKPam-v48-Gy6uk-1">
          <mxGeometry x="1631" y="1340" width="120" height="60" as="geometry" />
        </mxCell>
        <mxCell id="5bAr0aKPam-v48-Gy6uk-38" style="edgeStyle=orthogonalEdgeStyle;rounded=0;orthogonalLoop=1;jettySize=auto;html=1;entryX=1;entryY=0.5;entryDx=0;entryDy=0;entryPerimeter=0;" edge="1" parent="5bAr0aKPam-v48-Gy6uk-1" source="5bAr0aKPam-v48-Gy6uk-39" target="5bAr0aKPam-v48-Gy6uk-49">
          <mxGeometry relative="1" as="geometry" />
        </mxCell>
        <mxCell id="5bAr0aKPam-v48-Gy6uk-39" value="client-data-svc" style="rounded=1;whiteSpace=wrap;html=1;fillColor=none;" vertex="1" parent="5bAr0aKPam-v48-Gy6uk-1">
          <mxGeometry x="970" y="1900" width="120" height="60" as="geometry" />
        </mxCell>
        <mxCell id="5bAr0aKPam-v48-Gy6uk-40" style="edgeStyle=orthogonalEdgeStyle;rounded=0;orthogonalLoop=1;jettySize=auto;html=1;" edge="1" parent="5bAr0aKPam-v48-Gy6uk-1" source="5bAr0aKPam-v48-Gy6uk-41" target="5bAr0aKPam-v48-Gy6uk-39">
          <mxGeometry relative="1" as="geometry" />
        </mxCell>
        <mxCell id="5bAr0aKPam-v48-Gy6uk-41" value="client-data-facade-svc&lt;br&gt;&lt;br&gt;(connectivity svc)" style="rounded=1;whiteSpace=wrap;html=1;fillColor=none;" vertex="1" parent="5bAr0aKPam-v48-Gy6uk-1">
          <mxGeometry x="970" y="1640" width="120" height="60" as="geometry" />
        </mxCell>
        <mxCell id="5bAr0aKPam-v48-Gy6uk-42" style="edgeStyle=orthogonalEdgeStyle;rounded=0;orthogonalLoop=1;jettySize=auto;html=1;" edge="1" parent="5bAr0aKPam-v48-Gy6uk-1" source="5bAr0aKPam-v48-Gy6uk-43" target="5bAr0aKPam-v48-Gy6uk-41">
          <mxGeometry relative="1" as="geometry" />
        </mxCell>
        <mxCell id="5bAr0aKPam-v48-Gy6uk-43" value="bps" style="rounded=1;whiteSpace=wrap;html=1;fillColor=none;" vertex="1" parent="5bAr0aKPam-v48-Gy6uk-1">
          <mxGeometry x="670" y="1640" width="120" height="60" as="geometry" />
        </mxCell>
        <mxCell id="5bAr0aKPam-v48-Gy6uk-44" value="IDD&lt;br&gt;ODD" style="text;html=1;align=center;verticalAlign=middle;resizable=0;points=[];autosize=1;" vertex="1" parent="5bAr0aKPam-v48-Gy6uk-1">
          <mxGeometry x="860" y="1640" width="40" height="30" as="geometry" />
        </mxCell>
        <mxCell id="5bAr0aKPam-v48-Gy6uk-45" value="REST" style="text;html=1;strokeColor=none;fillColor=none;align=center;verticalAlign=middle;whiteSpace=wrap;rounded=0;" vertex="1" parent="5bAr0aKPam-v48-Gy6uk-1">
          <mxGeometry x="1030" y="1700" width="40" height="20" as="geometry" />
        </mxCell>
        <mxCell id="5bAr0aKPam-v48-Gy6uk-46" value="IDD --&amp;gt; X" style="text;html=1;align=center;verticalAlign=middle;resizable=0;points=[];autosize=1;" vertex="1" parent="5bAr0aKPam-v48-Gy6uk-1">
          <mxGeometry x="1040" y="1750" width="70" height="20" as="geometry" />
        </mxCell>
        <mxCell id="5bAr0aKPam-v48-Gy6uk-47" value="Y --&amp;gt; ODD" style="text;html=1;align=center;verticalAlign=middle;resizable=0;points=[];autosize=1;" vertex="1" parent="5bAr0aKPam-v48-Gy6uk-1">
          <mxGeometry x="960" y="1750" width="70" height="20" as="geometry" />
        </mxCell>
        <mxCell id="5bAr0aKPam-v48-Gy6uk-48" value="query-definition.xml" style="rounded=0;whiteSpace=wrap;html=1;fillColor=none;verticalAlign=top;" vertex="1" parent="5bAr0aKPam-v48-Gy6uk-1">
          <mxGeometry x="940" y="1730" width="180" height="60" as="geometry" />
        </mxCell>
        <mxCell id="5bAr0aKPam-v48-Gy6uk-49" value="STS&lt;br&gt;&lt;br&gt;" style="shape=cylinder3;whiteSpace=wrap;html=1;boundedLbl=1;backgroundOutline=1;size=15;fillColor=none;" vertex="1" parent="5bAr0aKPam-v48-Gy6uk-1">
          <mxGeometry x="780" y="1890" width="60" height="80" as="geometry" />
        </mxCell>
        <mxCell id="5bAr0aKPam-v48-Gy6uk-50" value="Experian Hosted service for client to put files" style="text;html=1;align=center;verticalAlign=middle;resizable=0;points=[];autosize=1;" vertex="1" parent="5bAr0aKPam-v48-Gy6uk-1">
          <mxGeometry x="590" y="1980" width="250" height="20" as="geometry" />
        </mxCell>
        <mxCell id="5bAr0aKPam-v48-Gy6uk-51" style="edgeStyle=orthogonalEdgeStyle;rounded=0;orthogonalLoop=1;jettySize=auto;html=1;entryX=-0.015;entryY=0.39;entryDx=0;entryDy=0;entryPerimeter=0;" edge="1" parent="5bAr0aKPam-v48-Gy6uk-1" source="5bAr0aKPam-v48-Gy6uk-52" target="5bAr0aKPam-v48-Gy6uk-54">
          <mxGeometry relative="1" as="geometry" />
        </mxCell>
        <mxCell id="5bAr0aKPam-v48-Gy6uk-52" value="Client" style="shape=umlActor;verticalLabelPosition=bottom;verticalAlign=top;html=1;outlineConnect=0;fillColor=none;" vertex="1" parent="5bAr0aKPam-v48-Gy6uk-1">
          <mxGeometry x="590" y="1890" width="30" height="60" as="geometry" />
        </mxCell>
        <mxCell id="5bAr0aKPam-v48-Gy6uk-53" style="edgeStyle=orthogonalEdgeStyle;rounded=0;orthogonalLoop=1;jettySize=auto;html=1;entryX=0;entryY=0.5;entryDx=0;entryDy=0;entryPerimeter=0;" edge="1" parent="5bAr0aKPam-v48-Gy6uk-1" source="5bAr0aKPam-v48-Gy6uk-54" target="5bAr0aKPam-v48-Gy6uk-56">
          <mxGeometry relative="1" as="geometry" />
        </mxCell>
        <mxCell id="5bAr0aKPam-v48-Gy6uk-54" value="STS portal" style="whiteSpace=wrap;html=1;aspect=fixed;fillColor=none;" vertex="1" parent="5bAr0aKPam-v48-Gy6uk-1">
          <mxGeometry x="650" y="1890" width="80" height="80" as="geometry" />
        </mxCell>
        <mxCell id="5bAr0aKPam-v48-Gy6uk-55" style="edgeStyle=orthogonalEdgeStyle;rounded=0;orthogonalLoop=1;jettySize=auto;html=1;entryX=0.5;entryY=0;entryDx=0;entryDy=0;entryPerimeter=0;" edge="1" parent="5bAr0aKPam-v48-Gy6uk-1" source="5bAr0aKPam-v48-Gy6uk-56" target="5bAr0aKPam-v48-Gy6uk-49">
          <mxGeometry relative="1" as="geometry" />
        </mxCell>
        <mxCell id="5bAr0aKPam-v48-Gy6uk-56" value="csv" style="shape=note;whiteSpace=wrap;html=1;backgroundOutline=1;darkOpacity=0.05;fillColor=none;" vertex="1" parent="5bAr0aKPam-v48-Gy6uk-1">
          <mxGeometry x="710" y="1810" width="60" height="70" as="geometry" />
        </mxCell>
        <mxCell id="5bAr0aKPam-v48-Gy6uk-57" value="sftp:22" style="text;html=1;align=center;verticalAlign=middle;resizable=0;points=[];autosize=1;" vertex="1" parent="5bAr0aKPam-v48-Gy6uk-1">
          <mxGeometry x="860" y="1910" width="50" height="20" as="geometry" />
        </mxCell>
        <mxCell id="5bAr0aKPam-v48-Gy6uk-58" value="database" style="shape=cylinder3;whiteSpace=wrap;html=1;boundedLbl=1;backgroundOutline=1;size=15;fillColor=none;" vertex="1" parent="5bAr0aKPam-v48-Gy6uk-1">
          <mxGeometry x="1120" y="1890" width="60" height="150" as="geometry" />
        </mxCell>
        <mxCell id="5bAr0aKPam-v48-Gy6uk-59" value="any customer table&lt;br&gt;&lt;br&gt;whitelist information" style="text;html=1;align=center;verticalAlign=middle;resizable=0;points=[];autosize=1;" vertex="1" parent="5bAr0aKPam-v48-Gy6uk-1">
          <mxGeometry x="1190" y="1920" width="120" height="50" as="geometry" />
        </mxCell>
        <mxCell id="5bAr0aKPam-v48-Gy6uk-60" value="query-definition.xml&lt;br&gt;(2)(3)" style="rounded=0;whiteSpace=wrap;html=1;fillColor=none;verticalAlign=top;" vertex="1" parent="5bAr0aKPam-v48-Gy6uk-1">
          <mxGeometry x="1060" y="2120" width="180" height="40" as="geometry" />
        </mxCell>
        <mxCell id="5bAr0aKPam-v48-Gy6uk-61" value="db-changelog.xml &amp;lt;-- steps&lt;br&gt;(1)" style="rounded=0;whiteSpace=wrap;html=1;fillColor=none;verticalAlign=top;" vertex="1" parent="5bAr0aKPam-v48-Gy6uk-1">
          <mxGeometry x="1060" y="2160" width="180" height="40" as="geometry" />
        </mxCell>
        <mxCell id="5bAr0aKPam-v48-Gy6uk-62" value="liquidbase&lt;br&gt;&lt;br&gt;&lt;br&gt;changeset 1 - create customer Table (4 columns)&lt;br&gt;changeset 2 - update customer table, add address column (total becomes 5 columns)" style="text;html=1;align=center;verticalAlign=middle;resizable=0;points=[];autosize=1;" vertex="1" parent="5bAr0aKPam-v48-Gy6uk-1">
          <mxGeometry x="715" y="2010" width="470" height="70" as="geometry" />
        </mxCell>
        <mxCell id="5bAr0aKPam-v48-Gy6uk-63" value="master-table&lt;br&gt;&lt;br&gt;keep track of all the steps&lt;br&gt;- how? using checksum of the steps&lt;br&gt;- why? to prevent unauthorised modifition" style="text;html=1;align=center;verticalAlign=middle;resizable=0;points=[];autosize=1;" vertex="1" parent="5bAr0aKPam-v48-Gy6uk-1">
          <mxGeometry x="1175" y="2000" width="230" height="70" as="geometry" />
        </mxCell>
        <mxCell id="5bAr0aKPam-v48-Gy6uk-64" value="stored procedure -- has ability to create and update&amp;nbsp;" style="text;html=1;align=center;verticalAlign=middle;resizable=0;points=[];autosize=1;" vertex="1" parent="5bAr0aKPam-v48-Gy6uk-1">
          <mxGeometry x="665" y="2150" width="290" height="20" as="geometry" />
        </mxCell>
        <mxCell id="5bAr0aKPam-v48-Gy6uk-65" value="(1) table creation and update - liquidbase&lt;br&gt;(2) data population - jdbc&lt;br&gt;(3) query - jdbc" style="text;html=1;align=left;verticalAlign=middle;resizable=0;points=[];autosize=1;" vertex="1" parent="5bAr0aKPam-v48-Gy6uk-1">
          <mxGeometry x="1040" y="1830" width="230" height="50" as="geometry" />
        </mxCell>
        <mxCell id="5bAr0aKPam-v48-Gy6uk-66" value="client-data-svc" style="rounded=1;whiteSpace=wrap;html=1;fillColor=none;" vertex="1" parent="5bAr0aKPam-v48-Gy6uk-1">
          <mxGeometry x="1790" y="2000" width="120" height="60" as="geometry" />
        </mxCell>
        <mxCell id="5bAr0aKPam-v48-Gy6uk-67" value="ClientDataImportController&lt;br&gt;(2)" style="rounded=0;whiteSpace=wrap;html=1;fillColor=none;verticalAlign=top;" vertex="1" parent="5bAr0aKPam-v48-Gy6uk-1">
          <mxGeometry x="1610" y="1965" width="180" height="40" as="geometry" />
        </mxCell>
        <mxCell id="5bAr0aKPam-v48-Gy6uk-68" value="QueryController&lt;br&gt;jdbc (3)" style="rounded=0;whiteSpace=wrap;html=1;fillColor=none;verticalAlign=top;" vertex="1" parent="5bAr0aKPam-v48-Gy6uk-1">
          <mxGeometry x="1910" y="2010" width="180" height="40" as="geometry" />
        </mxCell>
        <mxCell id="5bAr0aKPam-v48-Gy6uk-69" style="edgeStyle=orthogonalEdgeStyle;rounded=0;orthogonalLoop=1;jettySize=auto;html=1;entryX=1;entryY=0.5;entryDx=0;entryDy=0;" edge="1" parent="5bAr0aKPam-v48-Gy6uk-1" source="5bAr0aKPam-v48-Gy6uk-70" target="5bAr0aKPam-v48-Gy6uk-68">
          <mxGeometry relative="1" as="geometry">
            <Array as="points">
              <mxPoint x="2110" y="2030" />
            </Array>
          </mxGeometry>
        </mxCell>
        <mxCell id="5bAr0aKPam-v48-Gy6uk-70" value="client-data-facade" style="rounded=1;whiteSpace=wrap;html=1;fillColor=none;" vertex="1" parent="5bAr0aKPam-v48-Gy6uk-1">
          <mxGeometry x="2010" y="1850" width="120" height="60" as="geometry" />
        </mxCell>
        <mxCell id="5bAr0aKPam-v48-Gy6uk-71" value="springBatch" style="text;html=1;align=center;verticalAlign=middle;resizable=0;points=[];autosize=1;" vertex="1" parent="5bAr0aKPam-v48-Gy6uk-1">
          <mxGeometry x="1710" y="2005" width="80" height="20" as="geometry" />
        </mxCell>
        <mxCell id="5bAr0aKPam-v48-Gy6uk-72" value="CronScheduler" style="rounded=0;whiteSpace=wrap;html=1;fillColor=none;verticalAlign=top;" vertex="1" parent="5bAr0aKPam-v48-Gy6uk-1">
          <mxGeometry x="1610" y="2055" width="180" height="30" as="geometry" />
        </mxCell>
        <mxCell id="5bAr0aKPam-v48-Gy6uk-73" value="springBatch" style="text;html=1;align=center;verticalAlign=middle;resizable=0;points=[];autosize=1;" vertex="1" parent="5bAr0aKPam-v48-Gy6uk-1">
          <mxGeometry x="1710" y="2085" width="80" height="20" as="geometry" />
        </mxCell>
        <mxCell id="5bAr0aKPam-v48-Gy6uk-74" value="PULL" style="text;html=1;align=center;verticalAlign=middle;resizable=0;points=[];autosize=1;" vertex="1" parent="5bAr0aKPam-v48-Gy6uk-1">
          <mxGeometry x="1600" y="1900" width="50" height="20" as="geometry" />
        </mxCell>
        <mxCell id="5bAr0aKPam-v48-Gy6uk-75" value="csv" style="shape=note;whiteSpace=wrap;html=1;backgroundOutline=1;darkOpacity=0.05;fillColor=none;" vertex="1" parent="5bAr0aKPam-v48-Gy6uk-1">
          <mxGeometry x="1570" y="1750" width="60" height="70" as="geometry" />
        </mxCell>
        <mxCell id="5bAr0aKPam-v48-Gy6uk-76" value="file checking file mimetype checking - Tika - make sure that it&#39;s CSV - look into this during funcky&lt;br&gt;&lt;br&gt;integration with anti-virus-service" style="text;html=1;align=center;verticalAlign=middle;resizable=0;points=[];autosize=1;" vertex="1" parent="5bAr0aKPam-v48-Gy6uk-1">
          <mxGeometry x="1630" y="1740" width="530" height="50" as="geometry" />
        </mxCell>
        <mxCell id="5bAr0aKPam-v48-Gy6uk-77" value="1) Import clientData&amp;nbsp;&lt;br&gt;2) getJob(job id)&lt;br&gt;3) getJobs()&lt;br&gt;&lt;br&gt;&lt;br&gt;4) updateCron&lt;br&gt;5) getCron" style="text;html=1;align=left;verticalAlign=middle;resizable=0;points=[];autosize=1;" vertex="1" parent="5bAr0aKPam-v48-Gy6uk-1">
          <mxGeometry x="1510" y="1940" width="120" height="100" as="geometry" />
        </mxCell>
        <mxCell id="5bAr0aKPam-v48-Gy6uk-78" value="" style="text;html=1;align=center;verticalAlign=middle;resizable=0;points=[];autosize=1;" vertex="1" parent="5bAr0aKPam-v48-Gy6uk-1">
          <mxGeometry x="1230" y="2350" width="140" height="20" as="geometry" />
        </mxCell>
        <mxCell id="5bAr0aKPam-v48-Gy6uk-79" value="software-use-gds-ca-nl&lt;br&gt;&lt;br&gt;query-definition-A&lt;br&gt;db-changelog-A" style="text;html=1;align=center;verticalAlign=middle;resizable=0;points=[];autosize=1;" vertex="1" parent="5bAr0aKPam-v48-Gy6uk-1">
          <mxGeometry x="1510" y="2496" width="140" height="60" as="geometry" />
        </mxCell>
        <mxCell id="5bAr0aKPam-v48-Gy6uk-80" value="HSBC" style="shape=umlActor;verticalLabelPosition=bottom;verticalAlign=top;html=1;outlineConnect=0;fillColor=none;" vertex="1" parent="5bAr0aKPam-v48-Gy6uk-1">
          <mxGeometry x="880" y="2420" width="30" height="60" as="geometry" />
        </mxCell>
        <mxCell id="5bAr0aKPam-v48-Gy6uk-81" value="CITIBANK" style="shape=umlActor;verticalLabelPosition=bottom;verticalAlign=top;html=1;outlineConnect=0;fillColor=none;" vertex="1" parent="5bAr0aKPam-v48-Gy6uk-1">
          <mxGeometry x="880" y="2530" width="30" height="60" as="geometry" />
        </mxCell>
        <mxCell id="5bAr0aKPam-v48-Gy6uk-82" value="software-use-hsbc-ca&lt;br&gt;&lt;br&gt;query-definition-A&lt;br&gt;db-changelog-A" style="text;html=1;align=center;verticalAlign=middle;resizable=0;points=[];autosize=1;" vertex="1" parent="5bAr0aKPam-v48-Gy6uk-1">
          <mxGeometry x="965" y="2430" width="130" height="60" as="geometry" />
        </mxCell>
        <mxCell id="5bAr0aKPam-v48-Gy6uk-83" value="software-use-citi-ca&lt;br&gt;&lt;br&gt;query-definition-B&lt;br&gt;db-changelog-B" style="text;html=1;align=center;verticalAlign=middle;resizable=0;points=[];autosize=1;" vertex="1" parent="5bAr0aKPam-v48-Gy6uk-1">
          <mxGeometry x="965" y="2540" width="120" height="60" as="geometry" />
        </mxCell>
        <mxCell id="5bAr0aKPam-v48-Gy6uk-84" value="database" style="shape=cylinder3;whiteSpace=wrap;html=1;boundedLbl=1;backgroundOutline=1;size=15;fillColor=none;" vertex="1" parent="5bAr0aKPam-v48-Gy6uk-1">
          <mxGeometry x="650" y="2360" width="60" height="150" as="geometry" />
        </mxCell>
        <mxCell id="5bAr0aKPam-v48-Gy6uk-85" value="limpek-hsbc-customer&lt;br&gt;&lt;br&gt;3 column" style="text;html=1;align=center;verticalAlign=middle;resizable=0;points=[];autosize=1;" vertex="1" parent="5bAr0aKPam-v48-Gy6uk-1">
          <mxGeometry x="710" y="2380" width="130" height="50" as="geometry" />
        </mxCell>
        <mxCell id="5bAr0aKPam-v48-Gy6uk-86" value="Delivery" style="shape=umlActor;verticalLabelPosition=bottom;verticalAlign=top;html=1;outlineConnect=0;fillColor=none;" vertex="1" parent="5bAr0aKPam-v48-Gy6uk-1">
          <mxGeometry x="1025" y="2330" width="30" height="60" as="geometry" />
        </mxCell>
        <mxCell id="5bAr0aKPam-v48-Gy6uk-87" value="software-use-gds-acf-nl&lt;br&gt;&lt;br&gt;query-definition-A&lt;br&gt;db-changelog-A" style="text;html=1;align=center;verticalAlign=middle;resizable=0;points=[];autosize=1;" vertex="1" parent="5bAr0aKPam-v48-Gy6uk-1">
          <mxGeometry x="1510" y="2370" width="140" height="60" as="geometry" />
        </mxCell>
        <mxCell id="5bAr0aKPam-v48-Gy6uk-88" value="client-A" style="shape=umlActor;verticalLabelPosition=bottom;verticalAlign=top;html=1;outlineConnect=0;fillColor=none;" vertex="1" parent="5bAr0aKPam-v48-Gy6uk-1">
          <mxGeometry x="1360" y="2430" width="30" height="60" as="geometry" />
        </mxCell>
        <mxCell id="5bAr0aKPam-v48-Gy6uk-89" value="table-A&lt;br&gt;table-B" style="text;html=1;align=center;verticalAlign=middle;resizable=0;points=[];autosize=1;" vertex="1" parent="5bAr0aKPam-v48-Gy6uk-1">
          <mxGeometry x="1650" y="2385" width="50" height="30" as="geometry" />
        </mxCell>
        <mxCell id="5bAr0aKPam-v48-Gy6uk-90" value="table-B&lt;br&gt;table-C" style="text;html=1;align=center;verticalAlign=middle;resizable=0;points=[];autosize=1;" vertex="1" parent="5bAr0aKPam-v48-Gy6uk-1">
          <mxGeometry x="1650" y="2520" width="50" height="30" as="geometry" />
        </mxCell>
        <mxCell id="5bAr0aKPam-v48-Gy6uk-91" value="table-A&lt;br&gt;table-B&lt;br&gt;table-C" style="text;html=1;align=center;verticalAlign=middle;resizable=0;points=[];autosize=1;" vertex="1" parent="5bAr0aKPam-v48-Gy6uk-1">
          <mxGeometry x="1750" y="2435" width="50" height="50" as="geometry" />
        </mxCell>
        <mxCell id="5bAr0aKPam-v48-Gy6uk-92" value="" style="edgeStyle=orthogonalEdgeStyle;rounded=0;orthogonalLoop=1;jettySize=auto;html=1;" edge="1" parent="5bAr0aKPam-v48-Gy6uk-1" source="5bAr0aKPam-v48-Gy6uk-93" target="5bAr0aKPam-v48-Gy6uk-168">
          <mxGeometry relative="1" as="geometry" />
        </mxCell>
        <mxCell id="5bAr0aKPam-v48-Gy6uk-93" value="What we need:&lt;br&gt;&lt;ul&gt;&lt;li&gt;&lt;span&gt;Client data service to support multiple datasource in a single service&lt;/span&gt;&lt;br&gt;&lt;/li&gt;&lt;ul&gt;&lt;li&gt;use the concept of datasource adaptors for both mssql and postgres&lt;/li&gt;&lt;li&gt;&lt;br&gt;&lt;/li&gt;&lt;li&gt;separate query definition&lt;/li&gt;&lt;/ul&gt;&lt;li&gt;&lt;br&gt;&lt;/li&gt;&lt;li&gt;&lt;br&gt;&lt;/li&gt;&lt;li&gt;Client data service to support execution of stored procedure&lt;/li&gt;&lt;li&gt;Option to run client data in both the postgres and mssql flavor&lt;/li&gt;&lt;ul&gt;&lt;li&gt;toggle via application.yml&lt;/li&gt;&lt;/ul&gt;&lt;li&gt;release option for client data service&lt;/li&gt;&lt;ul&gt;&lt;li&gt;1 generic service that can support both flavors (both drivers needs to be packaged in service)&lt;/li&gt;&lt;li&gt;configmap option to override service to use mssql&lt;/li&gt;&lt;/ul&gt;&lt;li&gt;blueprint changes to support mssql for client data&lt;/li&gt;&lt;li&gt;gradle builder to support creation of mssql db&lt;/li&gt;&lt;/ul&gt;&lt;div&gt;&lt;br&gt;&lt;/div&gt;" style="text;html=1;align=left;verticalAlign=middle;resizable=0;points=[];autosize=1;" vertex="1" parent="5bAr0aKPam-v48-Gy6uk-1">
          <mxGeometry x="1900" y="2410" width="590" height="250" as="geometry" />
        </mxCell>
        <mxCell id="5bAr0aKPam-v48-Gy6uk-94" value="Question to ask ourselves:&lt;br&gt;&lt;ul&gt;&lt;li&gt;should we use blueprint to provision our client data - coz of the mssql provisioning feature&lt;/li&gt;&lt;li&gt;timezone: it always expects timestamp data to be in GMT+0 (no timezone support atm)&lt;/li&gt;&lt;li&gt;datatype must be &quot;timestamp without time zone&quot; when importing timestamp data&lt;/li&gt;&lt;li&gt;timestamp/timezone is configurable in client data, and expects user to provide this&lt;/li&gt;&lt;li&gt;*creating stored proc is okay, but executing stored proc might have problem&lt;/li&gt;&lt;li&gt;obk to ask for the sample stored proc from philippe for juno&lt;/li&gt;&lt;/ul&gt;&lt;div&gt;- bean toggle&lt;/div&gt;&lt;div&gt;- for stored-procedure, when we have updates to store proc, we need to introduce a new change set to make the history clear cut&lt;/div&gt;&lt;div&gt;- consideration: to explore using the table without version for querying (meaning customer, instead of customer_2020101243412341)&lt;/div&gt;&lt;div&gt;&lt;blockquote style=&quot;margin: 0 0 0 40px ; border: none ; padding: 0px&quot;&gt;&lt;div&gt;- how to address downtime when import is happening&lt;/div&gt;&lt;/blockquote&gt;&lt;blockquote style=&quot;margin: 0 0 0 40px ; border: none ; padding: 0px&quot;&gt;&lt;div&gt;- why we talk about this? because the stored proc will not have the knowledge of the version.suffix&lt;/div&gt;&lt;/blockquote&gt;&lt;/div&gt;&lt;div&gt;&lt;br&gt;&lt;/div&gt;" style="text;html=1;align=left;verticalAlign=middle;resizable=0;points=[];autosize=1;" vertex="1" parent="5bAr0aKPam-v48-Gy6uk-1">
          <mxGeometry x="1824" y="2155" width="720" height="210" as="geometry" />
        </mxCell>
        <mxCell id="5bAr0aKPam-v48-Gy6uk-95" value="da-saas-chobi-test" style="rounded=0;whiteSpace=wrap;html=1;fillColor=none;align=center;" vertex="1" parent="5bAr0aKPam-v48-Gy6uk-1">
          <mxGeometry x="660" y="2830" width="120" height="60" as="geometry" />
        </mxCell>
        <mxCell id="5bAr0aKPam-v48-Gy6uk-96" value="services:&lt;br&gt;- token-svc&lt;br&gt;- datalink-A-svc" style="text;html=1;strokeColor=none;fillColor=none;align=left;verticalAlign=middle;whiteSpace=wrap;rounded=0;" vertex="1" parent="5bAr0aKPam-v48-Gy6uk-1">
          <mxGeometry x="655" y="2900" width="120" height="20" as="geometry" />
        </mxCell>
        <mxCell id="5bAr0aKPam-v48-Gy6uk-97" value="da-saas-chobi-test-sandbox" style="rounded=0;whiteSpace=wrap;html=1;fillColor=none;align=center;" vertex="1" parent="5bAr0aKPam-v48-Gy6uk-1">
          <mxGeometry x="930" y="2830" width="120" height="60" as="geometry" />
        </mxCell>
        <mxCell id="5bAr0aKPam-v48-Gy6uk-98" value="services:&lt;br&gt;- datalink-A-svc&lt;br&gt;- simulator-A-svc" style="text;html=1;strokeColor=none;fillColor=none;align=left;verticalAlign=middle;whiteSpace=wrap;rounded=0;" vertex="1" parent="5bAr0aKPam-v48-Gy6uk-1">
          <mxGeometry x="930" y="2900" width="120" height="20" as="geometry" />
        </mxCell>
        <mxCell id="5bAr0aKPam-v48-Gy6uk-99" value="da-saas-chobi-test-cx-test-prod (bp)" style="rounded=0;whiteSpace=wrap;html=1;fillColor=none;align=center;dashed=1;verticalAlign=top;" vertex="1" parent="5bAr0aKPam-v48-Gy6uk-1">
          <mxGeometry x="775" y="3005" width="170" height="100" as="geometry" />
        </mxCell>
        <mxCell id="5bAr0aKPam-v48-Gy6uk-100" value="decide what usecase, to run in chobi-test" style="text;html=1;align=center;verticalAlign=middle;resizable=0;points=[];autosize=1;" vertex="1" parent="5bAr0aKPam-v48-Gy6uk-1">
          <mxGeometry x="784" y="2690" width="230" height="20" as="geometry" />
        </mxCell>
        <mxCell id="5bAr0aKPam-v48-Gy6uk-101" value="extend both chobi-test, chobi-test-sandbox&lt;br&gt;sync cms&lt;br&gt;" style="text;html=1;align=center;verticalAlign=middle;resizable=0;points=[];autosize=1;" vertex="1" parent="5bAr0aKPam-v48-Gy6uk-1">
          <mxGeometry x="1055" y="2695" width="240" height="30" as="geometry" />
        </mxCell>
        <mxCell id="5bAr0aKPam-v48-Gy6uk-102" value="da-saas-chobi-test" style="rounded=0;whiteSpace=wrap;html=1;fillColor=none;align=center;" vertex="1" parent="5bAr0aKPam-v48-Gy6uk-1">
          <mxGeometry x="677.5" y="3420" width="120" height="60" as="geometry" />
        </mxCell>
        <mxCell id="5bAr0aKPam-v48-Gy6uk-103" value="services:&lt;br&gt;- token-svc&lt;br&gt;- datalink-A-svc" style="text;html=1;strokeColor=none;fillColor=none;align=left;verticalAlign=middle;whiteSpace=wrap;rounded=0;" vertex="1" parent="5bAr0aKPam-v48-Gy6uk-1">
          <mxGeometry x="672.5" y="3490" width="120" height="40" as="geometry" />
        </mxCell>
        <mxCell id="5bAr0aKPam-v48-Gy6uk-104" value="da-saas-chobi-test-sandbox" style="rounded=0;whiteSpace=wrap;html=1;fillColor=none;align=center;" vertex="1" parent="5bAr0aKPam-v48-Gy6uk-1">
          <mxGeometry x="947.5" y="3420" width="120" height="60" as="geometry" />
        </mxCell>
        <mxCell id="5bAr0aKPam-v48-Gy6uk-105" value="services:&lt;br&gt;- datalink-A-svc&lt;br&gt;- simulator-A-svc" style="text;html=1;strokeColor=none;fillColor=none;align=left;verticalAlign=middle;whiteSpace=wrap;rounded=0;" vertex="1" parent="5bAr0aKPam-v48-Gy6uk-1">
          <mxGeometry x="947.5" y="3490" width="120" height="40" as="geometry" />
        </mxCell>
        <mxCell id="5bAr0aKPam-v48-Gy6uk-106" value="da-saas-chobi-test-cx-test-sandbox (bp)&lt;br&gt;&lt;br&gt;export: stack-core.sandbox.InterfacepackA = url1" style="rounded=0;whiteSpace=wrap;html=1;fillColor=none;align=center;dashed=1;verticalAlign=top;" vertex="1" parent="5bAr0aKPam-v48-Gy6uk-1">
          <mxGeometry x="920" y="3350" width="320" height="190" as="geometry" />
        </mxCell>
        <mxCell id="5bAr0aKPam-v48-Gy6uk-107" value="ss-core-na-hybrid (bp)&lt;br&gt;exports all stack shared service properties except datalink" style="rounded=0;whiteSpace=wrap;html=1;fillColor=none;align=center;dashed=1;verticalAlign=top;" vertex="1" parent="5bAr0aKPam-v48-Gy6uk-1">
          <mxGeometry x="655" y="3350" width="170" height="200" as="geometry" />
        </mxCell>
        <mxCell id="5bAr0aKPam-v48-Gy6uk-108" value="da-saas-chobi-test-cx-test-prod (bp)&lt;br&gt;&lt;br&gt;export: stack-core.prod.InterfacepackA = url1" style="rounded=0;whiteSpace=wrap;html=1;fillColor=none;align=center;dashed=1;verticalAlign=top;" vertex="1" parent="5bAr0aKPam-v48-Gy6uk-1">
          <mxGeometry x="790" y="3735" width="280" height="100" as="geometry" />
        </mxCell>
        <mxCell id="5bAr0aKPam-v48-Gy6uk-109" style="edgeStyle=orthogonalEdgeStyle;rounded=0;orthogonalLoop=1;jettySize=auto;html=1;" edge="1" parent="5bAr0aKPam-v48-Gy6uk-1" source="5bAr0aKPam-v48-Gy6uk-111" target="5bAr0aKPam-v48-Gy6uk-106">
          <mxGeometry relative="1" as="geometry" />
        </mxCell>
        <mxCell id="5bAr0aKPam-v48-Gy6uk-110" style="edgeStyle=orthogonalEdgeStyle;rounded=0;orthogonalLoop=1;jettySize=auto;html=1;" edge="1" parent="5bAr0aKPam-v48-Gy6uk-1" source="5bAr0aKPam-v48-Gy6uk-111" target="5bAr0aKPam-v48-Gy6uk-115">
          <mxGeometry relative="1" as="geometry" />
        </mxCell>
        <mxCell id="5bAr0aKPam-v48-Gy6uk-111" value="usecase-A-sandbox&lt;br&gt;&lt;br&gt;service-mapping&lt;br&gt;interfacePackA - +binding{stack-core.sandbox.interfacePackA}&lt;br&gt;clientDataEndpoint - + binding{client-shared.clientDataEndpoint}" style="rounded=0;whiteSpace=wrap;html=1;fillColor=none;align=center;" vertex="1" parent="5bAr0aKPam-v48-Gy6uk-1">
          <mxGeometry x="940" y="3160" width="380" height="100" as="geometry" />
        </mxCell>
        <mxCell id="5bAr0aKPam-v48-Gy6uk-112" style="edgeStyle=orthogonalEdgeStyle;rounded=0;orthogonalLoop=1;jettySize=auto;html=1;" edge="1" parent="5bAr0aKPam-v48-Gy6uk-1" source="5bAr0aKPam-v48-Gy6uk-114" target="5bAr0aKPam-v48-Gy6uk-108">
          <mxGeometry relative="1" as="geometry">
            <Array as="points">
              <mxPoint x="560" y="3620" />
              <mxPoint x="930" y="3620" />
            </Array>
          </mxGeometry>
        </mxCell>
        <mxCell id="5bAr0aKPam-v48-Gy6uk-113" style="edgeStyle=orthogonalEdgeStyle;rounded=0;orthogonalLoop=1;jettySize=auto;html=1;entryX=0.5;entryY=0;entryDx=0;entryDy=0;" edge="1" parent="5bAr0aKPam-v48-Gy6uk-1" source="5bAr0aKPam-v48-Gy6uk-114" target="5bAr0aKPam-v48-Gy6uk-107">
          <mxGeometry relative="1" as="geometry" />
        </mxCell>
        <mxCell id="5bAr0aKPam-v48-Gy6uk-114" value="usecase-A-prod&lt;br&gt;&lt;br&gt;service-mapping&lt;br&gt;interfacePackA - +binding{stack-core.prod.interfacePackA}" style="rounded=0;whiteSpace=wrap;html=1;fillColor=none;align=center;" vertex="1" parent="5bAr0aKPam-v48-Gy6uk-1">
          <mxGeometry x="490" y="3160" width="380" height="100" as="geometry" />
        </mxCell>
        <mxCell id="5bAr0aKPam-v48-Gy6uk-115" value="client-data-sandbox&lt;br&gt;service-mapping&lt;br&gt;export: client-shared.clientDataEndpoint}" style="rounded=0;whiteSpace=wrap;html=1;fillColor=none;align=center;" vertex="1" parent="5bAr0aKPam-v48-Gy6uk-1">
          <mxGeometry x="1320" y="3300" width="380" height="100" as="geometry" />
        </mxCell>
        <mxCell id="5bAr0aKPam-v48-Gy6uk-116" value="userjourney-usecaseshared (bp)" style="rounded=0;whiteSpace=wrap;html=1;fillColor=none;align=center;dashed=1;verticalAlign=top;" vertex="1" parent="5bAr0aKPam-v48-Gy6uk-1">
          <mxGeometry x="1060" y="3005" width="170" height="100" as="geometry" />
        </mxCell>
        <mxCell id="5bAr0aKPam-v48-Gy6uk-117" value="" style="edgeStyle=orthogonalEdgeStyle;rounded=0;orthogonalLoop=1;jettySize=auto;html=1;" edge="1" parent="5bAr0aKPam-v48-Gy6uk-1" source="5bAr0aKPam-v48-Gy6uk-118" target="5bAr0aKPam-v48-Gy6uk-121">
          <mxGeometry relative="1" as="geometry" />
        </mxCell>
        <mxCell id="5bAr0aKPam-v48-Gy6uk-118" value="create-client&lt;br&gt;&lt;br&gt;(creates client and client metadata)&lt;br&gt;(send event to AMS)" style="rounded=0;whiteSpace=wrap;html=1;fillColor=none;align=center;" vertex="1" parent="5bAr0aKPam-v48-Gy6uk-1">
          <mxGeometry x="1160" y="2802.5" width="120" height="105" as="geometry" />
        </mxCell>
        <mxCell id="5bAr0aKPam-v48-Gy6uk-119" value="" style="edgeStyle=orthogonalEdgeStyle;rounded=0;orthogonalLoop=1;jettySize=auto;html=1;" edge="1" parent="5bAr0aKPam-v48-Gy6uk-1" source="5bAr0aKPam-v48-Gy6uk-121" target="5bAr0aKPam-v48-Gy6uk-123">
          <mxGeometry relative="1" as="geometry" />
        </mxCell>
        <mxCell id="5bAr0aKPam-v48-Gy6uk-120" style="edgeStyle=orthogonalEdgeStyle;rounded=0;orthogonalLoop=1;jettySize=auto;html=1;entryX=0;entryY=0.5;entryDx=0;entryDy=0;" edge="1" parent="5bAr0aKPam-v48-Gy6uk-1" source="5bAr0aKPam-v48-Gy6uk-121" target="5bAr0aKPam-v48-Gy6uk-125">
          <mxGeometry relative="1" as="geometry" />
        </mxCell>
        <mxCell id="5bAr0aKPam-v48-Gy6uk-121" value="create-client-environment&lt;br&gt;&lt;br&gt;client-shared" style="rounded=0;whiteSpace=wrap;html=1;fillColor=none;align=center;" vertex="1" parent="5bAr0aKPam-v48-Gy6uk-1">
          <mxGeometry x="1360" y="2802.5" width="120" height="105" as="geometry" />
        </mxCell>
        <mxCell id="5bAr0aKPam-v48-Gy6uk-122" value="" style="edgeStyle=orthogonalEdgeStyle;rounded=0;orthogonalLoop=1;jettySize=auto;html=1;" edge="1" parent="5bAr0aKPam-v48-Gy6uk-1" source="5bAr0aKPam-v48-Gy6uk-123" target="5bAr0aKPam-v48-Gy6uk-126">
          <mxGeometry relative="1" as="geometry" />
        </mxCell>
        <mxCell id="5bAr0aKPam-v48-Gy6uk-123" value="optional: client-data-sandbox" style="rounded=0;whiteSpace=wrap;html=1;fillColor=none;align=center;" vertex="1" parent="5bAr0aKPam-v48-Gy6uk-1">
          <mxGeometry x="1560" y="2802.5" width="120" height="105" as="geometry" />
        </mxCell>
        <mxCell id="5bAr0aKPam-v48-Gy6uk-124" style="edgeStyle=orthogonalEdgeStyle;rounded=0;orthogonalLoop=1;jettySize=auto;html=1;entryX=0.5;entryY=0;entryDx=0;entryDy=0;" edge="1" parent="5bAr0aKPam-v48-Gy6uk-1" source="5bAr0aKPam-v48-Gy6uk-125" target="5bAr0aKPam-v48-Gy6uk-123">
          <mxGeometry relative="1" as="geometry" />
        </mxCell>
        <mxCell id="5bAr0aKPam-v48-Gy6uk-125" value="usecase-sandbox" style="rounded=0;whiteSpace=wrap;html=1;fillColor=#dae8fc;align=center;strokeColor=#6c8ebf;" vertex="1" parent="5bAr0aKPam-v48-Gy6uk-1">
          <mxGeometry x="1560" y="2660" width="120" height="105" as="geometry" />
        </mxCell>
        <mxCell id="5bAr0aKPam-v48-Gy6uk-126" value="usecase-shared (query-definition + db_changelog)" style="rounded=0;whiteSpace=wrap;html=1;fillColor=#dae8fc;align=center;strokeColor=#6c8ebf;" vertex="1" parent="5bAr0aKPam-v48-Gy6uk-1">
          <mxGeometry x="1560" y="2950" width="120" height="105" as="geometry" />
        </mxCell>
        <mxCell id="5bAr0aKPam-v48-Gy6uk-127" style="edgeStyle=orthogonalEdgeStyle;rounded=0;orthogonalLoop=1;jettySize=auto;html=1;entryX=0.5;entryY=0;entryDx=0;entryDy=0;" edge="1" parent="5bAr0aKPam-v48-Gy6uk-1" source="5bAr0aKPam-v48-Gy6uk-128" target="5bAr0aKPam-v48-Gy6uk-130">
          <mxGeometry relative="1" as="geometry" />
        </mxCell>
        <mxCell id="5bAr0aKPam-v48-Gy6uk-128" value="usecase-prod" style="rounded=0;whiteSpace=wrap;html=1;fillColor=#dae8fc;align=center;strokeColor=#6c8ebf;" vertex="1" parent="5bAr0aKPam-v48-Gy6uk-1">
          <mxGeometry x="1710" y="2660" width="120" height="105" as="geometry" />
        </mxCell>
        <mxCell id="5bAr0aKPam-v48-Gy6uk-129" style="edgeStyle=orthogonalEdgeStyle;rounded=0;orthogonalLoop=1;jettySize=auto;html=1;entryX=1;entryY=0.5;entryDx=0;entryDy=0;" edge="1" parent="5bAr0aKPam-v48-Gy6uk-1" source="5bAr0aKPam-v48-Gy6uk-130" target="5bAr0aKPam-v48-Gy6uk-126">
          <mxGeometry relative="1" as="geometry">
            <Array as="points">
              <mxPoint x="1770" y="3003" />
            </Array>
          </mxGeometry>
        </mxCell>
        <mxCell id="5bAr0aKPam-v48-Gy6uk-130" value="optional: client-data-prod" style="rounded=0;whiteSpace=wrap;html=1;fillColor=none;align=center;" vertex="1" parent="5bAr0aKPam-v48-Gy6uk-1">
          <mxGeometry x="1710" y="2802.5" width="120" height="105" as="geometry" />
        </mxCell>
        <mxCell id="5bAr0aKPam-v48-Gy6uk-131" value="da-saas-chobi-test-bi(bp)" style="rounded=0;whiteSpace=wrap;html=1;fillColor=none;align=center;dashed=1;verticalAlign=top;" vertex="1" parent="5bAr0aKPam-v48-Gy6uk-1">
          <mxGeometry x="560" y="3005" width="170" height="100" as="geometry" />
        </mxCell>
        <mxCell id="5bAr0aKPam-v48-Gy6uk-132" value="Objective - 28 oct 2020:&lt;br&gt;&lt;ul&gt;&lt;li&gt;Break down the work&lt;/li&gt;&lt;li&gt;high level estimation&lt;/li&gt;&lt;li&gt;Create further accessment&lt;/li&gt;&lt;/ul&gt;" style="text;html=1;align=left;verticalAlign=middle;resizable=0;points=[];autosize=1;" vertex="1" parent="5bAr0aKPam-v48-Gy6uk-1">
          <mxGeometry x="2430" y="2170" width="200" height="80" as="geometry" />
        </mxCell>
        <mxCell id="5bAr0aKPam-v48-Gy6uk-133" value="client-shared&lt;br&gt;&lt;br&gt;create-persistent-store" style="rounded=0;whiteSpace=wrap;html=1;fillColor=none;align=center;" vertex="1" parent="5bAr0aKPam-v48-Gy6uk-1">
          <mxGeometry x="1990" y="2880" width="120" height="105" as="geometry" />
        </mxCell>
        <mxCell id="5bAr0aKPam-v48-Gy6uk-134" style="edgeStyle=orthogonalEdgeStyle;rounded=0;orthogonalLoop=1;jettySize=auto;html=1;entryX=1;entryY=0.5;entryDx=0;entryDy=0;" edge="1" parent="5bAr0aKPam-v48-Gy6uk-1" source="5bAr0aKPam-v48-Gy6uk-135" target="5bAr0aKPam-v48-Gy6uk-133">
          <mxGeometry relative="1" as="geometry" />
        </mxCell>
        <mxCell id="5bAr0aKPam-v48-Gy6uk-135" value="client-data" style="rounded=0;whiteSpace=wrap;html=1;fillColor=none;align=center;" vertex="1" parent="5bAr0aKPam-v48-Gy6uk-1">
          <mxGeometry x="2200" y="2880" width="120" height="105" as="geometry" />
        </mxCell>
        <mxCell id="5bAr0aKPam-v48-Gy6uk-136" value="stack-shared&lt;br&gt;&lt;br&gt;create-persistent-store" style="rounded=0;whiteSpace=wrap;html=1;fillColor=none;align=center;" vertex="1" parent="5bAr0aKPam-v48-Gy6uk-1">
          <mxGeometry x="1990" y="3219" width="120" height="105" as="geometry" />
        </mxCell>
        <mxCell id="5bAr0aKPam-v48-Gy6uk-137" style="edgeStyle=orthogonalEdgeStyle;rounded=0;orthogonalLoop=1;jettySize=auto;html=1;entryX=0.5;entryY=0;entryDx=0;entryDy=0;" edge="1" parent="5bAr0aKPam-v48-Gy6uk-1" source="5bAr0aKPam-v48-Gy6uk-138" target="5bAr0aKPam-v48-Gy6uk-133">
          <mxGeometry relative="1" as="geometry" />
        </mxCell>
        <mxCell id="5bAr0aKPam-v48-Gy6uk-138" value="usecase" style="rounded=0;whiteSpace=wrap;html=1;fillColor=none;align=center;" vertex="1" parent="5bAr0aKPam-v48-Gy6uk-1">
          <mxGeometry x="2200" y="2730" width="120" height="105" as="geometry" />
        </mxCell>
        <mxCell id="5bAr0aKPam-v48-Gy6uk-139" style="edgeStyle=orthogonalEdgeStyle;rounded=0;orthogonalLoop=1;jettySize=auto;html=1;entryX=1.006;entryY=0.604;entryDx=0;entryDy=0;entryPerimeter=0;" edge="1" parent="5bAr0aKPam-v48-Gy6uk-1" source="5bAr0aKPam-v48-Gy6uk-140" target="5bAr0aKPam-v48-Gy6uk-136">
          <mxGeometry relative="1" as="geometry" />
        </mxCell>
        <mxCell id="5bAr0aKPam-v48-Gy6uk-140" value="client-shared&lt;br&gt;&lt;br&gt;&lt;strike&gt;create-persistent-store&lt;/strike&gt;&lt;br&gt;&lt;br&gt;bind persistent storage from stack-shred" style="rounded=0;whiteSpace=wrap;html=1;fillColor=none;align=center;" vertex="1" parent="5bAr0aKPam-v48-Gy6uk-1">
          <mxGeometry x="2150" y="3230" width="140" height="105" as="geometry" />
        </mxCell>
        <mxCell id="5bAr0aKPam-v48-Gy6uk-141" style="edgeStyle=orthogonalEdgeStyle;rounded=0;orthogonalLoop=1;jettySize=auto;html=1;entryX=1;entryY=0.5;entryDx=0;entryDy=0;" edge="1" parent="5bAr0aKPam-v48-Gy6uk-1" source="5bAr0aKPam-v48-Gy6uk-143" target="5bAr0aKPam-v48-Gy6uk-140">
          <mxGeometry relative="1" as="geometry" />
        </mxCell>
        <mxCell id="5bAr0aKPam-v48-Gy6uk-142" style="edgeStyle=orthogonalEdgeStyle;rounded=0;orthogonalLoop=1;jettySize=auto;html=1;entryX=0.5;entryY=1;entryDx=0;entryDy=0;" edge="1" parent="5bAr0aKPam-v48-Gy6uk-1" source="5bAr0aKPam-v48-Gy6uk-143" target="5bAr0aKPam-v48-Gy6uk-136">
          <mxGeometry relative="1" as="geometry">
            <Array as="points">
              <mxPoint x="2440" y="3345" />
              <mxPoint x="2050" y="3345" />
            </Array>
          </mxGeometry>
        </mxCell>
        <mxCell id="5bAr0aKPam-v48-Gy6uk-143" value="client-data" style="rounded=0;whiteSpace=wrap;html=1;fillColor=none;align=center;" vertex="1" parent="5bAr0aKPam-v48-Gy6uk-1">
          <mxGeometry x="2380" y="3230" width="120" height="105" as="geometry" />
        </mxCell>
        <mxCell id="5bAr0aKPam-v48-Gy6uk-144" style="edgeStyle=orthogonalEdgeStyle;rounded=0;orthogonalLoop=1;jettySize=auto;html=1;entryX=0.5;entryY=0;entryDx=0;entryDy=0;" edge="1" parent="5bAr0aKPam-v48-Gy6uk-1" source="5bAr0aKPam-v48-Gy6uk-145" target="5bAr0aKPam-v48-Gy6uk-136">
          <mxGeometry relative="1" as="geometry" />
        </mxCell>
        <mxCell id="5bAr0aKPam-v48-Gy6uk-145" value="usecase" style="rounded=0;whiteSpace=wrap;html=1;fillColor=none;align=center;" vertex="1" parent="5bAr0aKPam-v48-Gy6uk-1">
          <mxGeometry x="2380" y="3080" width="120" height="105" as="geometry" />
        </mxCell>
        <mxCell id="5bAr0aKPam-v48-Gy6uk-146" value="" style="edgeStyle=orthogonalEdgeStyle;rounded=0;orthogonalLoop=1;jettySize=auto;html=1;" edge="1" parent="5bAr0aKPam-v48-Gy6uk-1" source="5bAr0aKPam-v48-Gy6uk-147" target="5bAr0aKPam-v48-Gy6uk-161">
          <mxGeometry relative="1" as="geometry" />
        </mxCell>
        <mxCell id="5bAr0aKPam-v48-Gy6uk-147" value="client-shared&lt;br&gt;&lt;br&gt;create postgres-singleton" style="rounded=0;whiteSpace=wrap;html=1;fillColor=none;align=center;" vertex="1" parent="5bAr0aKPam-v48-Gy6uk-1">
          <mxGeometry x="2114" y="3480" width="140" height="105" as="geometry" />
        </mxCell>
        <mxCell id="5bAr0aKPam-v48-Gy6uk-148" style="edgeStyle=orthogonalEdgeStyle;rounded=0;orthogonalLoop=1;jettySize=auto;html=1;entryX=1;entryY=0.5;entryDx=0;entryDy=0;" edge="1" parent="5bAr0aKPam-v48-Gy6uk-1" source="5bAr0aKPam-v48-Gy6uk-149" target="5bAr0aKPam-v48-Gy6uk-164">
          <mxGeometry relative="1" as="geometry" />
        </mxCell>
        <mxCell id="5bAr0aKPam-v48-Gy6uk-149" value="client-shared (mssql)&lt;br&gt;&lt;br&gt;bind persistent storage from stack-shred" style="rounded=0;whiteSpace=wrap;html=1;fillColor=none;align=center;" vertex="1" parent="5bAr0aKPam-v48-Gy6uk-1">
          <mxGeometry x="2114" y="3690" width="140" height="105" as="geometry" />
        </mxCell>
        <mxCell id="5bAr0aKPam-v48-Gy6uk-150" style="edgeStyle=orthogonalEdgeStyle;rounded=0;orthogonalLoop=1;jettySize=auto;html=1;entryX=1;entryY=0.3;entryDx=0;entryDy=0;" edge="1" parent="5bAr0aKPam-v48-Gy6uk-1" source="5bAr0aKPam-v48-Gy6uk-151" target="5bAr0aKPam-v48-Gy6uk-165">
          <mxGeometry relative="1" as="geometry" />
        </mxCell>
        <mxCell id="5bAr0aKPam-v48-Gy6uk-151" value="client-shared (mssql)&lt;br&gt;&lt;br&gt;create mssql" style="rounded=0;whiteSpace=wrap;html=1;fillColor=none;align=center;" vertex="1" parent="5bAr0aKPam-v48-Gy6uk-1">
          <mxGeometry x="2114" y="3795" width="140" height="105" as="geometry" />
        </mxCell>
        <mxCell id="5bAr0aKPam-v48-Gy6uk-152" value="client-shared&lt;br&gt;&lt;br&gt;&lt;br&gt;create postgres - prod" style="rounded=0;whiteSpace=wrap;html=1;fillColor=none;align=center;" vertex="1" parent="5bAr0aKPam-v48-Gy6uk-1">
          <mxGeometry x="2114" y="3585" width="140" height="105" as="geometry" />
        </mxCell>
        <mxCell id="5bAr0aKPam-v48-Gy6uk-153" style="edgeStyle=orthogonalEdgeStyle;rounded=0;orthogonalLoop=1;jettySize=auto;html=1;entryX=1;entryY=0.5;entryDx=0;entryDy=0;" edge="1" parent="5bAr0aKPam-v48-Gy6uk-1" source="5bAr0aKPam-v48-Gy6uk-156" target="5bAr0aKPam-v48-Gy6uk-147">
          <mxGeometry relative="1" as="geometry" />
        </mxCell>
        <mxCell id="5bAr0aKPam-v48-Gy6uk-154" style="edgeStyle=orthogonalEdgeStyle;rounded=0;orthogonalLoop=1;jettySize=auto;html=1;entryX=1;entryY=0.5;entryDx=0;entryDy=0;" edge="1" parent="5bAr0aKPam-v48-Gy6uk-1" source="5bAr0aKPam-v48-Gy6uk-156" target="5bAr0aKPam-v48-Gy6uk-152">
          <mxGeometry relative="1" as="geometry" />
        </mxCell>
        <mxCell id="5bAr0aKPam-v48-Gy6uk-155" style="edgeStyle=orthogonalEdgeStyle;rounded=0;orthogonalLoop=1;jettySize=auto;html=1;entryX=0.115;entryY=0.697;entryDx=0;entryDy=0;entryPerimeter=0;" edge="1" parent="5bAr0aKPam-v48-Gy6uk-1" source="5bAr0aKPam-v48-Gy6uk-156" target="5bAr0aKPam-v48-Gy6uk-9">
          <mxGeometry relative="1" as="geometry" />
        </mxCell>
        <mxCell id="5bAr0aKPam-v48-Gy6uk-156" value="client-data (postgres)" style="rounded=0;whiteSpace=wrap;html=1;fillColor=none;align=center;" vertex="1" parent="5bAr0aKPam-v48-Gy6uk-1">
          <mxGeometry x="2370" y="3480" width="120" height="105" as="geometry" />
        </mxCell>
        <mxCell id="5bAr0aKPam-v48-Gy6uk-157" style="edgeStyle=orthogonalEdgeStyle;rounded=0;orthogonalLoop=1;jettySize=auto;html=1;entryX=1;entryY=0.5;entryDx=0;entryDy=0;" edge="1" parent="5bAr0aKPam-v48-Gy6uk-1" source="5bAr0aKPam-v48-Gy6uk-158" target="5bAr0aKPam-v48-Gy6uk-149">
          <mxGeometry relative="1" as="geometry" />
        </mxCell>
        <mxCell id="5bAr0aKPam-v48-Gy6uk-158" value="client-data (mssql)" style="rounded=0;whiteSpace=wrap;html=1;fillColor=none;align=center;" vertex="1" parent="5bAr0aKPam-v48-Gy6uk-1">
          <mxGeometry x="2370" y="3690" width="120" height="105" as="geometry" />
        </mxCell>
        <mxCell id="5bAr0aKPam-v48-Gy6uk-159" style="edgeStyle=orthogonalEdgeStyle;rounded=0;orthogonalLoop=1;jettySize=auto;html=1;" edge="1" parent="5bAr0aKPam-v48-Gy6uk-1" source="5bAr0aKPam-v48-Gy6uk-160" target="5bAr0aKPam-v48-Gy6uk-151">
          <mxGeometry relative="1" as="geometry" />
        </mxCell>
        <mxCell id="5bAr0aKPam-v48-Gy6uk-160" value="client-data (mssql)" style="rounded=0;whiteSpace=wrap;html=1;fillColor=none;align=center;" vertex="1" parent="5bAr0aKPam-v48-Gy6uk-1">
          <mxGeometry x="2370" y="3795" width="120" height="105" as="geometry" />
        </mxCell>
        <mxCell id="5bAr0aKPam-v48-Gy6uk-161" value="AWS RDS&lt;br&gt;(postgres)" style="shape=cylinder;whiteSpace=wrap;html=1;boundedLbl=1;backgroundOutline=1;rounded=0;fillColor=none;" vertex="1" parent="5bAr0aKPam-v48-Gy6uk-1">
          <mxGeometry x="1934" y="3492.5" width="60" height="80" as="geometry" />
        </mxCell>
        <mxCell id="5bAr0aKPam-v48-Gy6uk-162" value="AWS RDS&lt;br&gt;(mssql)" style="shape=cylinder;whiteSpace=wrap;html=1;boundedLbl=1;backgroundOutline=1;rounded=0;fillColor=none;" vertex="1" parent="5bAr0aKPam-v48-Gy6uk-1">
          <mxGeometry x="1620" y="3690" width="60" height="80" as="geometry" />
        </mxCell>
        <mxCell id="5bAr0aKPam-v48-Gy6uk-163" style="edgeStyle=orthogonalEdgeStyle;rounded=0;orthogonalLoop=1;jettySize=auto;html=1;" edge="1" parent="5bAr0aKPam-v48-Gy6uk-1" source="5bAr0aKPam-v48-Gy6uk-164">
          <mxGeometry relative="1" as="geometry">
            <mxPoint x="1680" y="3732" as="targetPoint" />
          </mxGeometry>
        </mxCell>
        <mxCell id="5bAr0aKPam-v48-Gy6uk-164" value="non-prod stack shared&lt;br&gt;&lt;br&gt;create mssql" style="rounded=0;whiteSpace=wrap;html=1;fillColor=none;align=center;" vertex="1" parent="5bAr0aKPam-v48-Gy6uk-1">
          <mxGeometry x="1860" y="3680" width="140" height="105" as="geometry" />
        </mxCell>
        <mxCell id="5bAr0aKPam-v48-Gy6uk-165" value="AWS RDS&lt;br&gt;(mssql)" style="shape=cylinder;whiteSpace=wrap;html=1;boundedLbl=1;backgroundOutline=1;rounded=0;fillColor=none;" vertex="1" parent="5bAr0aKPam-v48-Gy6uk-1">
          <mxGeometry x="1930" y="3820" width="60" height="80" as="geometry" />
        </mxCell>
        <mxCell id="5bAr0aKPam-v48-Gy6uk-166" value="query-def&lt;br&gt;db_changelog&lt;br&gt;db_flavor&lt;br&gt;&lt;br&gt;(usecase-shared-bp)" style="shape=note;whiteSpace=wrap;html=1;backgroundOutline=1;darkOpacity=0.05;" vertex="1" parent="5bAr0aKPam-v48-Gy6uk-1">
          <mxGeometry x="2630" y="3563" width="80" height="147" as="geometry" />
        </mxCell>
        <mxCell id="5bAr0aKPam-v48-Gy6uk-167" value="usecase-A blueprint" style="rounded=0;whiteSpace=wrap;html=1;fillColor=none;align=center;" vertex="1" parent="5bAr0aKPam-v48-Gy6uk-1">
          <mxGeometry x="2630" y="3445" width="120" height="105" as="geometry" />
        </mxCell>
        <mxCell id="5bAr0aKPam-v48-Gy6uk-168" value="Breakdown:&lt;br&gt;&lt;ul&gt;&lt;li&gt;Making datasource support for client-data generic&lt;/li&gt;&lt;ul&gt;&lt;li&gt;Import&lt;/li&gt;&lt;li&gt;Query&lt;/li&gt;&lt;/ul&gt;&lt;li&gt;Redesign bitbucket repository structure for client data&lt;/li&gt;&lt;ul&gt;&lt;li&gt;support different flavors of db-changelog and query-definition files&lt;/li&gt;&lt;/ul&gt;&lt;li&gt;Further our POC on store proc support&lt;/li&gt;&lt;ul&gt;&lt;li&gt;To get a realistic storeproc example for juno&lt;/li&gt;&lt;li&gt;To experiment with dynamic table names for the store procedure&lt;/li&gt;&lt;li&gt;To decide how to package those additional store-proc files in client-data service&lt;/li&gt;&lt;/ul&gt;&lt;li&gt;Blueprint changes to support mssql provisioning&lt;/li&gt;&lt;ul&gt;&lt;li&gt;2 version:&lt;/li&gt;&lt;ul&gt;&lt;li&gt;non-prod (including da-saas-chobi-test, and uk-ucb)&lt;/li&gt;&lt;li&gt;production&lt;/li&gt;&lt;/ul&gt;&lt;li&gt;Design how usecase will provide the database engine toggling&lt;/li&gt;&lt;/ul&gt;&lt;li&gt;Jenkins build:&lt;/li&gt;&lt;ul&gt;&lt;li&gt;enhance gradlebuilder to build test with both mssql and postgres&lt;/li&gt;&lt;li&gt;To have the ability to build client data with both postgres and mssql on each build&lt;/li&gt;&lt;li&gt;Explore provisioning client data using blueprint for cucumber test&lt;/li&gt;&lt;/ul&gt;&lt;li&gt;Usecase integration:&lt;/li&gt;&lt;ul&gt;&lt;li&gt;support mssql provisioning for chobi usecase&lt;/li&gt;&lt;li&gt;pre-requisite: chobi usecase to be blueprint enabled&lt;/li&gt;&lt;/ul&gt;&lt;li&gt;Citrus simulator work to decouple the need for STS in the build&lt;/li&gt;&lt;li&gt;Upgrade to Juno environment&lt;/li&gt;&lt;li&gt;Knowledge sharing&lt;/li&gt;&lt;ul&gt;&lt;li&gt;they need to provide all the procedures in sql format (in case of proc calling proc)&lt;/li&gt;&lt;/ul&gt;&lt;/ul&gt;&lt;div&gt;&lt;br&gt;&lt;/div&gt;&lt;div&gt;&lt;br&gt;&lt;/div&gt;&lt;div&gt;&amp;nbsp;•	Extra Small &amp;lt; 10MD&amp;nbsp;&lt;/div&gt;&lt;div&gt;•	Small 11 - 25MD&lt;/div&gt;&lt;div&gt;&amp;nbsp;•	Medium 26 - 50MD &amp;lt;-- high medium&lt;/div&gt;&lt;div&gt;&amp;nbsp;•	Large 51 - 100MD&amp;nbsp;&lt;/div&gt;&lt;div&gt;•	Extra Large 101-200 MD&lt;/div&gt;&lt;div&gt;&amp;nbsp;•	Extra Extra Large &amp;gt; 201MD&lt;br&gt;&lt;/div&gt;" style="text;html=1;align=left;verticalAlign=top;resizable=0;points=[];autosize=1;" vertex="1" parent="5bAr0aKPam-v48-Gy6uk-1">
          <mxGeometry x="2590" y="2480" width="530" height="510" as="geometry" />
        </mxCell>
        <mxCell id="5bAr0aKPam-v48-Gy6uk-169" value="citrus-simulator-svc&lt;br&gt;(already running on openshift)" style="rounded=0;whiteSpace=wrap;html=1;fillColor=none;align=center;" vertex="1" parent="5bAr0aKPam-v48-Gy6uk-1">
          <mxGeometry x="3290" y="3530" width="120" height="105" as="geometry" />
        </mxCell>
        <mxCell id="5bAr0aKPam-v48-Gy6uk-170" value="client-data-svc" style="rounded=0;whiteSpace=wrap;html=1;fillColor=none;align=center;" vertex="1" parent="5bAr0aKPam-v48-Gy6uk-1">
          <mxGeometry x="3530" y="3530" width="120" height="105" as="geometry" />
        </mxCell>
        <mxCell id="5bAr0aKPam-v48-Gy6uk-171" value="we cant use openshfit-route for citrus&lt;br&gt;because citrus exposes sftp" style="text;html=1;align=center;verticalAlign=middle;resizable=0;points=[];autosize=1;" vertex="1" parent="5bAr0aKPam-v48-Gy6uk-1">
          <mxGeometry x="3260" y="3492.5" width="210" height="30" as="geometry" />
        </mxCell>
        <mxCell id="5bAr0aKPam-v48-Gy6uk-172" value="client-data" style="rounded=0;whiteSpace=wrap;html=1;fillColor=none;align=center;" vertex="1" parent="5bAr0aKPam-v48-Gy6uk-1">
          <mxGeometry x="1551" y="3940" width="140" height="105" as="geometry" />
        </mxCell>
        <mxCell id="5bAr0aKPam-v48-Gy6uk-173" style="edgeStyle=orthogonalEdgeStyle;rounded=0;orthogonalLoop=1;jettySize=auto;html=1;entryX=0;entryY=0.5;entryDx=0;entryDy=0;" edge="1" parent="5bAr0aKPam-v48-Gy6uk-1" source="5bAr0aKPam-v48-Gy6uk-174" target="5bAr0aKPam-v48-Gy6uk-172">
          <mxGeometry relative="1" as="geometry">
            <Array as="points">
              <mxPoint x="1375" y="3993" />
            </Array>
          </mxGeometry>
        </mxCell>
        <mxCell id="5bAr0aKPam-v48-Gy6uk-174" value="sts" style="rounded=0;whiteSpace=wrap;html=1;fillColor=none;align=center;" vertex="1" parent="5bAr0aKPam-v48-Gy6uk-1">
          <mxGeometry x="1305" y="3770" width="140" height="105" as="geometry" />
        </mxCell>
        <mxCell id="5bAr0aKPam-v48-Gy6uk-175" value="config-service: postgresql" style="text;html=1;align=center;verticalAlign=middle;resizable=0;points=[];autosize=1;" vertex="1" parent="5bAr0aKPam-v48-Gy6uk-1">
          <mxGeometry x="2115" y="3440" width="150" height="20" as="geometry" />
        </mxCell>
        <mxCell id="5bAr0aKPam-v48-Gy6uk-176" value="client-shared-core" style="rounded=0;whiteSpace=wrap;html=1;fillColor=#dae8fc;align=center;strokeColor=#6c8ebf;" vertex="1" parent="5bAr0aKPam-v48-Gy6uk-1">
          <mxGeometry x="690" y="4230" width="120" height="60" as="geometry" />
        </mxCell>
        <mxCell id="5bAr0aKPam-v48-Gy6uk-177" value="client-data (bp)" style="rounded=0;whiteSpace=wrap;html=1;fillColor=#dae8fc;align=center;strokeColor=#6c8ebf;" vertex="1" parent="5bAr0aKPam-v48-Gy6uk-1">
          <mxGeometry x="900" y="4230" width="120" height="60" as="geometry" />
        </mxCell>
        <mxCell id="5bAr0aKPam-v48-Gy6uk-178" value="repo: chobi-usecase" style="rounded=0;whiteSpace=wrap;html=1;fillColor=none;align=center;verticalAlign=top;" vertex="1" parent="5bAr0aKPam-v48-Gy6uk-1">
          <mxGeometry x="660" y="4410" width="465" height="150" as="geometry" />
        </mxCell>
        <mxCell id="5bAr0aKPam-v48-Gy6uk-179" value="usecase-blueprint-chobi" style="rounded=0;whiteSpace=wrap;html=1;fillColor=#dae8fc;align=center;strokeColor=#6c8ebf;" vertex="1" parent="5bAr0aKPam-v48-Gy6uk-1">
          <mxGeometry x="700" y="4462" width="120" height="60" as="geometry" />
        </mxCell>
        <mxCell id="5bAr0aKPam-v48-Gy6uk-180" value="chobi-client-data-solution-bp&lt;br&gt;(aka usecase shared)" style="rounded=0;whiteSpace=wrap;html=1;fillColor=#dae8fc;align=center;strokeColor=#6c8ebf;" vertex="1" parent="5bAr0aKPam-v48-Gy6uk-1">
          <mxGeometry x="895" y="4462" width="120" height="60" as="geometry" />
        </mxCell>
        <mxCell id="5bAr0aKPam-v48-Gy6uk-181" style="edgeStyle=orthogonalEdgeStyle;rounded=0;orthogonalLoop=1;jettySize=auto;html=1;entryX=0.5;entryY=1;entryDx=0;entryDy=0;dashed=1;" edge="1" parent="5bAr0aKPam-v48-Gy6uk-1" source="5bAr0aKPam-v48-Gy6uk-182" target="5bAr0aKPam-v48-Gy6uk-176">
          <mxGeometry relative="1" as="geometry">
            <Array as="points">
              <mxPoint x="1250" y="4350" />
              <mxPoint x="750" y="4350" />
            </Array>
          </mxGeometry>
        </mxCell>
        <mxCell id="5bAr0aKPam-v48-Gy6uk-182" value="client-shared-core-ns" style="rounded=0;whiteSpace=wrap;html=1;fillColor=#f8cecc;align=center;strokeColor=#b85450;" vertex="1" parent="5bAr0aKPam-v48-Gy6uk-1">
          <mxGeometry x="1240" y="4250" width="120" height="60" as="geometry" />
        </mxCell>
        <mxCell id="5bAr0aKPam-v48-Gy6uk-183" style="edgeStyle=orthogonalEdgeStyle;rounded=0;orthogonalLoop=1;jettySize=auto;html=1;" edge="1" parent="5bAr0aKPam-v48-Gy6uk-1" source="5bAr0aKPam-v48-Gy6uk-188" target="5bAr0aKPam-v48-Gy6uk-193">
          <mxGeometry relative="1" as="geometry">
            <Array as="points">
              <mxPoint x="1430" y="4350" />
              <mxPoint x="1300" y="4350" />
            </Array>
          </mxGeometry>
        </mxCell>
        <mxCell id="5bAr0aKPam-v48-Gy6uk-184" style="edgeStyle=orthogonalEdgeStyle;rounded=0;orthogonalLoop=1;jettySize=auto;html=1;entryX=0.5;entryY=0;entryDx=0;entryDy=0;" edge="1" parent="5bAr0aKPam-v48-Gy6uk-1" source="5bAr0aKPam-v48-Gy6uk-188" target="5bAr0aKPam-v48-Gy6uk-182">
          <mxGeometry relative="1" as="geometry">
            <Array as="points">
              <mxPoint x="1460" y="4230" />
              <mxPoint x="1300" y="4230" />
            </Array>
          </mxGeometry>
        </mxCell>
        <mxCell id="5bAr0aKPam-v48-Gy6uk-185" style="edgeStyle=orthogonalEdgeStyle;rounded=0;orthogonalLoop=1;jettySize=auto;html=1;dashed=1;entryX=1;entryY=0.5;entryDx=0;entryDy=0;" edge="1" parent="5bAr0aKPam-v48-Gy6uk-1" source="5bAr0aKPam-v48-Gy6uk-188" target="5bAr0aKPam-v48-Gy6uk-177">
          <mxGeometry relative="1" as="geometry">
            <Array as="points">
              <mxPoint x="1460" y="4220" />
              <mxPoint x="1070" y="4220" />
              <mxPoint x="1070" y="4260" />
            </Array>
          </mxGeometry>
        </mxCell>
        <mxCell id="5bAr0aKPam-v48-Gy6uk-186" style="edgeStyle=orthogonalEdgeStyle;rounded=0;orthogonalLoop=1;jettySize=auto;html=1;entryX=0.5;entryY=0;entryDx=0;entryDy=0;strokeColor=#FF0000;" edge="1" parent="5bAr0aKPam-v48-Gy6uk-1" source="5bAr0aKPam-v48-Gy6uk-188" target="5bAr0aKPam-v48-Gy6uk-196">
          <mxGeometry relative="1" as="geometry">
            <Array as="points">
              <mxPoint x="1460" y="4130" />
              <mxPoint x="590" y="4130" />
            </Array>
          </mxGeometry>
        </mxCell>
        <mxCell id="5bAr0aKPam-v48-Gy6uk-187" value="AWS socket line" style="edgeLabel;html=1;align=center;verticalAlign=middle;resizable=0;points=[];" vertex="1" connectable="0" parent="5bAr0aKPam-v48-Gy6uk-186">
          <mxGeometry x="-0.4018" y="-1" relative="1" as="geometry">
            <mxPoint as="offset" />
          </mxGeometry>
        </mxCell>
        <mxCell id="5bAr0aKPam-v48-Gy6uk-188" value="client-data-sandbox-ns" style="rounded=0;whiteSpace=wrap;html=1;fillColor=#f8cecc;align=center;strokeColor=#b85450;" vertex="1" parent="5bAr0aKPam-v48-Gy6uk-1">
          <mxGeometry x="1400" y="4250" width="120" height="60" as="geometry" />
        </mxCell>
        <mxCell id="5bAr0aKPam-v48-Gy6uk-189" style="edgeStyle=orthogonalEdgeStyle;rounded=0;orthogonalLoop=1;jettySize=auto;html=1;entryX=0.5;entryY=1;entryDx=0;entryDy=0;" edge="1" parent="5bAr0aKPam-v48-Gy6uk-1" source="5bAr0aKPam-v48-Gy6uk-191" target="5bAr0aKPam-v48-Gy6uk-188">
          <mxGeometry relative="1" as="geometry" />
        </mxCell>
        <mxCell id="5bAr0aKPam-v48-Gy6uk-190" style="edgeStyle=orthogonalEdgeStyle;rounded=0;orthogonalLoop=1;jettySize=auto;html=1;entryX=0.5;entryY=1;entryDx=0;entryDy=0;dashed=1;" edge="1" parent="5bAr0aKPam-v48-Gy6uk-1" source="5bAr0aKPam-v48-Gy6uk-191" target="5bAr0aKPam-v48-Gy6uk-179">
          <mxGeometry relative="1" as="geometry">
            <Array as="points">
              <mxPoint x="1460" y="4600" />
              <mxPoint x="760" y="4600" />
            </Array>
          </mxGeometry>
        </mxCell>
        <mxCell id="5bAr0aKPam-v48-Gy6uk-191" value="usecase-blueprint-chobi-sandbox-ns" style="rounded=0;whiteSpace=wrap;html=1;fillColor=#f8cecc;align=center;strokeColor=#b85450;" vertex="1" parent="5bAr0aKPam-v48-Gy6uk-1">
          <mxGeometry x="1400" y="4402" width="120" height="60" as="geometry" />
        </mxCell>
        <mxCell id="5bAr0aKPam-v48-Gy6uk-192" style="edgeStyle=orthogonalEdgeStyle;rounded=0;orthogonalLoop=1;jettySize=auto;html=1;entryX=1;entryY=0.5;entryDx=0;entryDy=0;dashed=1;" edge="1" parent="5bAr0aKPam-v48-Gy6uk-1" source="5bAr0aKPam-v48-Gy6uk-193" target="5bAr0aKPam-v48-Gy6uk-180">
          <mxGeometry relative="1" as="geometry">
            <Array as="points">
              <mxPoint x="1300" y="4492" />
            </Array>
          </mxGeometry>
        </mxCell>
        <mxCell id="5bAr0aKPam-v48-Gy6uk-193" value="chobi-client-data-solution-ns&lt;br&gt;(usecase shared)" style="rounded=0;whiteSpace=wrap;html=1;fillColor=#f8cecc;align=center;strokeColor=#b85450;" vertex="1" parent="5bAr0aKPam-v48-Gy6uk-1">
          <mxGeometry x="1240" y="4402" width="120" height="60" as="geometry" />
        </mxCell>
        <mxCell id="5bAr0aKPam-v48-Gy6uk-194" value="export: query-definition.xml&lt;br&gt;db-changelog.xml" style="text;html=1;align=center;verticalAlign=middle;resizable=0;points=[];autosize=1;" vertex="1" parent="5bAr0aKPam-v48-Gy6uk-1">
          <mxGeometry x="875" y="4522" width="160" height="30" as="geometry" />
        </mxCell>
        <mxCell id="5bAr0aKPam-v48-Gy6uk-195" value="provides client-data featureset" style="text;html=1;align=center;verticalAlign=middle;resizable=0;points=[];autosize=1;" vertex="1" parent="5bAr0aKPam-v48-Gy6uk-1">
          <mxGeometry x="870" y="4290" width="180" height="20" as="geometry" />
        </mxCell>
        <mxCell id="5bAr0aKPam-v48-Gy6uk-196" value="&lt;a href=&quot;https://bitbucketglobal.experian.local/projects/DASA/repos/platform-provisioning-blueprints/browse/platform/stack/ss-core-na-hybrid.yml&quot;&gt;ss-core-na-hybri&lt;/a&gt;d-mssql&lt;br&gt;(new)" style="rounded=0;whiteSpace=wrap;html=1;fillColor=#dae8fc;align=center;strokeColor=#6c8ebf;" vertex="1" parent="5bAr0aKPam-v48-Gy6uk-1">
          <mxGeometry x="530" y="4230" width="120" height="60" as="geometry" />
        </mxCell>
        <mxCell id="5bAr0aKPam-v48-Gy6uk-197" value="for testing:&lt;br&gt;create a usecase shared with our mssql-flavored db-changelog&lt;br&gt;(can be not related to usecase)" style="rounded=0;whiteSpace=wrap;html=1;fillColor=#d5e8d4;align=center;strokeColor=#82b366;" vertex="1" parent="5bAr0aKPam-v48-Gy6uk-1">
          <mxGeometry x="1240" y="4462" width="120" height="112" as="geometry" />
        </mxCell>
        <mxCell id="5bAr0aKPam-v48-Gy6uk-198" value="repo: chobi-usecase" style="rounded=0;whiteSpace=wrap;html=1;fillColor=none;align=center;verticalAlign=top;" vertex="1" parent="5bAr0aKPam-v48-Gy6uk-1">
          <mxGeometry x="675" y="4838" width="465" height="150" as="geometry" />
        </mxCell>
        <mxCell id="5bAr0aKPam-v48-Gy6uk-199" value="usecase-blueprint-chobi" style="rounded=0;whiteSpace=wrap;html=1;fillColor=#dae8fc;align=center;strokeColor=#6c8ebf;" vertex="1" parent="5bAr0aKPam-v48-Gy6uk-1">
          <mxGeometry x="715" y="4890" width="120" height="60" as="geometry" />
        </mxCell>
        <mxCell id="5bAr0aKPam-v48-Gy6uk-200" value="chobi-client-data-solution-bp&lt;br&gt;(aka usecase shared)" style="rounded=0;whiteSpace=wrap;html=1;fillColor=#dae8fc;align=center;strokeColor=#6c8ebf;" vertex="1" parent="5bAr0aKPam-v48-Gy6uk-1">
          <mxGeometry x="910" y="4890" width="120" height="60" as="geometry" />
        </mxCell>
        <mxCell id="5bAr0aKPam-v48-Gy6uk-201" value="export: query-definition.xml&lt;br&gt;db-changelog.xml" style="text;html=1;align=center;verticalAlign=middle;resizable=0;points=[];autosize=1;" vertex="1" parent="5bAr0aKPam-v48-Gy6uk-1">
          <mxGeometry x="890" y="4950" width="160" height="30" as="geometry" />
        </mxCell>
        <mxCell id="5bAr0aKPam-v48-Gy6uk-202" value="repo: userjourney-usecase" style="rounded=0;whiteSpace=wrap;html=1;fillColor=none;align=center;verticalAlign=top;" vertex="1" parent="5bAr0aKPam-v48-Gy6uk-1">
          <mxGeometry x="675" y="4680" width="465" height="150" as="geometry" />
        </mxCell>
        <mxCell id="5bAr0aKPam-v48-Gy6uk-203" value="usecase-blueprint-uj" style="rounded=0;whiteSpace=wrap;html=1;fillColor=#dae8fc;align=center;strokeColor=#6c8ebf;" vertex="1" parent="5bAr0aKPam-v48-Gy6uk-1">
          <mxGeometry x="715" y="4732" width="120" height="60" as="geometry" />
        </mxCell>
        <mxCell id="5bAr0aKPam-v48-Gy6uk-204" value="uj-client-data-solution-bp&lt;br&gt;(aka usecase shared)" style="rounded=0;whiteSpace=wrap;html=1;fillColor=#dae8fc;align=center;strokeColor=#6c8ebf;" vertex="1" parent="5bAr0aKPam-v48-Gy6uk-1">
          <mxGeometry x="910" y="4732" width="120" height="60" as="geometry" />
        </mxCell>
        <mxCell id="5bAr0aKPam-v48-Gy6uk-205" value="export: query-definition.xml&lt;br&gt;db-changelog.xml" style="text;html=1;align=center;verticalAlign=middle;resizable=0;points=[];autosize=1;" vertex="1" parent="5bAr0aKPam-v48-Gy6uk-1">
          <mxGeometry x="890" y="4792" width="160" height="30" as="geometry" />
        </mxCell>
        <mxCell id="5bAr0aKPam-v48-Gy6uk-206" value="customer-table&lt;br&gt;account-table" style="text;html=1;align=center;verticalAlign=middle;resizable=0;points=[];autosize=1;" vertex="1" parent="5bAr0aKPam-v48-Gy6uk-1">
          <mxGeometry x="1050" y="4792" width="90" height="30" as="geometry" />
        </mxCell>
        <mxCell id="5bAr0aKPam-v48-Gy6uk-207" value="customer-table&lt;br&gt;blacklist-table" style="text;html=1;align=center;verticalAlign=middle;resizable=0;points=[];autosize=1;" vertex="1" parent="5bAr0aKPam-v48-Gy6uk-1">
          <mxGeometry x="1050" y="4950" width="90" height="30" as="geometry" />
        </mxCell>
        <mxCell id="5bAr0aKPam-v48-Gy6uk-208" value="hsbc" style="shape=umlActor;verticalLabelPosition=bottom;verticalAlign=top;html=1;outlineConnect=0;" vertex="1" parent="5bAr0aKPam-v48-Gy6uk-1">
          <mxGeometry x="1711" y="4807" width="30" height="60" as="geometry" />
        </mxCell>
        <mxCell id="5bAr0aKPam-v48-Gy6uk-209" value="usecase-blueprint-uj-sandbox-ns" style="rounded=0;whiteSpace=wrap;html=1;fillColor=#f8cecc;align=center;strokeColor=#b85450;" vertex="1" parent="5bAr0aKPam-v48-Gy6uk-1">
          <mxGeometry x="1571" y="4750" width="120" height="60" as="geometry" />
        </mxCell>
        <mxCell id="5bAr0aKPam-v48-Gy6uk-210" value="usecase-blueprint-chobi-sandbox-ns" style="rounded=0;whiteSpace=wrap;html=1;fillColor=#f8cecc;align=center;strokeColor=#b85450;" vertex="1" parent="5bAr0aKPam-v48-Gy6uk-1">
          <mxGeometry x="1570" y="4860" width="120" height="60" as="geometry" />
        </mxCell>
        <mxCell id="5bAr0aKPam-v48-Gy6uk-211" value="client-data-sandbox-ns (uj)" style="rounded=0;whiteSpace=wrap;html=1;fillColor=#f8cecc;align=center;strokeColor=#b85450;" vertex="1" parent="5bAr0aKPam-v48-Gy6uk-1">
          <mxGeometry x="1210" y="4750" width="120" height="60" as="geometry" />
        </mxCell>
        <mxCell id="5bAr0aKPam-v48-Gy6uk-212" value="client-data-sandbox-ns (chobi)" style="rounded=0;whiteSpace=wrap;html=1;fillColor=#f8cecc;align=center;strokeColor=#b85450;" vertex="1" parent="5bAr0aKPam-v48-Gy6uk-1">
          <mxGeometry x="1210" y="4860" width="120" height="60" as="geometry" />
        </mxCell>
        <mxCell id="5bAr0aKPam-v48-Gy6uk-213" value="Option A" style="text;html=1;align=center;verticalAlign=middle;resizable=0;points=[];autosize=1;" vertex="1" parent="5bAr0aKPam-v48-Gy6uk-1">
          <mxGeometry x="1220" y="4670" width="60" height="20" as="geometry" />
        </mxCell>
        <mxCell id="5bAr0aKPam-v48-Gy6uk-214" value="client-data-sandbox-ns (combined)" style="rounded=0;whiteSpace=wrap;html=1;fillColor=#f8cecc;align=center;strokeColor=#b85450;" vertex="1" parent="5bAr0aKPam-v48-Gy6uk-1">
          <mxGeometry x="1400" y="4807" width="120" height="60" as="geometry" />
        </mxCell>
        <mxCell id="5bAr0aKPam-v48-Gy6uk-215" value="Option B" style="text;html=1;align=center;verticalAlign=middle;resizable=0;points=[];autosize=1;" vertex="1" parent="5bAr0aKPam-v48-Gy6uk-1">
          <mxGeometry x="1410" y="4670" width="60" height="20" as="geometry" />
        </mxCell>
        <mxCell id="5bAr0aKPam-v48-Gy6uk-216" value="" style="endArrow=none;dashed=1;html=1;" edge="1" parent="5bAr0aKPam-v48-Gy6uk-1">
          <mxGeometry width="50" height="50" relative="1" as="geometry">
            <mxPoint x="1360" y="4980" as="sourcePoint" />
            <mxPoint x="1360" y="4640" as="targetPoint" />
          </mxGeometry>
        </mxCell>
        <mxCell id="5bAr0aKPam-v48-Gy6uk-217" value="" style="endArrow=none;dashed=1;html=1;" edge="1" parent="5bAr0aKPam-v48-Gy6uk-1">
          <mxGeometry width="50" height="50" relative="1" as="geometry">
            <mxPoint x="1541" y="4980" as="sourcePoint" />
            <mxPoint x="1541" y="4640" as="targetPoint" />
          </mxGeometry>
        </mxCell>
        <mxCell id="5bAr0aKPam-v48-Gy6uk-218" value="repo: hsbc-usecase-shared (combine both userjourney and chobi-usecase tables)" style="rounded=0;whiteSpace=wrap;html=1;fillColor=none;align=center;verticalAlign=top;" vertex="1" parent="5bAr0aKPam-v48-Gy6uk-1">
          <mxGeometry x="1220" y="5010" width="430" height="150" as="geometry" />
        </mxCell>
        <mxCell id="5bAr0aKPam-v48-Gy6uk-219" value="hsbc-client-data-solution-bp&lt;br&gt;(aka usecase shared)" style="rounded=0;whiteSpace=wrap;html=1;fillColor=#dae8fc;align=center;strokeColor=#6c8ebf;" vertex="1" parent="5bAr0aKPam-v48-Gy6uk-1">
          <mxGeometry x="1340" y="5050" width="120" height="60" as="geometry" />
        </mxCell>
        <mxCell id="5bAr0aKPam-v48-Gy6uk-220" value="export: query-definition.xml&lt;br&gt;db-changelog.xml" style="text;html=1;align=center;verticalAlign=middle;resizable=0;points=[];autosize=1;" vertex="1" parent="5bAr0aKPam-v48-Gy6uk-1">
          <mxGeometry x="1320" y="5110" width="160" height="30" as="geometry" />
        </mxCell>
        <mxCell id="5bAr0aKPam-v48-Gy6uk-221" value="customer-table&lt;br&gt;account-table&lt;br&gt;blacklist-table" style="text;html=1;align=center;verticalAlign=middle;resizable=0;points=[];autosize=1;" vertex="1" parent="5bAr0aKPam-v48-Gy6uk-1">
          <mxGeometry x="1480" y="5100" width="90" height="50" as="geometry" />
        </mxCell>
        <mxCell id="5bAr0aKPam-v48-Gy6uk-222" value="postgres non-prod - singleton rds instance" style="text;html=1;align=center;verticalAlign=middle;resizable=0;points=[];autosize=1;" vertex="1" parent="5bAr0aKPam-v48-Gy6uk-1">
          <mxGeometry x="500" y="5260" width="240" height="20" as="geometry" />
        </mxCell>
        <mxCell id="5bAr0aKPam-v48-Gy6uk-223" value="aws rds" style="shape=cylinder3;whiteSpace=wrap;html=1;boundedLbl=1;backgroundOutline=1;size=15;" vertex="1" parent="5bAr0aKPam-v48-Gy6uk-1">
          <mxGeometry x="770" y="5230" width="60" height="80" as="geometry" />
        </mxCell>
        <mxCell id="5bAr0aKPam-v48-Gy6uk-224" style="edgeStyle=orthogonalEdgeStyle;rounded=0;orthogonalLoop=1;jettySize=auto;html=1;entryX=1;entryY=0;entryDx=0;entryDy=27.5;entryPerimeter=0;" edge="1" parent="5bAr0aKPam-v48-Gy6uk-1" source="5bAr0aKPam-v48-Gy6uk-225" target="5bAr0aKPam-v48-Gy6uk-223">
          <mxGeometry relative="1" as="geometry" />
        </mxCell>
        <mxCell id="5bAr0aKPam-v48-Gy6uk-225" value="client-shared" style="rounded=1;whiteSpace=wrap;html=1;" vertex="1" parent="5bAr0aKPam-v48-Gy6uk-1">
          <mxGeometry x="948" y="5210" width="120" height="60" as="geometry" />
        </mxCell>
        <mxCell id="5bAr0aKPam-v48-Gy6uk-226" style="edgeStyle=orthogonalEdgeStyle;rounded=0;orthogonalLoop=1;jettySize=auto;html=1;entryX=1;entryY=0;entryDx=0;entryDy=52.5;entryPerimeter=0;" edge="1" parent="5bAr0aKPam-v48-Gy6uk-1" source="5bAr0aKPam-v48-Gy6uk-227" target="5bAr0aKPam-v48-Gy6uk-223">
          <mxGeometry relative="1" as="geometry" />
        </mxCell>
        <mxCell id="5bAr0aKPam-v48-Gy6uk-227" value="client-shared" style="rounded=1;whiteSpace=wrap;html=1;" vertex="1" parent="5bAr0aKPam-v48-Gy6uk-1">
          <mxGeometry x="947.5" y="5300" width="120" height="60" as="geometry" />
        </mxCell>
        <mxCell id="5bAr0aKPam-v48-Gy6uk-228" value="postgres prod - non-singleton" style="text;html=1;align=center;verticalAlign=middle;resizable=0;points=[];autosize=1;" vertex="1" parent="5bAr0aKPam-v48-Gy6uk-1">
          <mxGeometry x="577" y="5460" width="170" height="20" as="geometry" />
        </mxCell>
        <mxCell id="5bAr0aKPam-v48-Gy6uk-229" value="aws rds" style="shape=cylinder3;whiteSpace=wrap;html=1;boundedLbl=1;backgroundOutline=1;size=15;" vertex="1" parent="5bAr0aKPam-v48-Gy6uk-1">
          <mxGeometry x="770" y="5420" width="60" height="80" as="geometry" />
        </mxCell>
        <mxCell id="5bAr0aKPam-v48-Gy6uk-230" style="edgeStyle=orthogonalEdgeStyle;rounded=0;orthogonalLoop=1;jettySize=auto;html=1;entryX=1;entryY=0;entryDx=0;entryDy=27.5;entryPerimeter=0;" edge="1" parent="5bAr0aKPam-v48-Gy6uk-1" source="5bAr0aKPam-v48-Gy6uk-231" target="5bAr0aKPam-v48-Gy6uk-229">
          <mxGeometry relative="1" as="geometry" />
        </mxCell>
        <mxCell id="5bAr0aKPam-v48-Gy6uk-231" value="client-shared" style="rounded=1;whiteSpace=wrap;html=1;" vertex="1" parent="5bAr0aKPam-v48-Gy6uk-1">
          <mxGeometry x="950" y="5410" width="120" height="60" as="geometry" />
        </mxCell>
        <mxCell id="5bAr0aKPam-v48-Gy6uk-232" style="edgeStyle=orthogonalEdgeStyle;rounded=0;orthogonalLoop=1;jettySize=auto;html=1;entryX=1;entryY=0.5;entryDx=0;entryDy=0;entryPerimeter=0;" edge="1" parent="5bAr0aKPam-v48-Gy6uk-1" source="5bAr0aKPam-v48-Gy6uk-233" target="5bAr0aKPam-v48-Gy6uk-234">
          <mxGeometry relative="1" as="geometry" />
        </mxCell>
        <mxCell id="5bAr0aKPam-v48-Gy6uk-233" value="client-shared" style="rounded=1;whiteSpace=wrap;html=1;" vertex="1" parent="5bAr0aKPam-v48-Gy6uk-1">
          <mxGeometry x="949.5" y="5500" width="120" height="60" as="geometry" />
        </mxCell>
        <mxCell id="5bAr0aKPam-v48-Gy6uk-234" value="aws rds" style="shape=cylinder3;whiteSpace=wrap;html=1;boundedLbl=1;backgroundOutline=1;size=15;" vertex="1" parent="5bAr0aKPam-v48-Gy6uk-1">
          <mxGeometry x="775" y="5510" width="60" height="80" as="geometry" />
        </mxCell>
        <mxCell id="5bAr0aKPam-v48-Gy6uk-235" value="mssql non-prod - non-singleton" style="text;html=1;align=center;verticalAlign=middle;resizable=0;points=[];autosize=1;" vertex="1" parent="5bAr0aKPam-v48-Gy6uk-1">
          <mxGeometry x="1098.5" y="5250" width="180" height="20" as="geometry" />
        </mxCell>
        <mxCell id="5bAr0aKPam-v48-Gy6uk-236" value="aws rds" style="shape=cylinder3;whiteSpace=wrap;html=1;boundedLbl=1;backgroundOutline=1;size=15;" vertex="1" parent="5bAr0aKPam-v48-Gy6uk-1">
          <mxGeometry x="1296.5" y="5210" width="60" height="80" as="geometry" />
        </mxCell>
        <mxCell id="5bAr0aKPam-v48-Gy6uk-237" style="edgeStyle=orthogonalEdgeStyle;rounded=0;orthogonalLoop=1;jettySize=auto;html=1;entryX=1;entryY=0;entryDx=0;entryDy=27.5;entryPerimeter=0;" edge="1" parent="5bAr0aKPam-v48-Gy6uk-1" source="5bAr0aKPam-v48-Gy6uk-238" target="5bAr0aKPam-v48-Gy6uk-236">
          <mxGeometry relative="1" as="geometry" />
        </mxCell>
        <mxCell id="5bAr0aKPam-v48-Gy6uk-238" value="client-shared" style="rounded=1;whiteSpace=wrap;html=1;" vertex="1" parent="5bAr0aKPam-v48-Gy6uk-1">
          <mxGeometry x="1476.5" y="5200" width="120" height="60" as="geometry" />
        </mxCell>
        <mxCell id="5bAr0aKPam-v48-Gy6uk-239" style="edgeStyle=orthogonalEdgeStyle;rounded=0;orthogonalLoop=1;jettySize=auto;html=1;entryX=1;entryY=0.5;entryDx=0;entryDy=0;entryPerimeter=0;" edge="1" parent="5bAr0aKPam-v48-Gy6uk-1" source="5bAr0aKPam-v48-Gy6uk-240" target="5bAr0aKPam-v48-Gy6uk-241">
          <mxGeometry relative="1" as="geometry" />
        </mxCell>
        <mxCell id="5bAr0aKPam-v48-Gy6uk-240" value="client-shared" style="rounded=1;whiteSpace=wrap;html=1;" vertex="1" parent="5bAr0aKPam-v48-Gy6uk-1">
          <mxGeometry x="1476" y="5290" width="120" height="60" as="geometry" />
        </mxCell>
        <mxCell id="5bAr0aKPam-v48-Gy6uk-241" value="aws rds" style="shape=cylinder3;whiteSpace=wrap;html=1;boundedLbl=1;backgroundOutline=1;size=15;" vertex="1" parent="5bAr0aKPam-v48-Gy6uk-1">
          <mxGeometry x="1301.5" y="5300" width="60" height="80" as="geometry" />
        </mxCell>
        <mxCell id="5bAr0aKPam-v48-Gy6uk-242" value="mssql prod - non-singleton" style="text;html=1;align=center;verticalAlign=middle;resizable=0;points=[];autosize=1;" vertex="1" parent="5bAr0aKPam-v48-Gy6uk-1">
          <mxGeometry x="1108.5" y="5450" width="160" height="20" as="geometry" />
        </mxCell>
        <mxCell id="5bAr0aKPam-v48-Gy6uk-243" value="aws rds" style="shape=cylinder3;whiteSpace=wrap;html=1;boundedLbl=1;backgroundOutline=1;size=15;" vertex="1" parent="5bAr0aKPam-v48-Gy6uk-1">
          <mxGeometry x="1296.5" y="5410" width="60" height="80" as="geometry" />
        </mxCell>
        <mxCell id="5bAr0aKPam-v48-Gy6uk-244" style="edgeStyle=orthogonalEdgeStyle;rounded=0;orthogonalLoop=1;jettySize=auto;html=1;entryX=1;entryY=0;entryDx=0;entryDy=27.5;entryPerimeter=0;" edge="1" parent="5bAr0aKPam-v48-Gy6uk-1" source="5bAr0aKPam-v48-Gy6uk-245" target="5bAr0aKPam-v48-Gy6uk-243">
          <mxGeometry relative="1" as="geometry" />
        </mxCell>
        <mxCell id="5bAr0aKPam-v48-Gy6uk-245" value="client-shared" style="rounded=1;whiteSpace=wrap;html=1;" vertex="1" parent="5bAr0aKPam-v48-Gy6uk-1">
          <mxGeometry x="1476.5" y="5400" width="120" height="60" as="geometry" />
        </mxCell>
        <mxCell id="5bAr0aKPam-v48-Gy6uk-246" style="edgeStyle=orthogonalEdgeStyle;rounded=0;orthogonalLoop=1;jettySize=auto;html=1;entryX=1;entryY=0.5;entryDx=0;entryDy=0;entryPerimeter=0;" edge="1" parent="5bAr0aKPam-v48-Gy6uk-1" source="5bAr0aKPam-v48-Gy6uk-247" target="5bAr0aKPam-v48-Gy6uk-248">
          <mxGeometry relative="1" as="geometry" />
        </mxCell>
        <mxCell id="5bAr0aKPam-v48-Gy6uk-247" value="client-shared" style="rounded=1;whiteSpace=wrap;html=1;" vertex="1" parent="5bAr0aKPam-v48-Gy6uk-1">
          <mxGeometry x="1476" y="5490" width="120" height="60" as="geometry" />
        </mxCell>
        <mxCell id="5bAr0aKPam-v48-Gy6uk-248" value="aws rds" style="shape=cylinder3;whiteSpace=wrap;html=1;boundedLbl=1;backgroundOutline=1;size=15;" vertex="1" parent="5bAr0aKPam-v48-Gy6uk-1">
          <mxGeometry x="1301.5" y="5500" width="60" height="80" as="geometry" />
        </mxCell>
        <mxCell id="5bAr0aKPam-v48-Gy6uk-249" value="" style="endArrow=none;dashed=1;html=1;" edge="1" parent="5bAr0aKPam-v48-Gy6uk-1">
          <mxGeometry width="50" height="50" relative="1" as="geometry">
            <mxPoint x="520" y="5390" as="sourcePoint" />
            <mxPoint x="1734" y="5390" as="targetPoint" />
          </mxGeometry>
        </mxCell>
        <mxCell id="5bAr0aKPam-v48-Gy6uk-250" value="no good" style="rounded=0;whiteSpace=wrap;html=1;fillColor=none;" vertex="1" parent="5bAr0aKPam-v48-Gy6uk-1">
          <mxGeometry x="1095" y="5180" width="545" height="200" as="geometry" />
        </mxCell>
        <mxCell id="5bAr0aKPam-v48-Gy6uk-251" value="tobe: mssql non-prod - fake singleton&lt;br&gt;provided by stack-shared" style="text;html=1;align=center;verticalAlign=middle;resizable=0;points=[];autosize=1;" vertex="1" parent="5bAr0aKPam-v48-Gy6uk-1">
          <mxGeometry x="1700" y="5250" width="210" height="30" as="geometry" />
        </mxCell>
        <mxCell id="5bAr0aKPam-v48-Gy6uk-252" value="aws rds" style="shape=cylinder3;whiteSpace=wrap;html=1;boundedLbl=1;backgroundOutline=1;size=15;" vertex="1" parent="5bAr0aKPam-v48-Gy6uk-1">
          <mxGeometry x="1913" y="5215" width="60" height="80" as="geometry" />
        </mxCell>
        <mxCell id="5bAr0aKPam-v48-Gy6uk-253" style="edgeStyle=orthogonalEdgeStyle;rounded=0;orthogonalLoop=1;jettySize=auto;html=1;entryX=1;entryY=0;entryDx=0;entryDy=27.5;entryPerimeter=0;" edge="1" parent="5bAr0aKPam-v48-Gy6uk-1" source="5bAr0aKPam-v48-Gy6uk-254" target="5bAr0aKPam-v48-Gy6uk-252">
          <mxGeometry relative="1" as="geometry" />
        </mxCell>
        <mxCell id="5bAr0aKPam-v48-Gy6uk-254" value="client-shared" style="rounded=1;whiteSpace=wrap;html=1;" vertex="1" parent="5bAr0aKPam-v48-Gy6uk-1">
          <mxGeometry x="2093" y="5205" width="120" height="60" as="geometry" />
        </mxCell>
        <mxCell id="5bAr0aKPam-v48-Gy6uk-255" style="edgeStyle=orthogonalEdgeStyle;rounded=0;orthogonalLoop=1;jettySize=auto;html=1;entryX=1;entryY=0.5;entryDx=0;entryDy=0;entryPerimeter=0;" edge="1" parent="5bAr0aKPam-v48-Gy6uk-1" source="5bAr0aKPam-v48-Gy6uk-256" target="5bAr0aKPam-v48-Gy6uk-252">
          <mxGeometry relative="1" as="geometry" />
        </mxCell>
        <mxCell id="5bAr0aKPam-v48-Gy6uk-256" value="client-shared" style="rounded=1;whiteSpace=wrap;html=1;" vertex="1" parent="5bAr0aKPam-v48-Gy6uk-1">
          <mxGeometry x="2092.5" y="5295" width="120" height="60" as="geometry" />
        </mxCell>
        <mxCell id="5bAr0aKPam-v48-Gy6uk-257" value="repo: platform-provisioning-blueprint" style="rounded=0;whiteSpace=wrap;html=1;fillColor=none;align=center;verticalAlign=top;" vertex="1" parent="5bAr0aKPam-v48-Gy6uk-1">
          <mxGeometry x="530" y="5770" width="640" height="170" as="geometry" />
        </mxCell>
        <mxCell id="5bAr0aKPam-v48-Gy6uk-258" value="platform (folder)" style="rounded=0;whiteSpace=wrap;html=1;fillColor=none;align=center;verticalAlign=top;" vertex="1" parent="5bAr0aKPam-v48-Gy6uk-1">
          <mxGeometry x="560" y="5805" width="310" height="110" as="geometry" />
        </mxCell>
        <mxCell id="5bAr0aKPam-v48-Gy6uk-259" value="client-data (folder)" style="rounded=0;whiteSpace=wrap;html=1;fillColor=none;align=center;verticalAlign=top;" vertex="1" parent="5bAr0aKPam-v48-Gy6uk-1">
          <mxGeometry x="920" y="5790" width="155" height="130" as="geometry" />
        </mxCell>
        <mxCell id="5bAr0aKPam-v48-Gy6uk-260" value="client-shared-core&lt;br&gt;&lt;br&gt;&lt;b&gt;(new: need to have both postgresql + mssql)&lt;/b&gt;" style="rounded=0;whiteSpace=wrap;html=1;fillColor=#dae8fc;align=center;strokeColor=#6c8ebf;" vertex="1" parent="5bAr0aKPam-v48-Gy6uk-1">
          <mxGeometry x="730" y="5830" width="120" height="70" as="geometry" />
        </mxCell>
        <mxCell id="5bAr0aKPam-v48-Gy6uk-261" value="client-data (bp)&lt;br&gt;&lt;b&gt;(new: blueprint changes to consume mssql rds binding)&lt;/b&gt;" style="rounded=0;whiteSpace=wrap;html=1;fillColor=#dae8fc;align=center;strokeColor=#6c8ebf;" vertex="1" parent="5bAr0aKPam-v48-Gy6uk-1">
          <mxGeometry x="940" y="5810" width="120" height="90" as="geometry" />
        </mxCell>
        <mxCell id="5bAr0aKPam-v48-Gy6uk-262" value="repo: chobi-usecase" style="rounded=0;whiteSpace=wrap;html=1;fillColor=none;align=center;verticalAlign=top;" vertex="1" parent="5bAr0aKPam-v48-Gy6uk-1">
          <mxGeometry x="700" y="6020" width="465" height="150" as="geometry" />
        </mxCell>
        <mxCell id="5bAr0aKPam-v48-Gy6uk-263" value="usecase-blueprint-chobi" style="rounded=0;whiteSpace=wrap;html=1;fillColor=#dae8fc;align=center;strokeColor=#6c8ebf;" vertex="1" parent="5bAr0aKPam-v48-Gy6uk-1">
          <mxGeometry x="740" y="6072" width="120" height="60" as="geometry" />
        </mxCell>
        <mxCell id="5bAr0aKPam-v48-Gy6uk-264" value="chobi-client-data-solution-bp&lt;br&gt;(aka usecase shared)" style="rounded=0;whiteSpace=wrap;html=1;fillColor=#dae8fc;align=center;strokeColor=#6c8ebf;" vertex="1" parent="5bAr0aKPam-v48-Gy6uk-1">
          <mxGeometry x="935" y="6072" width="120" height="60" as="geometry" />
        </mxCell>
        <mxCell id="5bAr0aKPam-v48-Gy6uk-265" style="edgeStyle=orthogonalEdgeStyle;rounded=0;orthogonalLoop=1;jettySize=auto;html=1;entryX=0.5;entryY=1;entryDx=0;entryDy=0;dashed=1;" edge="1" parent="5bAr0aKPam-v48-Gy6uk-1" source="5bAr0aKPam-v48-Gy6uk-266" target="5bAr0aKPam-v48-Gy6uk-260">
          <mxGeometry relative="1" as="geometry">
            <Array as="points">
              <mxPoint x="1290" y="5960" />
              <mxPoint x="790" y="5960" />
            </Array>
          </mxGeometry>
        </mxCell>
        <mxCell id="5bAr0aKPam-v48-Gy6uk-266" value="client-shared-core-ns" style="rounded=0;whiteSpace=wrap;html=1;fillColor=#f8cecc;align=center;strokeColor=#b85450;" vertex="1" parent="5bAr0aKPam-v48-Gy6uk-1">
          <mxGeometry x="1280" y="5860" width="120" height="60" as="geometry" />
        </mxCell>
        <mxCell id="5bAr0aKPam-v48-Gy6uk-267" style="edgeStyle=orthogonalEdgeStyle;rounded=0;orthogonalLoop=1;jettySize=auto;html=1;" edge="1" parent="5bAr0aKPam-v48-Gy6uk-1" source="5bAr0aKPam-v48-Gy6uk-270" target="5bAr0aKPam-v48-Gy6uk-277">
          <mxGeometry relative="1" as="geometry">
            <Array as="points">
              <mxPoint x="1470" y="5960" />
              <mxPoint x="1340" y="5960" />
            </Array>
          </mxGeometry>
        </mxCell>
        <mxCell id="5bAr0aKPam-v48-Gy6uk-268" style="edgeStyle=orthogonalEdgeStyle;rounded=0;orthogonalLoop=1;jettySize=auto;html=1;entryX=0.5;entryY=0;entryDx=0;entryDy=0;" edge="1" parent="5bAr0aKPam-v48-Gy6uk-1" source="5bAr0aKPam-v48-Gy6uk-270" target="5bAr0aKPam-v48-Gy6uk-266">
          <mxGeometry relative="1" as="geometry">
            <Array as="points">
              <mxPoint x="1500" y="5840" />
              <mxPoint x="1340" y="5840" />
            </Array>
          </mxGeometry>
        </mxCell>
        <mxCell id="5bAr0aKPam-v48-Gy6uk-269" style="edgeStyle=orthogonalEdgeStyle;rounded=0;orthogonalLoop=1;jettySize=auto;html=1;dashed=1;entryX=1;entryY=0.5;entryDx=0;entryDy=0;" edge="1" parent="5bAr0aKPam-v48-Gy6uk-1" source="5bAr0aKPam-v48-Gy6uk-270" target="5bAr0aKPam-v48-Gy6uk-261">
          <mxGeometry relative="1" as="geometry">
            <Array as="points">
              <mxPoint x="1500" y="5830" />
              <mxPoint x="1110" y="5830" />
              <mxPoint x="1110" y="5860" />
              <mxPoint x="1060" y="5860" />
            </Array>
          </mxGeometry>
        </mxCell>
        <mxCell id="5bAr0aKPam-v48-Gy6uk-270" value="client-data-sandbox-ns" style="rounded=0;whiteSpace=wrap;html=1;fillColor=#f8cecc;align=center;strokeColor=#b85450;" vertex="1" parent="5bAr0aKPam-v48-Gy6uk-1">
          <mxGeometry x="1440" y="5860" width="120" height="60" as="geometry" />
        </mxCell>
        <mxCell id="5bAr0aKPam-v48-Gy6uk-271" style="edgeStyle=orthogonalEdgeStyle;rounded=0;orthogonalLoop=1;jettySize=auto;html=1;entryX=0.5;entryY=1;entryDx=0;entryDy=0;" edge="1" parent="5bAr0aKPam-v48-Gy6uk-1" source="5bAr0aKPam-v48-Gy6uk-275" target="5bAr0aKPam-v48-Gy6uk-270">
          <mxGeometry relative="1" as="geometry" />
        </mxCell>
        <mxCell id="5bAr0aKPam-v48-Gy6uk-272" style="edgeStyle=orthogonalEdgeStyle;rounded=0;orthogonalLoop=1;jettySize=auto;html=1;entryX=0.5;entryY=1;entryDx=0;entryDy=0;dashed=1;" edge="1" parent="5bAr0aKPam-v48-Gy6uk-1" source="5bAr0aKPam-v48-Gy6uk-275" target="5bAr0aKPam-v48-Gy6uk-263">
          <mxGeometry relative="1" as="geometry">
            <Array as="points">
              <mxPoint x="1500" y="6210" />
              <mxPoint x="800" y="6210" />
            </Array>
          </mxGeometry>
        </mxCell>
        <mxCell id="5bAr0aKPam-v48-Gy6uk-273" style="edgeStyle=orthogonalEdgeStyle;rounded=0;orthogonalLoop=1;jettySize=auto;html=1;entryX=0.25;entryY=1;entryDx=0;entryDy=0;strokeColor=#FF0000;" edge="1" parent="5bAr0aKPam-v48-Gy6uk-1" source="5bAr0aKPam-v48-Gy6uk-275" target="5bAr0aKPam-v48-Gy6uk-260">
          <mxGeometry relative="1" as="geometry">
            <Array as="points">
              <mxPoint x="1480" y="5990" />
              <mxPoint x="760" y="5990" />
            </Array>
          </mxGeometry>
        </mxCell>
        <mxCell id="5bAr0aKPam-v48-Gy6uk-274" value="RDS socket line" style="edgeLabel;html=1;align=center;verticalAlign=middle;resizable=0;points=[];" vertex="1" connectable="0" parent="5bAr0aKPam-v48-Gy6uk-273">
          <mxGeometry x="-0.0444" y="1" relative="1" as="geometry">
            <mxPoint as="offset" />
          </mxGeometry>
        </mxCell>
        <mxCell id="5bAr0aKPam-v48-Gy6uk-275" value="usecase-blueprint-chobi-sandbox-ns" style="rounded=0;whiteSpace=wrap;html=1;fillColor=#f8cecc;align=center;strokeColor=#b85450;" vertex="1" parent="5bAr0aKPam-v48-Gy6uk-1">
          <mxGeometry x="1440" y="6012" width="120" height="60" as="geometry" />
        </mxCell>
        <mxCell id="5bAr0aKPam-v48-Gy6uk-276" style="edgeStyle=orthogonalEdgeStyle;rounded=0;orthogonalLoop=1;jettySize=auto;html=1;entryX=1;entryY=0.5;entryDx=0;entryDy=0;dashed=1;" edge="1" parent="5bAr0aKPam-v48-Gy6uk-1" source="5bAr0aKPam-v48-Gy6uk-277" target="5bAr0aKPam-v48-Gy6uk-264">
          <mxGeometry relative="1" as="geometry">
            <Array as="points">
              <mxPoint x="1340" y="6102" />
            </Array>
          </mxGeometry>
        </mxCell>
        <mxCell id="5bAr0aKPam-v48-Gy6uk-277" value="chobi-client-data-solution-ns&lt;br&gt;(usecase shared)" style="rounded=0;whiteSpace=wrap;html=1;fillColor=#f8cecc;align=center;strokeColor=#b85450;" vertex="1" parent="5bAr0aKPam-v48-Gy6uk-1">
          <mxGeometry x="1280" y="6012" width="120" height="60" as="geometry" />
        </mxCell>
        <mxCell id="5bAr0aKPam-v48-Gy6uk-278" value="export: query-definition.xml&lt;br&gt;db-changelog.xml" style="text;html=1;align=center;verticalAlign=middle;resizable=0;points=[];autosize=1;" vertex="1" parent="5bAr0aKPam-v48-Gy6uk-1">
          <mxGeometry x="915" y="6132" width="160" height="30" as="geometry" />
        </mxCell>
        <mxCell id="5bAr0aKPam-v48-Gy6uk-279" value="provides client-data featureset" style="text;html=1;align=center;verticalAlign=middle;resizable=0;points=[];autosize=1;" vertex="1" parent="5bAr0aKPam-v48-Gy6uk-1">
          <mxGeometry x="910" y="5900" width="180" height="20" as="geometry" />
        </mxCell>
        <mxCell id="5bAr0aKPam-v48-Gy6uk-280" value="&lt;a href=&quot;https://bitbucketglobal.experian.local/projects/DASA/repos/platform-provisioning-blueprints/browse/platform/stack/ss-core-na-hybrid.yml&quot;&gt;ss-core-na-hybri&lt;/a&gt;d.yml&lt;br&gt;(standard ss-core)" style="rounded=0;whiteSpace=wrap;html=1;fillColor=#dae8fc;align=center;strokeColor=#6c8ebf;" vertex="1" parent="5bAr0aKPam-v48-Gy6uk-1">
          <mxGeometry x="570" y="5840" width="120" height="60" as="geometry" />
        </mxCell>
        <mxCell id="5bAr0aKPam-v48-Gy6uk-281" value="for testing:&lt;br&gt;create a usecase shared with our mssql-flavored db-changelog&lt;br&gt;(can be not related to usecase)" style="rounded=0;whiteSpace=wrap;html=1;fillColor=#d5e8d4;align=center;strokeColor=#82b366;" vertex="1" parent="5bAr0aKPam-v48-Gy6uk-1">
          <mxGeometry x="1280" y="6072" width="120" height="112" as="geometry" />
        </mxCell>
        <mxCell id="5bAr0aKPam-v48-Gy6uk-282" value="&lt;b&gt;Production&lt;/b&gt;" style="text;html=1;align=center;verticalAlign=middle;resizable=0;points=[];autosize=1;" vertex="1" parent="5bAr0aKPam-v48-Gy6uk-1">
          <mxGeometry x="1000" y="5720" width="80" height="20" as="geometry" />
        </mxCell>
        <mxCell id="5bAr0aKPam-v48-Gy6uk-283" value="Non-prod" style="text;html=1;align=center;verticalAlign=middle;resizable=0;points=[];autosize=1;fontStyle=1" vertex="1" parent="5bAr0aKPam-v48-Gy6uk-1">
          <mxGeometry x="1040" y="4090" width="70" height="20" as="geometry" />
        </mxCell>
        <mxCell id="5bAr0aKPam-v48-Gy6uk-284" value="client-data" style="rounded=1;whiteSpace=wrap;html=1;" vertex="1" parent="5bAr0aKPam-v48-Gy6uk-1">
          <mxGeometry x="1388.5" y="6565" width="280" height="60" as="geometry" />
        </mxCell>
        <mxCell id="5bAr0aKPam-v48-Gy6uk-285" value="STS" style="rounded=1;whiteSpace=wrap;html=1;verticalAlign=top;" vertex="1" parent="5bAr0aKPam-v48-Gy6uk-1">
          <mxGeometry x="838.5" y="6425" width="200" height="260" as="geometry" />
        </mxCell>
        <mxCell id="5bAr0aKPam-v48-Gy6uk-286" style="edgeStyle=orthogonalEdgeStyle;rounded=0;orthogonalLoop=1;jettySize=auto;html=1;" edge="1" parent="5bAr0aKPam-v48-Gy6uk-1" source="5bAr0aKPam-v48-Gy6uk-287" target="5bAr0aKPam-v48-Gy6uk-285">
          <mxGeometry relative="1" as="geometry" />
        </mxCell>
        <mxCell id="5bAr0aKPam-v48-Gy6uk-287" value="client" style="shape=umlActor;verticalLabelPosition=bottom;verticalAlign=top;html=1;outlineConnect=0;fillColor=none;" vertex="1" parent="5bAr0aKPam-v48-Gy6uk-1">
          <mxGeometry x="708.5" y="6455" width="30" height="60" as="geometry" />
        </mxCell>
        <mxCell id="5bAr0aKPam-v48-Gy6uk-288" value="dat" style="shape=note;whiteSpace=wrap;html=1;backgroundOutline=1;darkOpacity=0.05;fillColor=none;" vertex="1" parent="5bAr0aKPam-v48-Gy6uk-1">
          <mxGeometry x="1418.5" y="6445" width="60" height="70" as="geometry" />
        </mxCell>
        <mxCell id="5bAr0aKPam-v48-Gy6uk-289" value="" style="edgeStyle=orthogonalEdgeStyle;rounded=0;orthogonalLoop=1;jettySize=auto;html=1;strokeColor=#000000;" edge="1" parent="5bAr0aKPam-v48-Gy6uk-1" source="5bAr0aKPam-v48-Gy6uk-290" target="5bAr0aKPam-v48-Gy6uk-291">
          <mxGeometry relative="1" as="geometry" />
        </mxCell>
        <mxCell id="5bAr0aKPam-v48-Gy6uk-290" value="dat" style="shape=note;whiteSpace=wrap;html=1;backgroundOutline=1;darkOpacity=0.05;fillColor=none;" vertex="1" parent="5bAr0aKPam-v48-Gy6uk-1">
          <mxGeometry x="946" y="6735" width="60" height="70" as="geometry" />
        </mxCell>
        <mxCell id="5bAr0aKPam-v48-Gy6uk-291" value="csv" style="shape=note;whiteSpace=wrap;html=1;backgroundOutline=1;darkOpacity=0.05;fillColor=none;" vertex="1" parent="5bAr0aKPam-v48-Gy6uk-1">
          <mxGeometry x="1211" y="6735" width="60" height="70" as="geometry" />
        </mxCell>
        <mxCell id="5bAr0aKPam-v48-Gy6uk-292" value="funcky" style="ellipse;whiteSpace=wrap;html=1;aspect=fixed;" vertex="1" parent="5bAr0aKPam-v48-Gy6uk-1">
          <mxGeometry x="1071" y="6725" width="80" height="80" as="geometry" />
        </mxCell>
        <mxCell id="5bAr0aKPam-v48-Gy6uk-293" value="delivery - manual" style="shape=umlActor;verticalLabelPosition=bottom;verticalAlign=top;html=1;outlineConnect=0;fillColor=none;" vertex="1" parent="5bAr0aKPam-v48-Gy6uk-1">
          <mxGeometry x="1043.5" y="6815" width="30" height="60" as="geometry" />
        </mxCell>
        <mxCell id="5bAr0aKPam-v48-Gy6uk-294" value="groovy" style="ellipse;whiteSpace=wrap;html=1;aspect=fixed;" vertex="1" parent="5bAr0aKPam-v48-Gy6uk-1">
          <mxGeometry x="1480" y="6435" width="80" height="80" as="geometry" />
        </mxCell>
        <mxCell id="5bAr0aKPam-v48-Gy6uk-295" value="csv" style="shape=note;whiteSpace=wrap;html=1;backgroundOutline=1;darkOpacity=0.05;fillColor=none;" vertex="1" parent="5bAr0aKPam-v48-Gy6uk-1">
          <mxGeometry x="1560" y="6445" width="60" height="70" as="geometry" />
        </mxCell>
        <mxCell id="5bAr0aKPam-v48-Gy6uk-296" value="dat" style="shape=note;whiteSpace=wrap;html=1;backgroundOutline=1;darkOpacity=0.05;fillColor=none;" vertex="1" parent="5bAr0aKPam-v48-Gy6uk-1">
          <mxGeometry x="893.5" y="6450" width="60" height="70" as="geometry" />
        </mxCell>
        <mxCell id="5bAr0aKPam-v48-Gy6uk-297" value="customconverter.groovy" style="ellipse;whiteSpace=wrap;html=1;aspect=fixed;" vertex="1" parent="5bAr0aKPam-v48-Gy6uk-1">
          <mxGeometry x="1061" y="6545" width="155" height="155" as="geometry" />
        </mxCell>
        <mxCell id="5bAr0aKPam-v48-Gy6uk-298" value="funcky" style="ellipse;whiteSpace=wrap;html=1;aspect=fixed;" vertex="1" parent="5bAr0aKPam-v48-Gy6uk-1">
          <mxGeometry x="1486" y="6505" width="80" height="80" as="geometry" />
        </mxCell>
        <mxCell id="5bAr0aKPam-v48-Gy6uk-299" value="funcky.definition" style="ellipse;whiteSpace=wrap;html=1;aspect=fixed;" vertex="1" parent="5bAr0aKPam-v48-Gy6uk-1">
          <mxGeometry x="1061" y="6390" width="155" height="155" as="geometry" />
        </mxCell>
        <mxCell id="5bAr0aKPam-v48-Gy6uk-300" value="chobi-client-data-solution-bp&lt;br&gt;(aka usecase shared)" style="rounded=0;whiteSpace=wrap;html=1;fillColor=#dae8fc;align=center;strokeColor=#6c8ebf;" vertex="1" parent="5bAr0aKPam-v48-Gy6uk-1">
          <mxGeometry x="220" y="6475" width="120" height="60" as="geometry" />
        </mxCell>
        <mxCell id="5bAr0aKPam-v48-Gy6uk-301" value="export: query-definition.xml&lt;br&gt;db-changelog.xml&lt;br&gt;&lt;br&gt;customconverter.groovy&lt;br&gt;funcky.definition" style="text;html=1;align=center;verticalAlign=middle;resizable=0;points=[];autosize=1;" vertex="1" parent="5bAr0aKPam-v48-Gy6uk-1">
          <mxGeometry x="210" y="6535" width="160" height="70" as="geometry" />
        </mxCell>
        <mxCell id="5bAr0aKPam-v48-Gy6uk-302" value="groovy dll" style="ellipse;whiteSpace=wrap;html=1;aspect=fixed;" vertex="1" parent="5bAr0aKPam-v48-Gy6uk-1">
          <mxGeometry x="1216" y="6582.5" width="80" height="80" as="geometry" />
        </mxCell>
        <mxCell id="5bAr0aKPam-v48-Gy6uk-303" value="delivery - manual" style="shape=umlActor;verticalLabelPosition=bottom;verticalAlign=top;html=1;outlineConnect=0;fillColor=none;" vertex="1" parent="5bAr0aKPam-v48-Gy6uk-1">
          <mxGeometry x="1233.5" y="6495" width="30" height="60" as="geometry" />
        </mxCell>
        <mxCell id="5bAr0aKPam-v48-Gy6uk-304" value="how about DAT metadata?" style="shape=note;whiteSpace=wrap;html=1;backgroundOutline=1;darkOpacity=0.05;fillColor=none;" vertex="1" parent="5bAr0aKPam-v48-Gy6uk-1">
          <mxGeometry x="864.75" y="6555" width="137.5" height="110" as="geometry" />
        </mxCell>
        <mxCell id="5bAr0aKPam-v48-Gy6uk-305" style="edgeStyle=orthogonalEdgeStyle;rounded=0;orthogonalLoop=1;jettySize=auto;html=1;entryX=1;entryY=0.5;entryDx=0;entryDy=0;entryPerimeter=0;" edge="1" parent="5bAr0aKPam-v48-Gy6uk-1" source="5bAr0aKPam-v48-Gy6uk-306" target="5bAr0aKPam-v48-Gy6uk-316">
          <mxGeometry relative="1" as="geometry" />
        </mxCell>
        <mxCell id="5bAr0aKPam-v48-Gy6uk-306" value="client-data-svc" style="rounded=1;whiteSpace=wrap;html=1;fillColor=none;" vertex="1" parent="5bAr0aKPam-v48-Gy6uk-1">
          <mxGeometry x="3370" y="1900" width="120" height="60" as="geometry" />
        </mxCell>
        <mxCell id="5bAr0aKPam-v48-Gy6uk-307" style="edgeStyle=orthogonalEdgeStyle;rounded=0;orthogonalLoop=1;jettySize=auto;html=1;" edge="1" parent="5bAr0aKPam-v48-Gy6uk-1" source="5bAr0aKPam-v48-Gy6uk-308" target="5bAr0aKPam-v48-Gy6uk-306">
          <mxGeometry relative="1" as="geometry" />
        </mxCell>
        <mxCell id="5bAr0aKPam-v48-Gy6uk-308" value="client-data-facade-svc&lt;br&gt;&lt;br&gt;(connectivity svc)" style="rounded=1;whiteSpace=wrap;html=1;fillColor=none;" vertex="1" parent="5bAr0aKPam-v48-Gy6uk-1">
          <mxGeometry x="3370" y="1640" width="120" height="60" as="geometry" />
        </mxCell>
        <mxCell id="5bAr0aKPam-v48-Gy6uk-309" style="edgeStyle=orthogonalEdgeStyle;rounded=0;orthogonalLoop=1;jettySize=auto;html=1;" edge="1" parent="5bAr0aKPam-v48-Gy6uk-1" source="5bAr0aKPam-v48-Gy6uk-310" target="5bAr0aKPam-v48-Gy6uk-308">
          <mxGeometry relative="1" as="geometry" />
        </mxCell>
        <mxCell id="5bAr0aKPam-v48-Gy6uk-310" value="bps" style="rounded=1;whiteSpace=wrap;html=1;fillColor=none;" vertex="1" parent="5bAr0aKPam-v48-Gy6uk-1">
          <mxGeometry x="3070" y="1640" width="120" height="60" as="geometry" />
        </mxCell>
        <mxCell id="5bAr0aKPam-v48-Gy6uk-311" value="IDD&lt;br&gt;ODD" style="text;html=1;align=center;verticalAlign=middle;resizable=0;points=[];autosize=1;" vertex="1" parent="5bAr0aKPam-v48-Gy6uk-1">
          <mxGeometry x="3260" y="1640" width="40" height="30" as="geometry" />
        </mxCell>
        <mxCell id="5bAr0aKPam-v48-Gy6uk-312" value="REST" style="text;html=1;strokeColor=none;fillColor=none;align=center;verticalAlign=middle;whiteSpace=wrap;rounded=0;" vertex="1" parent="5bAr0aKPam-v48-Gy6uk-1">
          <mxGeometry x="3430" y="1700" width="40" height="20" as="geometry" />
        </mxCell>
        <mxCell id="5bAr0aKPam-v48-Gy6uk-313" value="IDD --&amp;gt; X" style="text;html=1;align=center;verticalAlign=middle;resizable=0;points=[];autosize=1;" vertex="1" parent="5bAr0aKPam-v48-Gy6uk-1">
          <mxGeometry x="3680" y="1810" width="70" height="20" as="geometry" />
        </mxCell>
        <mxCell id="5bAr0aKPam-v48-Gy6uk-314" value="Y --&amp;gt; ODD" style="text;html=1;align=center;verticalAlign=middle;resizable=0;points=[];autosize=1;" vertex="1" parent="5bAr0aKPam-v48-Gy6uk-1">
          <mxGeometry x="3600" y="1810" width="70" height="20" as="geometry" />
        </mxCell>
        <mxCell id="5bAr0aKPam-v48-Gy6uk-315" value="query-definition.xml&lt;br&gt;&lt;br&gt;EXEC storeproc_CustomerA xxx, yyy" style="rounded=0;whiteSpace=wrap;html=1;fillColor=none;verticalAlign=top;" vertex="1" parent="5bAr0aKPam-v48-Gy6uk-1">
          <mxGeometry x="3570" y="1690" width="180" height="90" as="geometry" />
        </mxCell>
        <mxCell id="5bAr0aKPam-v48-Gy6uk-316" value="STS&lt;br&gt;&lt;br&gt;" style="shape=cylinder3;whiteSpace=wrap;html=1;boundedLbl=1;backgroundOutline=1;size=15;fillColor=none;" vertex="1" parent="5bAr0aKPam-v48-Gy6uk-1">
          <mxGeometry x="3180" y="1890" width="60" height="80" as="geometry" />
        </mxCell>
        <mxCell id="5bAr0aKPam-v48-Gy6uk-317" value="Experian Hosted service for client to put files" style="text;html=1;align=center;verticalAlign=middle;resizable=0;points=[];autosize=1;" vertex="1" parent="5bAr0aKPam-v48-Gy6uk-1">
          <mxGeometry x="2990" y="1980" width="250" height="20" as="geometry" />
        </mxCell>
        <mxCell id="5bAr0aKPam-v48-Gy6uk-318" style="edgeStyle=orthogonalEdgeStyle;rounded=0;orthogonalLoop=1;jettySize=auto;html=1;entryX=-0.015;entryY=0.39;entryDx=0;entryDy=0;entryPerimeter=0;" edge="1" parent="5bAr0aKPam-v48-Gy6uk-1" source="5bAr0aKPam-v48-Gy6uk-319" target="5bAr0aKPam-v48-Gy6uk-321">
          <mxGeometry relative="1" as="geometry" />
        </mxCell>
        <mxCell id="5bAr0aKPam-v48-Gy6uk-319" value="Client" style="shape=umlActor;verticalLabelPosition=bottom;verticalAlign=top;html=1;outlineConnect=0;fillColor=none;" vertex="1" parent="5bAr0aKPam-v48-Gy6uk-1">
          <mxGeometry x="2990" y="1890" width="30" height="60" as="geometry" />
        </mxCell>
        <mxCell id="5bAr0aKPam-v48-Gy6uk-320" style="edgeStyle=orthogonalEdgeStyle;rounded=0;orthogonalLoop=1;jettySize=auto;html=1;entryX=0;entryY=0.5;entryDx=0;entryDy=0;entryPerimeter=0;" edge="1" parent="5bAr0aKPam-v48-Gy6uk-1" source="5bAr0aKPam-v48-Gy6uk-321" target="5bAr0aKPam-v48-Gy6uk-323">
          <mxGeometry relative="1" as="geometry" />
        </mxCell>
        <mxCell id="5bAr0aKPam-v48-Gy6uk-321" value="STS portal" style="whiteSpace=wrap;html=1;aspect=fixed;fillColor=none;" vertex="1" parent="5bAr0aKPam-v48-Gy6uk-1">
          <mxGeometry x="3050" y="1890" width="80" height="80" as="geometry" />
        </mxCell>
        <mxCell id="5bAr0aKPam-v48-Gy6uk-322" style="edgeStyle=orthogonalEdgeStyle;rounded=0;orthogonalLoop=1;jettySize=auto;html=1;entryX=0.5;entryY=0;entryDx=0;entryDy=0;entryPerimeter=0;" edge="1" parent="5bAr0aKPam-v48-Gy6uk-1" source="5bAr0aKPam-v48-Gy6uk-323" target="5bAr0aKPam-v48-Gy6uk-316">
          <mxGeometry relative="1" as="geometry" />
        </mxCell>
        <mxCell id="5bAr0aKPam-v48-Gy6uk-323" value="csv" style="shape=note;whiteSpace=wrap;html=1;backgroundOutline=1;darkOpacity=0.05;fillColor=none;" vertex="1" parent="5bAr0aKPam-v48-Gy6uk-1">
          <mxGeometry x="3110" y="1810" width="60" height="70" as="geometry" />
        </mxCell>
        <mxCell id="5bAr0aKPam-v48-Gy6uk-324" value="sftp:22" style="text;html=1;align=center;verticalAlign=middle;resizable=0;points=[];autosize=1;" vertex="1" parent="5bAr0aKPam-v48-Gy6uk-1">
          <mxGeometry x="3260" y="1910" width="50" height="20" as="geometry" />
        </mxCell>
        <mxCell id="5bAr0aKPam-v48-Gy6uk-325" value="database" style="shape=cylinder3;whiteSpace=wrap;html=1;boundedLbl=1;backgroundOutline=1;size=15;fillColor=none;" vertex="1" parent="5bAr0aKPam-v48-Gy6uk-1">
          <mxGeometry x="3520" y="1890" width="60" height="150" as="geometry" />
        </mxCell>
        <mxCell id="5bAr0aKPam-v48-Gy6uk-326" value="db-changelog.yml&lt;br&gt;&lt;br&gt;create storeproc&lt;br&gt;storeproc_CustomerA{version}&lt;br&gt;&lt;br&gt;create table_CustomerA{version}" style="rounded=0;whiteSpace=wrap;html=1;fillColor=none;verticalAlign=top;" vertex="1" parent="5bAr0aKPam-v48-Gy6uk-1">
          <mxGeometry x="3310" y="1970" width="200" height="130" as="geometry" />
        </mxCell>
        <mxCell id="5bAr0aKPam-v48-Gy6uk-327" value="client-data" style="rounded=1;whiteSpace=wrap;html=1;" vertex="1" parent="5bAr0aKPam-v48-Gy6uk-1">
          <mxGeometry x="1926" y="7185" width="280" height="60" as="geometry" />
        </mxCell>
        <mxCell id="5bAr0aKPam-v48-Gy6uk-328" value="STS" style="rounded=1;whiteSpace=wrap;html=1;verticalAlign=top;" vertex="1" parent="5bAr0aKPam-v48-Gy6uk-1">
          <mxGeometry x="1376" y="7045" width="200" height="260" as="geometry" />
        </mxCell>
        <mxCell id="5bAr0aKPam-v48-Gy6uk-329" style="edgeStyle=orthogonalEdgeStyle;rounded=0;orthogonalLoop=1;jettySize=auto;html=1;" edge="1" parent="5bAr0aKPam-v48-Gy6uk-1" source="5bAr0aKPam-v48-Gy6uk-330" target="5bAr0aKPam-v48-Gy6uk-328">
          <mxGeometry relative="1" as="geometry" />
        </mxCell>
        <mxCell id="5bAr0aKPam-v48-Gy6uk-330" value="client" style="shape=umlActor;verticalLabelPosition=bottom;verticalAlign=top;html=1;outlineConnect=0;fillColor=none;" vertex="1" parent="5bAr0aKPam-v48-Gy6uk-1">
          <mxGeometry x="1246" y="7075" width="30" height="60" as="geometry" />
        </mxCell>
        <mxCell id="5bAr0aKPam-v48-Gy6uk-331" value="dat" style="shape=note;whiteSpace=wrap;html=1;backgroundOutline=1;darkOpacity=0.05;fillColor=none;" vertex="1" parent="5bAr0aKPam-v48-Gy6uk-1">
          <mxGeometry x="1958.5" y="7105" width="60" height="70" as="geometry" />
        </mxCell>
        <mxCell id="5bAr0aKPam-v48-Gy6uk-332" value="" style="edgeStyle=orthogonalEdgeStyle;rounded=0;orthogonalLoop=1;jettySize=auto;html=1;strokeColor=#000000;" edge="1" parent="5bAr0aKPam-v48-Gy6uk-1" source="5bAr0aKPam-v48-Gy6uk-333" target="5bAr0aKPam-v48-Gy6uk-334">
          <mxGeometry relative="1" as="geometry" />
        </mxCell>
        <mxCell id="5bAr0aKPam-v48-Gy6uk-333" value="dat" style="shape=note;whiteSpace=wrap;html=1;backgroundOutline=1;darkOpacity=0.05;fillColor=none;" vertex="1" parent="5bAr0aKPam-v48-Gy6uk-1">
          <mxGeometry x="1483.5" y="7355" width="60" height="70" as="geometry" />
        </mxCell>
        <mxCell id="5bAr0aKPam-v48-Gy6uk-334" value="csv" style="shape=note;whiteSpace=wrap;html=1;backgroundOutline=1;darkOpacity=0.05;fillColor=none;" vertex="1" parent="5bAr0aKPam-v48-Gy6uk-1">
          <mxGeometry x="1748.5" y="7355" width="60" height="70" as="geometry" />
        </mxCell>
        <mxCell id="5bAr0aKPam-v48-Gy6uk-335" value="funcky" style="ellipse;whiteSpace=wrap;html=1;aspect=fixed;" vertex="1" parent="5bAr0aKPam-v48-Gy6uk-1">
          <mxGeometry x="1608.5" y="7345" width="80" height="80" as="geometry" />
        </mxCell>
        <mxCell id="5bAr0aKPam-v48-Gy6uk-336" value="delivery - manual" style="shape=umlActor;verticalLabelPosition=bottom;verticalAlign=top;html=1;outlineConnect=0;fillColor=none;" vertex="1" parent="5bAr0aKPam-v48-Gy6uk-1">
          <mxGeometry x="1581" y="7435" width="30" height="60" as="geometry" />
        </mxCell>
        <mxCell id="5bAr0aKPam-v48-Gy6uk-337" value="groovy" style="ellipse;whiteSpace=wrap;html=1;aspect=fixed;" vertex="1" parent="5bAr0aKPam-v48-Gy6uk-1">
          <mxGeometry x="2020" y="7095" width="80" height="80" as="geometry" />
        </mxCell>
        <mxCell id="5bAr0aKPam-v48-Gy6uk-338" value="csv" style="shape=note;whiteSpace=wrap;html=1;backgroundOutline=1;darkOpacity=0.05;fillColor=none;" vertex="1" parent="5bAr0aKPam-v48-Gy6uk-1">
          <mxGeometry x="2100" y="7105" width="60" height="70" as="geometry" />
        </mxCell>
        <mxCell id="5bAr0aKPam-v48-Gy6uk-339" value="dat" style="shape=note;whiteSpace=wrap;html=1;backgroundOutline=1;darkOpacity=0.05;fillColor=none;" vertex="1" parent="5bAr0aKPam-v48-Gy6uk-1">
          <mxGeometry x="1431" y="7070" width="60" height="70" as="geometry" />
        </mxCell>
        <mxCell id="5bAr0aKPam-v48-Gy6uk-340" value="customconverter.groovy" style="ellipse;whiteSpace=wrap;html=1;aspect=fixed;" vertex="1" parent="5bAr0aKPam-v48-Gy6uk-1">
          <mxGeometry x="1598.5" y="7165" width="155" height="155" as="geometry" />
        </mxCell>
        <mxCell id="5bAr0aKPam-v48-Gy6uk-341" value="groovy dll" style="ellipse;whiteSpace=wrap;html=1;aspect=fixed;" vertex="1" parent="5bAr0aKPam-v48-Gy6uk-1">
          <mxGeometry x="1753.5" y="7202.5" width="80" height="80" as="geometry" />
        </mxCell>
        <mxCell id="5bAr0aKPam-v48-Gy6uk-342" value="delivery - manual" style="shape=umlActor;verticalLabelPosition=bottom;verticalAlign=top;html=1;outlineConnect=0;fillColor=none;" vertex="1" parent="5bAr0aKPam-v48-Gy6uk-1">
          <mxGeometry x="1771" y="7115" width="30" height="60" as="geometry" />
        </mxCell>
        <mxCell id="5bAr0aKPam-v48-Gy6uk-343" value="how about DAT metadata?" style="shape=note;whiteSpace=wrap;html=1;backgroundOutline=1;darkOpacity=0.05;fillColor=none;" vertex="1" parent="5bAr0aKPam-v48-Gy6uk-1">
          <mxGeometry x="1402.25" y="7175" width="137.5" height="110" as="geometry" />
        </mxCell>
        <mxCell id="5bAr0aKPam-v48-Gy6uk-344" value="usecase" style="rounded=1;whiteSpace=wrap;html=1;" vertex="1" parent="5bAr0aKPam-v48-Gy6uk-1">
          <mxGeometry x="1860" y="6830" width="170" height="60" as="geometry" />
        </mxCell>
        <mxCell id="5bAr0aKPam-v48-Gy6uk-345" value="groovy" style="ellipse;whiteSpace=wrap;html=1;aspect=fixed;" vertex="1" parent="5bAr0aKPam-v48-Gy6uk-1">
          <mxGeometry x="2080" y="6805" width="80" height="80" as="geometry" />
        </mxCell>
        <mxCell id="5bAr0aKPam-v48-Gy6uk-346" value="hsbc.groovy" style="ellipse;whiteSpace=wrap;html=1;aspect=fixed;" vertex="1" parent="5bAr0aKPam-v48-Gy6uk-1">
          <mxGeometry x="627.5" y="6725" width="95" height="95" as="geometry" />
        </mxCell>
        <mxCell id="5bAr0aKPam-v48-Gy6uk-347" value="sainsbury.groovy" style="ellipse;whiteSpace=wrap;html=1;aspect=fixed;" vertex="1" parent="5bAr0aKPam-v48-Gy6uk-1">
          <mxGeometry x="625" y="6830" width="100" height="100" as="geometry" />
        </mxCell>
      </root>
    </mxGraphModel>
  </diagram>
</mxfile>
